<svg version="1.1" xmlns="http://www.w3.org/2000/svg" xmlns:xlink="http://www.w3.org/1999/xlink" width="680.18011" height="458.19255" viewBox="0,0,680.18011,458.19255"><defs><radialGradient cx="240.00007" cy="180" r="246.997" gradientUnits="userSpaceOnUse" id="color-1"><stop offset="0" stop-color="#ffffff" stop-opacity="0"/><stop offset="1" stop-color="#ffffff" stop-opacity="0.49992"/></radialGradient><linearGradient x1="240.00007" y1="254.32432" x2="240.00007" y2="326.3964" gradientUnits="userSpaceOnUse" id="color-2"><stop offset="0" stop-color="#ffffff" stop-opacity="0"/><stop offset="1" stop-color="#ffffff"/></linearGradient></defs><g transform="translate(86.28455,8.43844)"><g stroke-miterlimit="10"><path d="M493.50159,-7.76276v295.84119h-504v-295.84118z" fill="#00eaff" fill-rule="nonzero" stroke="none" stroke-width="NaN" stroke-linecap="butt" stroke-linejoin="miter"/><path d="M261.89556,297.34271c0,33.58488 -66.21279,29.81081 -147.89039,29.81081c-81.6776,0 -147.89039,3.77407 -147.89039,-29.81081c0,-33.58488 66.21279,-91.81081 147.89039,-91.81081c81.67761,0 147.89039,58.22593 147.89039,91.81081z" fill="#00800b" fill-rule="nonzero" stroke="none" stroke-width="0" stroke-linecap="butt" stroke-linejoin="miter"/><path d="M515.89556,297.34271c0,33.58488 -62.85492,37.81081 -140.39039,37.81081c-77.53547,0 -140.39039,-4.22593 -140.39039,-37.81081c0,-33.58488 62.85492,-83.81081 140.39039,-83.81081c77.53547,0 140.39039,50.22593 140.39039,83.81081z" fill="#00b30f" fill-rule="nonzero" stroke="none" stroke-width="0" stroke-linecap="butt" stroke-linejoin="miter"/><path d="M194.49623,300.34271c0,33.58488 -62.85492,60.81081 -140.39039,60.81081c-77.53547,0 -140.39039,-27.22593 -140.39039,-60.81081c0,-33.58488 62.85492,-60.81081 140.39039,-60.81081c77.53547,0 140.39039,27.22593 140.39039,60.81081z" fill="#00e613" fill-rule="nonzero" stroke="none" stroke-width="0" stroke-linecap="butt" stroke-linejoin="miter"/><path d="M593.89556,300.34271c0,33.58488 -62.85492,60.81081 -140.39039,60.81081c-77.53547,0 -140.39039,-27.22593 -140.39039,-60.81081c0,-33.58488 62.85492,-60.81081 140.39039,-60.81081c77.53547,0 140.39039,27.22593 140.39039,60.81081z" fill="#00e613" fill-rule="nonzero" stroke="none" stroke-width="0" stroke-linecap="butt" stroke-linejoin="miter"/><path d="M380.68243,300.34271c0,33.58489 -62.85492,60.81082 -140.39039,60.81082c-77.53547,0 -140.39039,-27.22593 -140.39039,-60.81082c0,-33.58488 62.85492,-60.81081 140.39039,-60.81081c77.53547,0 140.39039,27.22593 140.39039,60.81081z" fill="#00ff15" fill-rule="nonzero" stroke="none" stroke-width="0" stroke-linecap="butt" stroke-linejoin="miter"/><g fill="#ffffff" fill-rule="nonzero" stroke="none" stroke-width="0" stroke-linecap="butt" stroke-linejoin="miter"><path d="M117.06265,51.45576c0,8.65246 -15.81927,15.66667 -35.33333,15.66667c-19.51406,0 -35.33334,-7.01421 -35.33334,-15.66667c0,-8.65246 15.81928,-15.66667 35.33334,-15.66667c19.51406,0 35.33333,7.01421 35.33333,15.66667z"/><path d="M73.72926,58.62242c0,3.95804 -8.28273,7.16666 -18.5,7.16666c-10.21727,0 -18.5,-3.20862 -18.5,-7.16666c0,-3.95804 8.28273,-7.16667 18.5,-7.16667c10.21727,0 18.5,3.20863 18.5,7.16667z"/><path d="M112.89599,55.45576c9.1127,0 16.5,2.68629 16.5,6c0,3.31371 -7.3873,6 -16.5,6c-9.1127,0 -16.5,-2.68629 -16.5,-6c0,-3.31371 7.3873,-6 16.5,-6z"/><path d="M81.72926,69.78908c-27.24605,0 -49.33334,-1.64161 -49.33334,-3.66666c0,-2.02505 22.08729,-3.66667 49.33334,-3.66667c27.24605,0 49.33333,1.64162 49.33333,3.66667c0,2.02504 -22.08728,3.66666 -49.33333,3.66666z"/></g><g fill="#ffffff" fill-rule="nonzero" stroke="none" stroke-width="0" stroke-linecap="butt" stroke-linejoin="miter"><path d="M436.85432,46.70315c0,7.13224 -16.83829,12.91406 -37.60937,12.91406c-20.77108,0 -37.60938,-5.78182 -37.60938,-12.91406c0,-7.13224 16.83829,-12.91406 37.60938,-12.91406c20.77108,0 37.60938,5.78182 37.60938,12.91406z"/><path d="M369.56528,59.16409c-12.38758,0 -22.42969,-2.33302 -22.42969,-5.21094c0,-2.87792 10.04211,-5.21094 22.42969,-5.21094c12.38758,0 22.42969,2.33302 22.42969,5.21094c0,2.87792 -10.04211,5.21094 -22.42969,5.21094z"/><path d="M419.18249,52.36721c0,-3.75381 5.57895,-6.79687 12.46094,-6.79687c6.88199,0 12.46094,3.04307 12.46094,6.79688c0,3.75381 -5.57895,6.79688 -12.46094,6.79688c-6.88199,0 -12.46094,-3.04307 -12.46094,-6.79687z"/><path d="M445.46374,58.03127c0,2.62766 -24.14165,4.75781 -53.92188,4.75781c-29.78024,0 -53.92188,-2.13014 -53.92188,-4.75781c0,-2.62766 24.14165,-4.75781 53.92188,-4.75781c29.78023,0 53.92187,2.13014 53.92187,4.75781z"/></g><g fill="#ffffff" fill-rule="nonzero" stroke="none" stroke-width="0" stroke-linecap="butt" stroke-linejoin="miter"><path d="M300.81954,31.17462c0,6.90356 -16.11775,12.5 -36,12.5c-19.88225,0 -36,-5.59644 -36,-12.5c0,-6.90356 16.11775,-12.5 36,-12.5c19.88225,0 36,5.59644 36,12.5z"/><path d="M253.31958,36.42462c0,3.45178 -6.71573,6.25 -15,6.25c-8.28427,0 -15,-2.79822 -15,-6.25c0,-3.45178 6.71573,-6.25 15,-6.25c8.28427,0 15,2.79822 15,6.25z"/><path d="M291.06954,30.17462c7.31777,0 13.25,2.46243 13.25,5.5c0,3.03757 -5.93223,5.5 -13.25,5.5c-7.31778,0 -13.25,-2.46243 -13.25,-5.5c0,-3.03757 5.93223,-5.5 13.25,-5.5z"/><path d="M256.81954,45.17462c-24.57667,0 -44.5,-1.90279 -44.5,-4.25c0,-2.34721 19.92333,-4.25 44.5,-4.25c24.57667,0 44.5,1.90279 44.5,4.25c0,2.34721 -19.92333,4.25 -44.5,4.25z"/></g><path d="M-60.75904,449.75411v-148.64865c0,0 202.07988,-4.5045 303.3033,-4.5045c100.47269,0 301.8018,4.5045 301.8018,4.5045v148.64865z" fill="#00ff15" fill-rule="nonzero" stroke="none" stroke-width="0" stroke-linecap="butt" stroke-linejoin="miter"/><path d="M-6.99694,368.43844v-376.87688h493.99399v376.87688z" fill="url(#color-1)" fill-rule="nonzero" stroke="none" stroke-width="0" stroke-linecap="butt" stroke-linejoin="miter"/><path d="M279.02862,321.93879l84.61999,-253.4732l116.84289,39.00706l-84.61999,253.4732z" fill-opacity="0.01" fill="#000000" fill-rule="nonzero" stroke="none" stroke-width="0" stroke-linecap="butt" stroke-linejoin="miter"/><path d="M307.01708,324.83836l56.11295,-120.26214l35.88886,11.81475l-28.92402,129.50541z" fill="#9200ff" fill-rule="nonzero" stroke="#000000" stroke-width="2" stroke-linecap="butt" stroke-linejoin="miter"/><path d="M352.03971,230.87231l11.29775,-23.98435l34.03182,11.21151l-5.64181,25.63876c0,0 -8.4574,1.60025 -21.87761,-2.54936c-11.93039,-3.68895 -17.81016,-10.31657 -17.81016,-10.31657z" fill="#6700b5" fill-rule="nonzero" stroke="#000000" stroke-width="0" stroke-linecap="butt" stroke-linejoin="miter"/><path d="M368.13907,207.30116l23.81741,7.95125" fill="none" fill-rule="nonzero" stroke="#000000" stroke-width="2" stroke-linecap="round" stroke-linejoin="miter"/><path d="M317.57206,190.62257l38.34894,-114.87154l122.63892,40.94202l-38.34894,114.87154z" fill="#007500" fill-rule="nonzero" stroke="#000000" stroke-width="2" stroke-linecap="butt" stroke-linejoin="miter"/><path d="M355.21503,249.60083l13.4492,-40.28614l6.02409,2.01109l-13.4492,40.28614z" fill="#9200ff" fill-rule="nonzero" stroke="#000000" stroke-width="2" stroke-linecap="butt" stroke-linejoin="miter"/><path d="M371.4293,254.42656l13.4492,-40.28614l6.02409,2.01109l-13.4492,40.28614z" fill="#9200ff" fill-rule="nonzero" stroke="#000000" stroke-width="2" stroke-linecap="butt" stroke-linejoin="miter"/><path d="M371.34328,138.41954c1.29709,2.74889 2.63369,5.49288 3.77473,8.26115c0.15436,0.37449 0.40178,0.86248 0.67522,1.39829c0.62553,-0.95888 1.23922,-1.92258 1.69963,-2.95249c1.11235,-2.48833 0.74943,-5.61025 2.6123,-7.729c0.14064,-0.15997 0.28938,-0.31381 0.44536,-0.46219l-0.10921,-0.06l1.97395,-2.58178c1.36294,-1.89239 4.48183,-2.60355 7.5798,-1.56931c2.16843,0.72391 3.83135,2.13761 4.61785,3.72036l3.40286,6.65163l-0.04024,0.00706l0.10213,0.11784c3.80547,8.53527 5.35802,10.66819 6.59035,17.46169c0.42519,0.14252 0.84952,0.28718 1.27306,0.43438c0.94516,-0.96759 1.9818,-1.91886 3.05871,-2.83997l4.86959,-6.36903c1.36294,-1.89239 4.48183,-2.60355 7.5798,-1.56931c2.0782,0.69379 3.69209,2.02115 4.51515,3.5237l1.41252,2.52588l-0.27709,0.05776l0.4472,0.40843l1.39637,-4.18271c0.87444,-2.61931 4.49781,-3.76971 8.09302,-2.56948c3.52396,1.17645 5.71286,4.17461 4.97477,6.75963l-1.12542,4.04893c-0.17966,0.97607 -0.3751,1.94839 -0.57153,2.92048c-0.01021,0.33973 -0.08485,0.67276 -0.20207,1.00134c-0.18303,0.91104 -0.36245,1.82294 -0.52606,2.73858c0.29997,0.01164 0.60873,0.0326 0.92665,0.06338c3.5271,0.34146 5.5328,4.39178 7.18686,7.02487c2.00192,3.18685 1.16566,7.38743 1.26899,10.58172c0.0773,2.38998 1.09322,4.96425 0.44534,7.19559c-0.00978,0.03369 -0.01967,0.06733 -0.02967,0.10094l0.03197,0.00457l0.05508,6.5992c0.0165,0.44929 -0.04384,0.89626 -0.18869,1.33016c-0.87444,2.61931 -4.49781,3.76971 -8.09302,2.56948c-0.18338,-0.06122 -0.36315,-0.12737 -0.53907,-0.19814l-0.85215,1.90853c-1.03962,2.40944 -4.5231,3.42912 -7.98054,2.27488c-0.42475,-0.1418 -0.83009,-0.31005 -1.21325,-0.50087l-0.20518,0.61461c-0.87444,2.61931 -4.49781,3.76971 -8.09302,2.56948c-2.92832,-0.9776 -4.93477,-3.21313 -5.10586,-5.42421l-0.26657,-2.48449l0.23697,0.01995l-0.25864,-0.34114c0.07493,-1.44765 -0.00875,-2.92755 -0.03652,-4.39519l-0.01958,0.01357c-1.59212,1.15669 -4.11871,1.46612 -6.63154,0.62723c-2.73757,-0.91391 -4.66944,-2.9272 -5.04931,-4.99215l-0.62048,-2.91788c-0.28409,-0.98462 -0.7195,-2.08074 -1.18274,-3.227l-0.44627,1.33678c-0.87444,2.61931 -4.49781,3.76971 -8.09302,2.56948c-3.31545,-1.10684 -5.44916,-3.82618 -5.07538,-6.29689l0.43257,-3.34562c-1.25049,0.19864 -2.66383,0.0893 -4.07286,-0.38109c-2.59869,-0.86755 -4.47136,-2.72577 -4.97962,-4.67843l-1.29459,-4.51472l0.2825,-0.00767l-0.40663,-0.56231c-0.00039,-0.03031 -0.00076,-0.06062 -0.00112,-0.09092l-0.88669,1.56371c-1.18541,2.19975 -4.5248,3.09194 -7.84026,1.9851c-1.3177,-0.4399 -2.44873,-1.13453 -3.30987,-1.96702c-1.57322,0.76021 -3.71783,0.87628 -5.85252,0.16363c-2.73757,-0.91391 -4.66944,-2.9272 -5.04931,-4.99215l-0.64494,-3.03292c-0.10444,-0.49127 -0.23897,-1.1204 -0.38934,-1.82721c-0.12375,0.35481 -0.26682,0.70324 -0.43348,1.04388l-1.46783,7.80878c-0.03157,0.18478 -0.07728,0.36808 -0.13771,0.54909c-0.87444,2.61931 -4.49781,3.76971 -8.09302,2.56948c-0.19277,-0.06436 -0.38154,-0.13416 -0.56605,-0.20905l-0.43212,2.35916c-0.03165,0.19109 -0.07839,0.38062 -0.14085,0.56771c-0.87444,2.61931 -4.49781,3.76971 -8.09302,2.56948c-3.05161,-1.01876 -5.10208,-3.4036 -5.11765,-5.70326l-0.16369,-4.54732l0.11144,0.01413l-0.11388,-0.18804c0.77044,-14.59264 2.7828,-29.47011 7.31176,-43.13046c0,0 1.58331,-4.74269 8.09302,-2.56948c6.50971,2.17321 4.9264,6.91591 4.9264,6.91591c-0.34946,1.03851 -0.68287,2.0853 -1.00094,3.13952c1.59984,1.10859 2.63095,2.64013 2.79088,4.17005l0.13567,1.00964c1.00406,-0.1738 2.02864,-0.23667 3.01145,-0.14243c-0.05578,-0.53106 -0.09188,-1.06036 -0.10239,-1.58737l-2.62389,-6.83123c-0.38003,-0.93526 -0.45308,-1.91459 -0.1458,-2.83501c0.87444,-2.61931 4.49781,-3.76971 8.09302,-2.56948c0.96078,0.32075 1.82233,0.77691 2.55237,1.3232c0.31212,0.0695 0.62589,0.1563 0.93942,0.26097c2.92832,0.9776 4.93477,3.21313 5.10586,5.42421l0.24462,2.27987c0.82073,1.35415 0.76309,2.79095 0.91501,4.21735zM417.82993,174.97554c-1.29293,0.35661 -2.70034,0.24241 -3.70716,0.06676c0.17849,0.29264 0.35466,0.57815 0.52938,0.8539c1.1687,1.84448 0.2666,3.79482 0.35757,5.72921c1.84623,-0.48937 3.95905,-0.65854 5.81366,-0.51813l-1.63608,-2.79125l0.14237,-0.03235c-0.20819,-0.27945 -0.39711,-0.56668 -0.56356,-0.86298c-0.45293,-0.80631 -0.74578,-1.62242 -0.93619,-2.44517z" fill="#ff0000" fill-rule="nonzero" stroke="none" stroke-width="0.5" stroke-linecap="butt" stroke-linejoin="miter"/><path d="M357.33295,107.27497l100.79595,33.64992c6.10673,2.03868 9.38169,8.59616 7.34301,14.70287l-10.42805,31.23647c-2.03868,6.10671 -8.59616,9.3817 -14.70286,7.34303l-100.79594,-33.64991c-6.10671,-2.03868 -9.38171,-8.59616 -7.34303,-14.70287l10.42805,-31.23647c2.03867,-6.1067 8.59617,-9.3817 14.70288,-7.34302z" fill="#c5f4ff" fill-rule="evenodd" stroke="#000000" stroke-width="2" stroke-linecap="round" stroke-linejoin="round"/><path d="M365.59556,116.12933l81.24103,27.12167c4.92199,1.64317 7.5616,6.92846 5.91844,11.85044l-8.40495,25.17644c-1.64316,4.92198 -6.92846,7.5616 -11.85044,5.91844l-81.24103,-27.12167c-4.92198,-1.64316 -7.56161,-6.92846 -5.91845,-11.85044l8.40495,-25.17644c1.64316,-4.92198 6.92847,-7.5616 11.85045,-5.91844z" fill="#000000" fill-rule="evenodd" stroke="#000000" stroke-width="0" stroke-linecap="round" stroke-linejoin="round"/><path d="M320.40766,180.88217l46.43592,15.08379l2.26248,-6.77711l30.49698,10.18117l-1.8854,5.64759l46.31023,15.4603" fill="none" fill-rule="nonzero" stroke="#000000" stroke-width="2" stroke-linecap="round" stroke-linejoin="miter"/><g fill="#00ffff" fill-rule="nonzero" stroke="none" stroke-width="0" stroke-linecap="butt" stroke-linejoin="miter"><path d="M379.77998,150.65799c-2.40129,7.1929 -8.36065,11.68427 -13.31059,10.03177c-4.94995,-1.6525 -7.01604,-8.82311 -4.61475,-16.016c2.40129,-7.1929 8.36065,-11.68427 13.31059,-10.03177c4.94995,1.6525 7.01604,8.82311 4.61475,16.016z"/><path d="M362.46881,128.84688l1.49606,-4.48134l22.96686,7.6673l-1.49606,4.48134z"/><path d="M381.51536,133.33762l2.6181,-7.84235l4.20126,1.40256l-2.6181,7.84235z"/></g><g fill="#00ffff" fill-rule="nonzero" stroke="none" stroke-width="0" stroke-linecap="butt" stroke-linejoin="miter"><path d="M426.42153,152.42161c4.94995,1.6525 7.01604,8.82311 4.61475,16.016c-2.40129,7.19289 -8.36065,11.68427 -13.31059,10.03177c-4.94995,-1.6525 -7.01605,-8.82312 -4.61476,-16.01601c2.40129,-7.19289 8.36066,-11.68427 13.3106,-10.03177z"/><path d="M417.08611,147.74855l1.49606,-4.48134l22.96686,7.6673l-1.49606,4.48134z"/><path d="M417.92722,146.16156l2.6181,-7.84235l4.20126,1.40256l-2.6181,7.84235z"/></g><path d="M115.31201,331.87447l-32.07029,-128.77555l35.32669,-13.40239l59.01744,118.84945z" fill="#babebf" fill-rule="nonzero" stroke="#000000" stroke-width="2" stroke-linecap="butt" stroke-linejoin="miter"/><path d="M32.65576,122.51729l68.94968,-25.82934c11.52347,-4.31682 24.27573,1.48492 28.59254,13.00837l22.08098,58.94369c4.31681,11.52344 -1.48489,24.27572 -13.00837,28.59254l-68.94968,25.82934c-11.52344,4.31681 -24.27573,-1.48492 -28.59254,-13.00837l-22.08098,-58.94369c-4.31681,-11.52344 1.48492,-24.27573 13.00837,-28.59254z" fill="#babebf" fill-rule="evenodd" stroke="#000000" stroke-width="2" stroke-linecap="round" stroke-linejoin="round"/><path d="M42.61686,129.49794l56.06571,-21.00286c9.37019,-3.51018 19.73956,1.20744 23.24974,10.57762l17.95492,47.92944c3.51017,9.37016 -1.20743,19.73956 -10.57762,23.24974l-56.06571,21.00286c-9.37016,3.51017 -19.73956,-1.20744 -23.24974,-10.57762l-17.95492,-47.92944c-3.51017,-9.37016 1.20744,-19.73956 10.57762,-23.24974z" fill="#ffffff" fill-rule="evenodd" stroke="#000000" stroke-width="2" stroke-linecap="round" stroke-linejoin="round"/><path d="M146.787,248.19664l-47.8,18.23356l-1.7523,-13.41011l44.35755,-16.94397z" fill="#000000" fill-rule="nonzero" stroke="#000000" stroke-width="2" stroke-linecap="round" stroke-linejoin="miter"/><path d="M72.9658,165.53145c-4.42168,-11.80337 -3.06787,-28.12877 5.01228,-31.15568c8.08016,-3.02692 19.82688,8.39086 24.24855,20.19424c4.42168,11.80337 2.781,28.23623 -5.29916,31.26315c-8.08016,3.02692 -19.54,-8.49833 -23.96168,-20.3017z" fill="#000000" fill-rule="nonzero" stroke="#000000" stroke-width="2" stroke-linecap="butt" stroke-linejoin="miter"/><path d="M69.36117,195.67169c2.00202,5.34426 -0.42789,11.19488 -5.42736,13.06774c-4.99947,1.87286 -10.6753,-0.94127 -12.67732,-6.28552c-2.00202,-5.34426 0.42789,-11.19488 5.42736,-13.06774c4.99947,-1.87286 10.6753,0.94127 12.67732,6.28552z" fill="#000000" fill-rule="nonzero" stroke="#000000" stroke-width="2" stroke-linecap="butt" stroke-linejoin="miter"/><path d="M77.27991,198.75647c2.00202,5.34426 -0.42789,11.19488 -5.42735,13.06774c-4.99947,1.87286 -10.6753,-0.94127 -12.67732,-6.28552c-2.00202,-5.34426 0.42789,-11.1949 5.42736,-13.06775c4.99947,-1.87286 10.67529,0.94128 12.67731,6.28554z" fill="#000000" fill-rule="nonzero" stroke="#000000" stroke-width="2" stroke-linecap="butt" stroke-linejoin="miter"/><path d="M139.79004,168.93228c2.00202,5.34426 -0.42789,11.19488 -5.42735,13.06774c-4.99947,1.87286 -10.6753,-0.94127 -12.67732,-6.28552c-2.00202,-5.34426 0.42789,-11.1949 5.42736,-13.06775c4.99947,-1.87286 10.67529,0.94128 12.67731,6.28554z" fill="#000000" fill-rule="nonzero" stroke="#000000" stroke-width="2" stroke-linecap="butt" stroke-linejoin="miter"/><path d="M136.4714,176.22671c2.00202,5.34426 -0.42789,11.19488 -5.42735,13.06774c-4.99948,1.87286 -10.6753,-0.94127 -12.67732,-6.28552c-2.00202,-5.34426 0.42789,-11.1949 5.42736,-13.06775c4.99947,-1.87286 10.67529,0.94128 12.67731,6.28554z" fill="#000000" fill-rule="nonzero" stroke="#000000" stroke-width="2" stroke-linecap="butt" stroke-linejoin="miter"/><path d="M53.54214,135.39012c2.00202,5.34426 -0.42789,11.19488 -5.42735,13.06774c-4.99947,1.87286 -10.6753,-0.94127 -12.67732,-6.28552c-2.00202,-5.34426 0.42789,-11.1949 5.42736,-13.06775c4.99947,-1.87286 10.67529,0.94128 12.67731,6.28554z" fill="#000000" fill-rule="nonzero" stroke="#000000" stroke-width="2" stroke-linecap="butt" stroke-linejoin="miter"/><path d="M50.3008,144.79131c2.00202,5.34426 -0.42789,11.19488 -5.42735,13.06774c-4.99947,1.87286 -10.6753,-0.94127 -12.67732,-6.28552c-2.00202,-5.34426 0.42789,-11.1949 5.42736,-13.06775c4.99947,-1.87286 10.67529,0.94128 12.67731,6.28554z" fill="#000000" fill-rule="nonzero" stroke="#000000" stroke-width="2" stroke-linecap="butt" stroke-linejoin="miter"/><path d="M115.85415,114.539c2.00202,5.34426 -0.42789,11.19488 -5.42735,13.06774c-4.99947,1.87286 -10.6753,-0.94127 -12.67732,-6.28552c-2.00202,-5.34426 0.42789,-11.1949 5.42736,-13.06775c4.99947,-1.87286 10.67529,0.94128 12.67731,6.28554z" fill="#000000" fill-rule="nonzero" stroke="#000000" stroke-width="2" stroke-linecap="butt" stroke-linejoin="miter"/><path d="M120.14403,119.33915c2.00202,5.34426 -0.42789,11.19488 -5.42735,13.06774c-4.99948,1.87286 -10.6753,-0.94127 -12.67732,-6.28552c-2.00202,-5.34426 0.42788,-11.19489 5.42736,-13.06775c4.99947,-1.87286 10.67529,0.94128 12.67731,6.28554z" fill="#000000" fill-rule="nonzero" stroke="#000000" stroke-width="2" stroke-linecap="butt" stroke-linejoin="miter"/><path d="M60.26582,210.82542c-0.48436,-1.29296 0.17115,-2.73377 1.46411,-3.21813c1.29296,-0.48436 2.73377,0.17115 3.21813,1.46411c0.48436,1.29296 -0.17115,2.73377 -1.46411,3.21813c-1.29296,0.48436 -2.73377,-0.17115 -3.21813,-1.46411z" fill="#000000" fill-rule="nonzero" stroke="none" stroke-width="0.5" stroke-linecap="butt" stroke-linejoin="miter"/><path d="M135.02613,181.39554c-0.48436,-1.29296 0.17115,-2.73377 1.46411,-3.21813c1.29296,-0.48436 2.73377,0.17115 3.21813,1.46411c0.48436,1.29296 -0.17115,2.73377 -1.46411,3.21813c-1.29296,0.48436 -2.73377,-0.17115 -3.21813,-1.46411z" fill="#000000" fill-rule="nonzero" stroke="none" stroke-width="0.5" stroke-linecap="butt" stroke-linejoin="miter"/><path d="M114.44948,115.06521c-0.48436,-1.29296 0.17115,-2.73377 1.46411,-3.21813c1.29296,-0.48436 2.73377,0.17115 3.21813,1.46411c0.48436,1.29296 -0.17115,2.73377 -1.46411,3.21813c-1.29296,0.48436 -2.73377,-0.17115 -3.21813,-1.46411z" fill="#000000" fill-rule="nonzero" stroke="none" stroke-width="0.5" stroke-linecap="butt" stroke-linejoin="miter"/><path d="M31.96565,140.98123c-0.48436,-1.29296 0.17115,-2.73377 1.46411,-3.21813c1.29296,-0.48436 2.73377,0.17115 3.21813,1.46411c0.48436,1.29296 -0.17115,2.73377 -1.46411,3.21813c-1.29296,0.48436 -2.73377,-0.17115 -3.21813,-1.46411z" fill="#000000" fill-rule="nonzero" stroke="none" stroke-width="0.5" stroke-linecap="butt" stroke-linejoin="miter"/><path d="M73.2907,113.04198c-0.96872,-2.58594 0.34228,-5.46754 2.92822,-6.43627c2.58594,-0.96872 5.46754,0.34228 6.43627,2.92822c0.96872,2.58594 -0.34228,5.46754 -2.92822,6.43627c-2.58594,0.96872 -5.46754,-0.34228 -6.43627,-2.92822z" fill="#000000" fill-rule="nonzero" stroke="none" stroke-width="0.5" stroke-linecap="butt" stroke-linejoin="miter"/><path d="M88.89818,107.19524c-0.96872,-2.58594 0.34229,-5.46755 2.92822,-6.43627c2.58593,-0.96872 5.46754,0.34228 6.43627,2.92822c0.96872,2.58594 -0.34229,5.46755 -2.92822,6.43627c-2.58593,0.96872 -5.46754,-0.34228 -6.43627,-2.92822z" fill="#000000" fill-rule="nonzero" stroke="none" stroke-width="0.5" stroke-linecap="butt" stroke-linejoin="miter"/><g fill-rule="nonzero" stroke-linejoin="miter"><path d="M196.24836,279.09554l66.52199,-93.13826" fill="none" stroke="#000000" stroke-width="2.5" stroke-linecap="round"/><g><path d="M251.29209,194.5876l41.66891,-51.41124c0,0 23.83088,23.79834 37.31239,34.72513c13.75206,11.14607 44.40444,31.50651 44.40444,31.50651l-41.66891,51.41125c0,0 -34.59996,-15.48989 -48.35202,-26.63596c-13.48151,-10.92678 -33.36481,-39.59567 -33.36481,-39.59567z" fill="#ff0000" stroke="#000000" stroke-width="2.5" stroke-linecap="butt"/><g fill="none" stroke="#ffff00" stroke-width="5"><path d="M335.08847,197.15791c-0.27351,4.20605 -1.95729,9.60571 -4.88826,12.62559c-2.7096,2.7918 -6.50748,3.33611 -10.71405,4.07138c-10.18479,1.78021 -19.81033,-4.60965 -21.49925,-14.27214c-0.03755,-0.21483 -0.07086,-0.42947 -0.09999,-0.64386" stroke-linecap="butt"/><path d="M298.92404,199.89446l-12.12151,1.71149" stroke-linecap="round"/><g stroke-linecap="butt"><path d="M304.21975,229.19584l7.09664,-32.1199l7.05071,1.5578c0,0 -0.74157,3.35635 -1.66641,7.54223c-1.07527,4.86673 -2.39829,10.85477 -3.09164,13.99291c-1.00303,4.53978 -2.33859,10.58477 -2.33859,10.58477z"/><path d="M302.89471,195.21523l3.33195,-15.08068l24.08993,5.32247l-3.33196,15.08069z"/></g></g></g></g><path d="M191.74816,138.25047c-6.19742,9.29613 -17.6189,12.56715 -25.51058,7.30603c-7.89168,-5.26112 -9.26515,-17.0621 -3.06773,-26.35824c6.19742,-9.29614 17.6189,-12.56716 25.51058,-7.30604c7.89168,5.26112 9.26515,17.06211 3.06773,26.35824z" fill="#ab856a" fill-rule="nonzero" stroke="#000000" stroke-width="2" stroke-linecap="butt" stroke-linejoin="miter"/><path d="M282.71931,110.19751c7.89168,-5.26112 19.31315,-1.9901 25.51058,7.30603c6.19742,9.29614 4.82395,21.09712 -3.06773,26.35824c-7.89168,5.26112 -19.31316,1.9901 -25.51058,-7.30603c-6.19742,-9.29613 -4.82395,-21.09712 3.06773,-26.35824z" fill="#ab856a" fill-rule="nonzero" stroke="#000000" stroke-width="2" stroke-linecap="butt" stroke-linejoin="miter"/><path d="M176.73912,334.03037v-267.22501h123.18203v267.22501z" fill-opacity="0.01" fill="#000000" fill-rule="nonzero" stroke="none" stroke-width="0" stroke-linecap="butt" stroke-linejoin="miter"/><path d="M203.75006,328.5l15.14285,-131.8421l37.78325,-0.15789l13.57389,132z" fill="#19340f" fill-rule="nonzero" stroke="#000000" stroke-width="2" stroke-linecap="butt" stroke-linejoin="miter"/><path d="M215.70028,225.11263l3.12142,-26.32765l35.83075,-0.14203l2.76735,26.1059c0,0 -7.51543,4.19603 -21.55904,4.50964c-12.48458,0.27879 -20.16049,-4.14586 -20.16049,-4.14586z" fill="#0f1e09" fill-rule="nonzero" stroke="#000000" stroke-width="0" stroke-linecap="butt" stroke-linejoin="miter"/><path d="M171.83996,157.84616c0,-33.30185 28.7599,-60.29833 64.23702,-60.29833c35.47712,0 64.23702,26.99649 64.23702,60.29833c0,33.30185 -28.7599,60.29833 -64.23702,60.29833c-35.47712,0 -64.23702,-26.99649 -64.23702,-60.29833z" fill="#ab856a" fill-rule="nonzero" stroke="#000000" stroke-width="2" stroke-linecap="butt" stroke-linejoin="miter"/><path d="M172.56302,157.9c0,-0.72799 5.20666,55.91939 63.36046,56.93429c55.56352,0.9697 63.51358,-57.95314 63.51358,-56.93429c0,32.80479 -28.40173,59.39833 -63.43702,59.39833c-35.03529,0 -63.43702,-26.59354 -63.43702,-59.39833z" fill="#a0785b" fill-rule="nonzero" stroke="#000000" stroke-width="0" stroke-linecap="butt" stroke-linejoin="miter"/><path d="M185.39019,158.27563c0,-12.968 10.51265,-23.48065 23.48065,-23.48065c12.968,0 23.48065,10.51265 23.48065,23.48065c0,12.968 -10.51265,23.48065 -23.48065,23.48065c-12.968,0 -23.48065,-10.51265 -23.48065,-23.48065z" fill="#ffffff" fill-rule="nonzero" stroke="#000000" stroke-width="2" stroke-linecap="butt" stroke-linejoin="miter"/><path d="M192.23011,161.8399c0,-9.12808 7.39976,-16.52784 16.52783,-16.52784c9.12808,0 16.52784,7.39977 16.52784,16.52784c0,9.12808 -7.39977,16.52784 -16.52784,16.52784c-9.12808,0 -16.52783,-7.39977 -16.52783,-16.52784z" fill="#000000" fill-rule="nonzero" stroke="none" stroke-width="0" stroke-linecap="butt" stroke-linejoin="miter"/><path d="M263.12926,181.75627c-12.968,0 -23.48065,-10.51265 -23.48065,-23.48065c0,-12.968 10.51265,-23.48065 23.48065,-23.48065c12.968,0 23.48065,10.51265 23.48065,23.48065c0,12.968 -10.51265,23.48065 -23.48065,23.48065z" fill="#ffffff" fill-rule="nonzero" stroke="#000000" stroke-width="2" stroke-linecap="butt" stroke-linejoin="miter"/><path d="M262.79125,179.26955c-9.12807,0 -16.52783,-7.39977 -16.52783,-16.52784c0,-9.12808 7.39977,-16.52784 16.52783,-16.52784c9.12807,0 16.52783,7.39977 16.52783,16.52784c0,9.12808 -7.39977,16.52784 -16.52783,16.52784z" fill="#000000" fill-rule="nonzero" stroke="none" stroke-width="0" stroke-linecap="butt" stroke-linejoin="miter"/><path d="M198.02788,126.46716c0,0 6.70895,-5.16922 11.79721,-6.36355c5.08827,-1.19433 12.33413,0.69937 12.33413,0.69937c0,0 -8.03812,-0.06028 -11.96762,0.86207c-4.10648,0.96389 -12.16372,4.80211 -12.16372,4.80211z" fill="#000000" fill-rule="nonzero" stroke="none" stroke-width="0" stroke-linecap="butt" stroke-linejoin="miter"/><path d="M261.96236,121.66506c-3.9295,-0.92235 -11.96762,-0.86207 -11.96762,-0.86207c0,0 7.24586,-1.8937 12.33413,-0.69937c5.08826,1.19433 11.79721,6.36355 11.79721,6.36355c0,0 -8.05724,-3.83822 -12.16372,-4.80211z" fill="#000000" fill-rule="nonzero" stroke="none" stroke-width="0" stroke-linecap="butt" stroke-linejoin="miter"/><path d="M185.30683,158.36806c0,-12.96801 10.51265,-23.48065 23.48066,-23.48065c12.96801,0 23.48065,10.51264 23.48065,23.48065c0,0 -6.95852,-14.64634 -23.43307,-14.78879c-16.22494,-0.14029 -23.52823,15.4054 -23.52823,14.78879z" fill="#ab856a" fill-rule="nonzero" stroke="#000000" stroke-width="2" stroke-linecap="butt" stroke-linejoin="miter"/><path d="M239.64862,158.26806c0,-12.96801 10.51264,-23.48065 23.48065,-23.48065c12.96801,0 23.48066,10.51264 23.48066,23.48065c0,0.60606 -7.87275,-14.38438 -22.92496,-14.781c-15.05221,-0.39662 -24.03635,14.781 -24.03635,14.781z" fill="#ab856a" fill-rule="nonzero" stroke="#000000" stroke-width="2" stroke-linecap="butt" stroke-linejoin="miter"/><path d="M235.75847,184.08506c53.3916,-0.14963 46.36273,13.86599 45.91566,14.95889c-13.14542,9.86451 -20.95777,18.19823 -44.94234,18.19823c-23.63779,0 -34.14252,-8.46772 -48.04828,-20.02794c0,0 -2.75577,-12.98953 47.07496,-13.12918z" fill="#d8c6ba" fill-rule="nonzero" stroke="none" stroke-width="0" stroke-linecap="butt" stroke-linejoin="miter"/><path d="M273.81627,194.54897c0.23453,-0.07282 0.48384,-0.11205 0.74232,-0.11205c1.38071,0 2.5,1.11929 2.5,2.5c0,0.15726 -0.01451,0.31113 -0.04229,0.46034c0.52429,-0.32228 1.06664,-0.57928 1.67043,-0.63118c1.99039,-0.17107 4.77368,-0.54617 5.88929,1.11103c1.05552,1.56794 -0.64697,3.77105 -1.45123,5.48153c-0.77331,1.64465 -2.31837,3.18698 -3.98889,4.42819c0.04168,1.47189 -1.43021,2.20784 -1.43021,2.20784l-1.68018,0.81199c-9.4003,3.0301 -21.50205,0.17465 -28.82753,-6.36334c-0.30682,-0.27384 -0.72175,-0.65427 -1.18737,-1.10215l-0.77417,-0.167c0.0685,-0.13352 0.136,-0.26433 0.20261,-0.39253c-1.44359,-1.43883 -3.12382,-3.31698 -3.63066,-4.67357c-0.54445,-1.45725 -0.55208,-3.06189 -0.82811,-4.59284c0,0 -0.39237,-2.35419 1.88985,-2.84552l1.76986,-1.06192l0.03812,0.06353c1.37634,-1.397 3.09482,-2.14037 6.52384,-1.87749c0.11311,0.00867 0.21136,0.04221 0.29811,0.09525l4.68242,-1.44074c0.24856,-0.08283 0.51449,-0.12768 0.79088,-0.12768c1.21787,0 2.23235,0.87084 2.4547,2.0238l3.71389,-0.82531c0.19068,-0.04655 0.38994,-0.07123 0.59496,-0.07123c1.26645,0 2.31295,0.9417 2.47749,2.16307c0.19617,0.27104 0.33929,0.58299 0.41415,0.9206c0.15584,0.05729 0.30439,0.12965 0.44389,0.21532c0.2634,-0.24257 0.53681,-0.44759 0.82416,-0.60106c0.11869,-0.06339 0.23836,-0.12451 0.35892,-0.18356l-0.04363,-0.06544l3.35334,-2.23555c0.40239,-0.2768 0.88986,-0.43884 1.41519,-0.43884c1.38071,0 2.5,1.11929 2.5,2.5c0,0.41989 -0.10352,0.81561 -0.28643,1.16302l-1.33022,2.66044l-0.08241,-0.0412l-0.03865,0.2561c-0.29958,0.37366 -0.61816,0.73473 -0.95337,1.08156z" fill="#000000" fill-rule="nonzero" stroke="none" stroke-width="0.5" stroke-linecap="butt" stroke-linejoin="miter"/><path d="M199.45908,194.88244c-0.33522,-0.34683 -0.65379,-0.7079 -0.95337,-1.08156l-0.03865,-0.2561l-0.08241,0.0412l-1.33021,-2.66044c-0.18291,-0.34741 -0.28643,-0.74312 -0.28643,-1.16302c0,-1.38071 1.11929,-2.5 2.5,-2.5c0.52533,0 1.0128,0.16203 1.41519,0.43884l3.35333,2.23555l-0.04362,0.06544c0.12056,0.05905 0.24024,0.12017 0.35892,0.18356c0.28736,0.15347 0.56077,0.35848 0.82416,0.60106c0.1395,-0.08567 0.28805,-0.15803 0.44389,-0.21532c0.07486,-0.33762 0.21798,-0.64956 0.41415,-0.9206c0.16454,-1.22137 1.21104,-2.16307 2.47749,-2.16307c0.20502,0 0.40428,0.02468 0.59496,0.07123l3.71389,0.82531c0.22235,-1.15295 1.23683,-2.0238 2.4547,-2.0238c0.2764,0 0.54232,0.04485 0.79088,0.12768l4.68242,1.44074c0.08676,-0.05304 0.185,-0.08658 0.29811,-0.09525c3.42902,-0.26288 5.1475,0.48049 6.52384,1.87749l0.03812,-0.06353l1.76986,1.06192c2.28222,0.49133 1.88985,2.84552 1.88985,2.84552c-0.27604,1.53095 -0.28366,3.13559 -0.82811,4.59284c-0.50684,1.35659 -2.18708,3.23475 -3.63067,4.67357c0.06661,0.1282 0.13411,0.25901 0.20261,0.39253l-0.77417,0.167c-0.46562,0.44789 -0.88055,0.82832 -1.18737,1.10216c-7.32548,6.53798 -19.42723,9.39343 -28.82753,6.36333l-1.68017,-0.81199c0,0 -1.4719,-0.73595 -1.43022,-2.20784c-1.67052,-1.24121 -3.21558,-2.78354 -3.98889,-4.42819c-0.80426,-1.71048 -2.50675,-3.91359 -1.45123,-5.48153c1.11561,-1.6572 3.8989,-1.28209 5.88929,-1.11103c0.6038,0.0519 1.14614,0.3089 1.67043,0.63118c-0.02777,-0.14921 -0.04229,-0.30307 -0.04229,-0.46033c0,-1.38071 1.11929,-2.5 2.5,-2.5c0.25848,0 0.5078,0.03922 0.74232,0.11205z" fill="#000000" fill-rule="nonzero" stroke="none" stroke-width="0.5" stroke-linecap="butt" stroke-linejoin="miter"/><path d="M249.08256,189.60974c0,4.91828 -5.80394,8.90534 -12.96347,8.90534c-7.15953,0 -12.96347,-3.98706 -12.96347,-8.90534c0,-4.91828 5.80394,-8.90534 12.96347,-8.90534c7.15953,0 12.96347,3.98705 12.96347,8.90534z" fill="#cc523a" fill-rule="nonzero" stroke="none" stroke-width="0" stroke-linecap="butt" stroke-linejoin="miter"/><path d="M-28.01796,326.3964v-72.07207h536.03604v72.07207z" fill="url(#color-2)" fill-rule="nonzero" stroke="none" stroke-width="NaN" stroke-linecap="butt" stroke-linejoin="miter"/><path d="M-31.50005,404.91034v-79h544v79z" fill="#ffffff" fill-rule="nonzero" stroke="none" stroke-width="0" stroke-linecap="butt" stroke-linejoin="miter"/><g fill-rule="nonzero" stroke="#000000" stroke-linejoin="miter"><g stroke-width="1" stroke-linecap="butt"><path d="M369.42578,260.27894c0.36291,-1.36086 1.28526,-2.0413 2.76708,-2.0413h2.72174c0.75603,0 1.28526,0.28728 1.58769,0.86188c0.33265,0.5746 0.40827,1.25501 0.2268,2.0413l-15.87676,62.32763c-0.36291,1.36086 -1.28526,2.0413 -2.76708,2.0413h-2.72174c-0.75603,0 -1.30038,-0.27217 -1.63303,-0.81651c-0.33265,-0.5746 -0.40827,-1.25501 -0.2268,-2.0413z" fill="#b100ff"/><path d="M327.2127,260.27894c0.36291,-1.36086 1.28526,-2.0413 2.76708,-2.0413h2.72174c0.75603,0 1.28527,0.28728 1.58769,0.86188c0.33265,0.5746 0.40827,1.25501 0.2268,2.0413l-6.57751,25.76571l22.31819,-27.17193c0.78629,-0.99798 1.79935,-1.49696 3.03925,-1.49696h3.90116c0.81651,0 1.34574,0.27217 1.58769,0.81651c0.27217,0.54434 0.15121,1.14916 -0.36291,1.8145l-25.35747,30.07511l9.48069,31.79888c0.5746,1.84472 0.04536,2.76711 -1.58769,2.76711h-3.44752c-0.87699,0 -1.4667,-0.15121 -1.76913,-0.45361c-0.30243,-0.33265 -0.5746,-0.95261 -0.81651,-1.85986l-8.7549,-29.34934l-7.53012,29.6215c-0.36291,1.36086 -1.28526,2.0413 -2.76708,2.0413h-2.72174c-0.75603,0 -1.30038,-0.27217 -1.63303,-0.81651c-0.33265,-0.5746 -0.40827,-1.25501 -0.2268,-2.0413z" fill="#0b00ff"/><path d="M279.68118,260.27894c0.36291,-1.33063 1.25501,-2.01104 2.67638,-2.0413h2.81244c1.2399,0 2.0413,0.96773 2.4042,2.90318l8.21056,47.04058l12.20243,-47.90246c0.36291,-1.36086 1.30038,-2.0413 2.81245,-2.0413h2.67638c0.75603,0 1.30038,0.28728 1.63303,0.86188c0.33268,0.5746 0.40824,1.25501 0.22668,2.0413l-15.87675,62.32763c-0.36291,1.36086 -1.30038,2.0413 -2.81245,2.0413h-3.31145c-0.78629,0 -1.28526,-0.3629 -1.49696,-1.08868c-0.12099,-0.45361 -0.21172,-0.83163 -0.2722,-1.13405c-0.03013,-0.30243 -0.06039,-0.51412 -0.09073,-0.63508l-8.21056,-46.85915l-12.15706,47.67566c-0.36291,1.36086 -1.28526,2.0413 -2.76708,2.0413h-2.72174c-0.75603,0 -1.30038,-0.27217 -1.63303,-0.81651c-0.33265,-0.5746 -0.40827,-1.25501 -0.2268,-2.0413z" fill="#4df6ff"/><path d="M157.86057,291.30667l5.17128,-0.27217c4.92933,-0.18144 8.34664,-2.0413 10.25186,-5.57955c1.20964,-2.23788 2.11689,-4.79326 2.72171,-7.66622c0.63508,-2.90318 0.95262,-5.3225 0.95262,-7.25795c0,-3.65922 -2.10178,-5.57955 -6.30534,-5.76099c-1.36086,-0.06048 -3.35682,-0.10584 -5.98783,-0.1361zM157.13476,264.58834c-1.02821,0 -2.01104,0 -2.94855,0c-0.90725,0 -1.54229,-0.25706 -1.9052,-0.77115c-0.36291,-0.54434 -0.45364,-1.16431 -0.2722,-1.85986l0.54434,-1.85986c0.12099,-0.54434 0.40827,-0.98284 0.86188,-1.31549c0.45364,-0.36291 0.87702,-0.54434 1.27015,-0.54434h14.56127c4.98985,0 8.77002,1.04331 11.34052,3.12998c2.60078,2.08667 3.90116,5.50393 3.90116,10.25186c0,3.508 -0.75604,7.37891 -2.26811,11.61272c-1.48184,4.23381 -3.26608,7.15211 -5.35275,8.75491c-1.02821,0.78629 -1.75398,1.33063 -2.17737,1.63303c-0.39313,0.27217 -1.36086,0.77115 -2.90318,1.49696c-1.54232,0.72578 -3.06951,1.2399 -4.58158,1.54232c-3.17535,0.63508 -6.83459,0.98284 -10.97767,1.04332l-6.57751,25.76571c-0.36291,1.36086 -1.28526,2.0413 -2.76708,2.0413h-2.67637c-0.75603,0 -1.30038,-0.27217 -1.63306,-0.81651c-0.33265,-0.5746 -0.40821,-1.25501 -0.22668,-2.0413z" fill="#ff6f00"/><path d="M196.88918,289.71898l5.80636,-0.27217c4.20356,-0.18144 7.42428,-1.99593 9.66216,-5.44346c2.14714,-3.29631 3.22072,-7.78718 3.22072,-13.47255c0,-1.6028 -0.54434,-2.94855 -1.63306,-4.03723c-1.05843,-1.08868 -2.54027,-1.64817 -4.44547,-1.67839c-1.90523,-0.03026 -3.97678,-0.06048 -6.21463,-0.09073zM195.70971,264.67905c-0.96773,0 -1.90519,0 -2.81244,0c-0.90725,0 -1.54232,-0.25706 -1.90523,-0.77115c-0.36291,-0.54434 -0.45364,-1.16431 -0.2722,-1.85986l0.45364,-1.95056c0.12099,-0.54434 0.40827,-0.98284 0.86188,-1.31549c0.45361,-0.36291 0.87699,-0.54434 1.27012,-0.54434h15.78605c4.26403,0 7.68133,1.07357 10.25186,3.22072c2.5705,2.11689 3.85576,5.26202 3.85576,9.43535c0,4.17333 -0.8014,8.08958 -2.40417,11.74879c-1.57255,3.65922 -3.31145,6.27511 -5.21665,7.84766c-1.87497,1.54232 -3.31145,2.57053 -4.3094,3.08462c-0.99798,0.48386 -2.08667,0.92236 -3.26608,1.31549l4.26403,27.4441c0.33265,2.11689 -0.34779,3.17535 -2.0413,3.17535h-3.17535c-0.81651,0 -1.40622,-0.24191 -1.76913,-0.72578c-0.33265,-0.48386 -0.57457,-1.33063 -0.72578,-2.54027l-3.49289,-26.21935l-5.80636,0.09073l-6.98578,27.3534c-0.36291,1.36086 -1.28526,2.0413 -2.76711,2.0413h-2.67634c-0.75607,0 -1.30041,-0.27217 -1.63306,-0.81651c-0.33265,-0.5746 -0.40821,-1.25501 -0.22668,-2.0413z" fill="#ffe900"/><path d="M131.0727,257.23966c4.02212,0 6.86479,1.64817 8.52807,4.94448c1.66328,3.29631 2.49494,8.0291 2.49494,14.19836c0,1.54232 -0.51412,2.46468 -1.54232,2.76708l-3.26608,1.04331c-0.51409,0.15121 -1.01309,0.06048 -1.49696,-0.27217c-0.48386,-0.33265 -0.72578,-0.89214 -0.72578,-1.67839c0,-8.19542 -1.33063,-12.91309 -3.99187,-14.15299c-1.2399,-0.63508 -2.72174,-0.52923 -4.4455,0.31754c-1.72376,0.81651 -3.47778,2.81244 -5.26202,5.98779c-1.78424,3.14513 -2.73685,6.74383 -2.85781,10.79621c-0.06048,1.63303 0.21169,2.88807 0.81651,3.76506c0.60482,0.84677 1.78424,1.57255 3.53826,2.1774l3.81043,1.31549c3.65922,1.2399 6.06342,2.75197 7.21258,4.53621c1.02821,1.63303 1.54232,4.27918 1.54232,7.93839c0,3.62896 -0.98284,7.53012 -2.94855,11.70345c-1.93545,4.17333 -4.56646,7.62086 -7.89303,10.34257c-3.32657,2.69149 -6.80434,4.03723 -10.4333,4.03723c-7.31843,0 -10.97764,-5.94246 -10.97764,-17.82735v-0.31754c0,-2.35884 0.46875,-3.65921 1.40622,-3.90116l3.44752,-1.08869c0.60482,-0.24192 1.10382,-0.19655 1.49696,0.1361c0.42338,0.33265 0.63508,0.87699 0.63508,1.63303c0,4.86889 0.28728,8.54322 0.86188,11.02301c0.5746,2.44957 1.52718,4.00701 2.85781,4.67231c0.93747,0.21169 2.14714,0 3.62896,-0.63508c2.51005,-1.11894 4.76304,-3.43241 6.75897,-6.94041c2.44954,-4.23381 3.62896,-9.02707 3.53826,-14.3798c-0.03035,-1.63303 -0.9376,-2.93343 -2.72174,-3.90116c-0.90725,-0.45361 -2.19248,-0.93747 -3.85576,-1.45159l-3.90116,-1.22479c-1.75402,-0.51412 -3.26608,-1.49696 -4.5362,-2.94855c-1.27015,-1.45159 -1.90523,-3.4173 -1.90523,-5.89709c0,-2.47979 0.49897,-5.29225 1.49696,-8.43737c1.02821,-3.17535 2.38909,-6.1239 4.0826,-8.84564c1.72376,-2.72174 3.87091,-4.97473 6.44144,-6.75897c2.60075,-1.78424 5.32249,-2.67638 8.16519,-2.67638z" fill="#ff0000"/><path d="M227.04594,322.83335c-4.32452,-4.59672 -5.06544,-12.33853 -2.22274,-23.22544l10.02503,-39.32903c0.36291,-1.36086 1.30038,-2.0413 2.81248,-2.0413h2.67634c0.75607,0 1.30041,0.28729 1.63306,0.86188c0.33265,0.5746 0.40821,1.25501 0.22668,2.0413l-10.47866,41.41566c-2.99388,11.70345 -0.8921,17.55518 6.30534,17.55518c2.99392,0 5.62492,-1.22479 7.89303,-3.67433c2.2681,-2.47979 4.18844,-6.75897 5.76099,-12.8375l11.06838,-43.32089c0.36291,-1.36086 1.28526,-2.0413 2.76711,-2.0413h2.31347c0.75603,0 1.28526,0.28729 1.58766,0.86188c0.30243,0.5746 0.36291,1.25501 0.18147,2.0413l-10.84157,43.09409c-2.35884,9.61678 -6.19949,16.01285 -11.52198,19.1882c-3.05439,1.81449 -6.65313,2.72174 -10.79621,2.72174c-4.11285,0 -7.24284,-1.10382 -9.38998,-3.31145z" fill="#00ff15"/></g><path d="M368.15273,331.63778h-271.5" fill="none" stroke-width="4" stroke-linecap="round"/><path d="M163.65274,338.63779h140" fill="none" stroke-width="2" stroke-linecap="round"/></g><text transform="translate(360.2155,347.9697) scale(0.85466,0.85466)" font-size="40" xml:space="preserve" fill="#ff00cb" fill-rule="nonzero" stroke="none" stroke-width="1" stroke-linecap="butt" stroke-linejoin="miter" font-family="Sans Serif" font-weight="normal" text-anchor="start"><tspan x="0" dy="0">+ Berty</tspan></text></g></g></svg>