<svg version="1.1" xmlns="http://www.w3.org/2000/svg" xmlns:xlink="http://www.w3.org/1999/xlink" width="178.97783" height="267.22501" viewBox="0,0,178.97783,267.22501"><g transform="translate(-152.14353,-45.80536)"><g stroke-miterlimit="10"><path d="M189.48612,107.58758c-6.939,9.29613 -19.72718,12.56715 -28.56317,7.30603c-8.83599,-5.26112 -10.37381,-17.0621 -3.43481,-26.35824c6.939,-9.29614 19.72717,-12.56716 28.56317,-7.30604c8.83599,5.26112 10.37382,17.06211 3.43482,26.35824z" fill="#87888c" stroke="#000000" stroke-width="2"/><path d="M296.82283,82.43349c8.94092,-5.26112 21.88093,-1.9901 28.90234,7.30603c7.0214,9.29614 5.46532,21.09712 -3.4756,26.35824c-8.94092,5.26112 -21.88094,1.9901 -28.90234,-7.30603c-7.0214,-9.29613 -5.46532,-21.09712 3.4756,-26.35824z" fill="#87888c" stroke="#000000" stroke-width="2"/><path d="M180.73912,313.03037v-267.22501h123.18203v267.22501z" fill-opacity="0.01" fill="#000000" stroke="none" stroke-width="0"/><path d="M207.75006,307.5l15.14285,-131.8421l37.78325,-0.15789l13.57389,132z" fill="#7a7d5f" stroke="#000000" stroke-width="2"/><path d="M220.66656,203.62949l3.12142,-26.32765l35.83075,-0.14203l2.76735,26.1059c0,0 -7.51543,4.19603 -21.55904,4.50964c-12.48458,0.27879 -20.16049,-4.14586 -20.16049,-4.14586z" fill="#60624b" stroke="#000000" stroke-width="0"/><path d="M175.83996,136.84616c0,-33.30185 28.7599,-60.29833 64.23702,-60.29833c35.47712,0 64.23702,26.99649 64.23702,60.29833c0,33.30185 -28.7599,60.29833 -64.23702,60.29833c-35.47712,0 -64.23702,-26.99649 -64.23702,-60.29833z" fill="#87888c" stroke="#000000" stroke-width="2"/><path d="M176.56302,136.9c0,-0.72799 5.20666,55.91939 63.36046,56.93429c55.56352,0.9697 63.51358,-57.95314 63.51358,-56.93429c0,32.80479 -28.40173,59.39833 -63.43702,59.39833c-35.03529,0 -63.43702,-26.59354 -63.43702,-59.39833z" fill="#535457" stroke="#000000" stroke-width="0"/><path d="M267.12926,160.75627c-9.23233,0 -16.71662,-10.51265 -16.71662,-23.48065c0,-12.968 7.48429,-23.48065 16.71662,-23.48065c9.23233,0 16.71662,10.51265 16.71662,23.48065c0,12.968 -7.48429,23.48065 -16.71662,23.48065z" fill="#000000" stroke="#000000" stroke-width="2"/><path d="M214.63504,161.40797c-9.23233,0 -16.71662,-10.51265 -16.71662,-23.48065c0,-12.968 7.48429,-23.48065 16.71662,-23.48065c9.23233,0 16.71663,10.51265 16.71663,23.48065c0,12.968 -7.48429,23.48065 -16.71663,23.48065z" fill="#000000" stroke="#000000" stroke-width="2"/><path d="M241.10134,178.48659c-7.47934,0 -13.54254,-5.53749 -13.54254,-12.36832c0,-6.83083 6.06321,-12.36832 13.54254,-12.36832c7.47934,0 13.54254,5.53749 13.54254,12.36832c0,6.83083 -6.06321,12.36832 -13.54254,12.36832z" fill="#ff00ff" stroke="#000000" stroke-width="2"/></g></g></svg>