<svg version="1.1" xmlns="http://www.w3.org/2000/svg" xmlns:xlink="http://www.w3.org/1999/xlink" width="84.31513" height="30.05294" viewBox="0,0,84.31513,30.05294"><g transform="translate(-197.84243,-164.97353)"><g data-paper-data="{&quot;isPaintingLayer&quot;:true}" stroke-miterlimit="10" stroke-dasharray="" stroke-dashoffset="0" style="mix-blend-mode: normal"><path d="M282.15756,179.99999c0,8.32468 -6.70181,15.02648 -15.02647,15.02648h-54.2622c-8.32466,0 -15.02646,-6.70181 -15.02646,-15.02648c0,-8.32466 6.70179,-15.02646 15.02646,-15.02646h54.2622c8.32466,0 15.02647,6.70179 15.02647,15.02646z" fill="#4b4b4b" fill-rule="evenodd" stroke="none" stroke-width="0.314" stroke-linecap="round" stroke-linejoin="round"/><g fill-rule="nonzero" stroke-linecap="butt" stroke-linejoin="miter"><path d="M230.25,190.9375v-11.375h19.5v11.375z" fill="#666666" stroke="none" stroke-width="0"/><path d="M248.75,179.5c0,-5.76447 -3.94549,-10.4375 -8.8125,-10.4375c-4.86701,0 -8.8125,4.67303 -8.8125,10.4375c0,5.76447 3.94549,10.4375 8.8125,10.4375c4.86701,0 8.8125,-4.67303 8.8125,-10.4375z" fill="none" stroke="#666666" stroke-width="2"/></g></g></g></svg>