<svg version="1.1" xmlns="http://www.w3.org/2000/svg" xmlns:xlink="http://www.w3.org/1999/xlink" width="154.8206" height="232.29399" viewBox="0,0,154.8206,232.29399"><g transform="translate(-162.28957,-75.54783)"><g stroke-miterlimit="10"><path d="M195.74817,117.25047c-6.19742,9.29613 -17.6189,12.56715 -25.51058,7.30603c-7.89168,-5.26112 -9.26515,-17.0621 -3.06773,-26.35824c6.19742,-9.29614 17.6189,-12.56716 25.51058,-7.30604c7.89168,5.26112 9.26515,17.06211 3.06773,26.35824z" fill="#972130" stroke="#000000" stroke-width="2"/><path d="M286.71931,89.19751c7.89168,-5.26112 19.31315,-1.9901 25.51058,7.30603c6.19742,9.29614 4.82395,21.09712 -3.06773,26.35824c-7.89168,5.26112 -19.31316,1.9901 -25.51058,-7.30603c-6.19742,-9.29613 -4.82395,-21.09712 3.06773,-26.35824z" fill="#972130" stroke="#000000" stroke-width="2"/><path d="M208.40825,306.84181l15.14285,-131.8421l37.78325,-0.15789l13.57389,132z" fill="#7c0b22" stroke="#000000" stroke-width="2"/><path d="M221.01666,204.11263l3.12142,-26.32765l35.83075,-0.14203l2.76735,26.1059c0,0 -7.51543,4.19603 -21.55904,4.50964c-12.48458,0.27879 -20.16049,-4.14586 -20.16049,-4.14586z" fill="#6d0a1e" stroke="#000000" stroke-width="0"/><path d="M175.83996,136.84616c0,-33.30185 28.7599,-60.29833 64.23702,-60.29833c35.47712,0 64.23702,26.99649 64.23702,60.29833c0,33.30185 -28.7599,60.29833 -64.23702,60.29833c-35.47712,0 -64.23702,-26.99649 -64.23702,-60.29833z" fill="#972130" stroke="#000000" stroke-width="2"/><path d="M189.39019,137.27563c0,-12.968 10.51265,-23.48065 23.48065,-23.48065c12.968,0 23.48065,10.51265 23.48065,23.48065c0,12.968 -10.51265,23.48065 -23.48065,23.48065c-12.968,0 -23.48065,-10.51265 -23.48065,-23.48065z" fill="#6d0a1e" stroke="#000000" stroke-width="2"/><path d="M201.06059,142.11856c0,-7.32339 5.93677,-13.26016 13.26015,-13.26016c7.32339,0 13.26016,5.93678 13.26016,13.26016c0,7.32339 -5.93678,13.26016 -13.26016,13.26016c-7.32339,0 -13.26015,-5.93678 -13.26015,-13.26016z" fill="#b62f41" stroke="none" stroke-width="0"/><path d="M267.12926,160.75627c-12.968,0 -23.48065,-10.51265 -23.48065,-23.48065c0,-12.968 10.51265,-23.48065 23.48065,-23.48065c12.968,0 23.48065,10.51265 23.48065,23.48065c0,12.968 -10.51265,23.48065 -23.48065,23.48065z" fill="#6d0a1e" stroke="#000000" stroke-width="2"/><path d="M253.08256,168.60974c0,4.91828 -5.80394,8.90534 -12.96347,8.90534c-7.15953,0 -12.96347,-3.98706 -12.96347,-8.90534c0,-4.91828 5.80394,-8.90534 12.96347,-8.90534c7.15953,0 12.96347,3.98705 12.96347,8.90534z" fill="#b62f41" stroke="none" stroke-width="0"/><path d="M252.37637,143.42466c0,-7.32339 5.93678,-13.26016 13.26015,-13.26016c7.32339,0 13.26016,5.93679 13.26016,13.26017c0,7.32339 -5.93678,13.26016 -13.26016,13.26016c-7.32339,0 -13.26015,-5.93678 -13.26015,-13.26016z" fill="#b62f41" stroke="none" stroke-width="0"/></g></g></svg>