<svg version="1.1" xmlns="http://www.w3.org/2000/svg" xmlns:xlink="http://www.w3.org/1999/xlink" width="680.18017" height="258.82661" viewBox="0,0,680.18017,258.82661"><defs><linearGradient x1="242.46163" y1="54.27886" x2="242.46163" y2="240.51043" gradientUnits="userSpaceOnUse" id="color-1"><stop offset="0" stop-color="#00eaff"/><stop offset="1" stop-color="#000000"/></linearGradient><linearGradient x1="114.00515" y1="157.48385" x2="114.00515" y2="279.23256" gradientUnits="userSpaceOnUse" id="color-2"><stop offset="0" stop-color="#00800b"/><stop offset="1" stop-color="#000000"/></linearGradient><linearGradient x1="375.50515" y1="165.48385" x2="375.50515" y2="287.10547" gradientUnits="userSpaceOnUse" id="color-3"><stop offset="0" stop-color="#00b30f"/><stop offset="1" stop-color="#000000"/></linearGradient><linearGradient x1="54.10576" y1="191.48385" x2="54.10576" y2="313.10547" gradientUnits="userSpaceOnUse" id="color-4"><stop offset="0" stop-color="#00e613"/><stop offset="1" stop-color="#000000"/></linearGradient><linearGradient x1="453.50515" y1="191.48385" x2="453.50515" y2="313.10547" gradientUnits="userSpaceOnUse" id="color-5"><stop offset="0" stop-color="#00e613"/><stop offset="1" stop-color="#000000"/></linearGradient><linearGradient x1="240.29194" y1="191.48384" x2="240.29194" y2="313.10547" gradientUnits="userSpaceOnUse" id="color-6"><stop offset="0" stop-color="#00ff15"/><stop offset="1" stop-color="#000000"/></linearGradient></defs><g transform="translate(86.28464,-54.27886)"><g data-paper-data="{&quot;isPaintingLayer&quot;:true}" fill-rule="nonzero" stroke="none" stroke-linejoin="miter" stroke-miterlimit="10" stroke-dasharray="" stroke-dashoffset="0" style="mix-blend-mode: normal"><path d="M494.46163,54.27886v186.23157h-504v-186.23157z" data-paper-data="{&quot;index&quot;:null}" fill="url(#color-1)" stroke-width="NaN" stroke-linecap="butt"/><path d="M261.89554,249.29467c0,33.58488 -66.21279,29.81081 -147.89039,29.81081c-81.6776,0 -147.89039,3.77407 -147.89039,-29.81081c0,-33.58488 66.21279,-91.81081 147.89039,-91.81081c81.67761,0 147.89039,58.22593 147.89039,91.81081z" fill="url(#color-2)" stroke-width="0" stroke-linecap="butt"/><path d="M515.89554,249.29467c0,33.58488 -62.85492,37.81081 -140.39039,37.81081c-77.53547,0 -140.39039,-4.22593 -140.39039,-37.81081c0,-33.58488 62.85492,-83.81081 140.39039,-83.81081c77.53547,0 140.39039,50.22593 140.39039,83.81081z" fill="url(#color-3)" stroke-width="0" stroke-linecap="butt"/><path d="M194.49615,252.29467c0,33.58488 -62.85492,60.81081 -140.39039,60.81081c-77.53547,0 -140.39039,-27.22593 -140.39039,-60.81081c0,-33.58488 62.85492,-60.81081 140.39039,-60.81081c77.53547,0 140.39039,27.22593 140.39039,60.81081z" fill="url(#color-4)" stroke-width="0" stroke-linecap="butt"/><path d="M593.89554,252.29467c0,33.58488 -62.85492,60.81081 -140.39039,60.81081c-77.53547,0 -140.39039,-27.22593 -140.39039,-60.81081c0,-33.58488 62.85492,-60.81081 140.39039,-60.81081c77.53547,0 140.39039,27.22593 140.39039,60.81081z" fill="url(#color-5)" stroke-width="0" stroke-linecap="butt"/><path d="M380.68233,252.29466c0,33.58489 -62.85492,60.81082 -140.39039,60.81082c-77.53547,0 -140.39039,-27.22593 -140.39039,-60.81082c0,-33.58488 62.85492,-60.81081 140.39039,-60.81081c77.53547,0 140.39039,27.22593 140.39039,60.81081z" fill="url(#color-6)" stroke-width="0" stroke-linecap="butt"/><path d="M116.62372,157.46169c0,0 -12.00014,-25.93113 -9.34283,-39.21771c3.04936,-15.24678 26.62521,-47.19419 26.62521,-47.19419c0,0 -14.00423,30.35788 -12.38883,46.02728c1.58444,15.36907 24.39048,42.78495 24.39048,42.78495z" fill="#000000" stroke-width="0" stroke-linecap="round"/><path d="M230.59874,188.38526c0,0 20.23475,-35.40469 20.42127,-36.33731c1.47586,-7.37932 -20.38704,-27.80982 -22.53456,-46.43413c-2.28958,-19.8563 25.63652,-47.80655 25.63652,-47.80655c0,0 -12.12365,22.71007 -6.71883,43.17998c5.51056,20.8704 28.55931,39.58285 29.37484,47.49345c1.58444,15.36907 -16.89521,42.30489 -16.89521,42.30489z" fill="#000000" stroke-width="0" stroke-linecap="round"/><path d="M412.26307,193.86533c0,0 -12.00014,-29.77166 -9.34283,-43.05824c0.3103,-1.5515 -36.37247,-2.59897 -62.77737,-18.95963c-32.0037,-19.82972 -6.27654,-59.94578 -5.03632,-62.44954c0.93991,-1.8975 -6.17705,30.14478 11.21824,47.00621c16.39469,15.89153 46.62966,17.54209 52.66132,18.35473c16.59132,2.23533 30.07927,-49.38848 30.07927,-49.38848c0,0 11.04467,18.68053 7.50572,35.93523c-2.4029,11.7157 -20.06775,21.99782 -19.41448,28.33456c1.58444,15.36907 24.39047,42.78496 24.39047,42.78496z" fill="#000000" stroke-width="0" stroke-linecap="round"/><path d="M6.40786,192.70586c0,0 -12.00014,-25.93113 -9.34282,-39.21771c3.04936,-15.24678 19.42421,-90.40015 19.42421,-90.40015c0,0 -6.80323,73.56384 -5.18783,89.23323c1.58444,15.36907 24.39047,42.78496 24.39047,42.78496z" fill="#000000" stroke-width="0" stroke-linecap="round"/></g></g></svg>