<svg version="1.1" xmlns="http://www.w3.org/2000/svg" xmlns:xlink="http://www.w3.org/1999/xlink" width="130.52923" height="293.02004" viewBox="0,0,130.52923,293.02004"><defs><linearGradient x1="239.66316" y1="74.37299" x2="239.66316" y2="156.29522" gradientUnits="userSpaceOnUse" id="color-1"><stop offset="0" stop-color="#008545"/><stop offset="1" stop-color="#466700"/></linearGradient></defs><g transform="translate(-175.04462,-18.49232)"><g stroke-miterlimit="10"><path d="M179.5436,311.51236v-267.22501h123.18203v267.22501z" fill-opacity="0.01" fill="#000000" stroke="none" stroke-width="0" stroke-linecap="butt"/><path d="M207.0099,305.39984l15.14285,-131.8421l37.78325,-0.15789l13.57389,132z" fill="#0076ff" stroke="#000000" stroke-width="2" stroke-linecap="butt"/><path d="M219.96013,202.01247l3.12142,-26.32765l35.83075,-0.14203l2.76735,26.1059c0,0 -7.51543,4.19603 -21.55904,4.50964c-12.48458,0.27879 -20.16049,-4.14586 -20.16049,-4.14586z" fill="#005ac1" stroke="#000000" stroke-width="0" stroke-linecap="butt"/><path d="M176.09981,134.746c0,-33.30185 28.7599,-60.29833 64.23702,-60.29833c35.47712,0 64.23702,26.99649 64.23702,60.29833c0,33.30185 -28.7599,60.29833 -64.23702,60.29833c-35.47712,0 -64.23702,-26.99649 -64.23702,-60.29833z" fill="#f97800" stroke="#000000" stroke-width="2" stroke-linecap="butt"/><path d="M176.82288,134.79984c0,-0.72799 5.20666,55.91939 63.36046,56.93429c55.56352,0.9697 63.51358,-57.95314 63.51358,-56.93429c0,32.80479 -28.40173,59.39833 -63.43702,59.39833c-35.03529,0 -63.43702,-26.59354 -63.43702,-59.39833z" fill="#9f4d00" stroke="#000000" stroke-width="0" stroke-linecap="butt"/><path d="M189.65003,135.17547c0,-12.968 10.51265,-23.48065 23.48065,-23.48065c12.968,0 23.48065,10.51265 23.48065,23.48065c0,12.968 -10.51265,23.48065 -23.48065,23.48065c-12.968,0 -23.48065,-10.51265 -23.48065,-23.48065z" fill="#ffffff" stroke="#000000" stroke-width="2" stroke-linecap="butt"/><path d="M196.71541,134.89984c0,-9.12808 7.39976,-16.52784 16.52783,-16.52784c9.12808,0 16.52784,7.39977 16.52784,16.52784c0,9.12808 -7.39977,16.52784 -16.52784,16.52784c-9.12808,0 -16.52783,-7.39977 -16.52783,-16.52784z" fill="#000000" stroke="none" stroke-width="0" stroke-linecap="butt"/><path d="M252.87649,174.55627h-25.10959" fill="none" stroke="#000000" stroke-width="2" stroke-linecap="round"/><path d="M267.38911,158.65611c-12.968,0 -23.48065,-10.51265 -23.48065,-23.48065c0,-12.968 10.51265,-23.48065 23.48065,-23.48065c12.968,0 23.48065,10.51265 23.48065,23.48065c0,12.968 -10.51265,23.48065 -23.48065,23.48065z" fill="#ffffff" stroke="#000000" stroke-width="2" stroke-linecap="butt"/><path d="M267.27654,151.42768c-9.12807,0 -16.52783,-7.39977 -16.52783,-16.52784c0,-9.12808 7.39977,-16.52784 16.52783,-16.52784c9.12807,0 16.52783,7.39977 16.52783,16.52784c0,9.12808 -7.39977,16.52784 -16.52783,16.52784z" fill="#000000" stroke="none" stroke-width="0" stroke-linecap="butt"/><path d="M189.65003,135.17547c0,-12.968 10.51265,-23.48065 23.48065,-23.48065c12.968,0 23.48065,10.51265 23.48065,23.48065c0,0 -46.96131,1.23155 -46.96131,0z" fill="#f97800" stroke="#000000" stroke-width="2" stroke-linecap="butt"/><path d="M243.90847,135.17547c0,-12.968 10.51265,-23.48065 23.48065,-23.48065c12.968,0 23.48065,10.51265 23.48065,23.48065c0,1.2138 -46.96131,0 -46.96131,0z" fill="#f97800" stroke="#000000" stroke-width="2" stroke-linecap="butt"/><path d="M202.2877,106.367c0,0 6.70895,-5.16922 11.79721,-6.36355c5.08827,-1.19433 12.33413,0.69937 12.33413,0.69937c0,0 -8.03812,-0.06028 -11.96762,0.86207c-4.10648,0.96389 -12.16372,4.80211 -12.16372,4.80211z" fill="#000000" stroke="none" stroke-width="0" stroke-linecap="butt"/><path d="M266.22221,101.5649c-3.9295,-0.92235 -11.96762,-0.86207 -11.96762,-0.86207c0,0 7.24586,-1.8937 12.33413,-0.69937c5.08826,1.19433 11.79721,6.36355 11.79721,6.36355c0,0 -8.05724,-3.83822 -12.16372,-4.80211z" fill="#000000" stroke="none" stroke-width="0" stroke-linecap="butt"/><path d="M189.94679,96.47858c13.23597,-14.55274 34.04693,-22.10559 51.29759,-22.10559c15.19478,0 33.36027,6.07232 44.99208,17.69782c11.81979,11.81337 16.98943,29.30894 17.6637,45.41184c-1.918,-0.73978 -1.75547,20.9446 -6.40851,18.64114c-2.79048,-1.38141 -5.17417,-18.51118 -7.14555,-24.50013c-2.22852,-6.77012 -10.75851,-5.58938 -11.92525,-5.76992c-2.57849,-0.39899 -9.25723,7.77285 -11.88903,7.74288c-4.99117,-0.05684 -11.74661,-16.48183 -16.63924,-16.46754c-4.72544,0.01381 -15.64188,-5.96648 -21.95352,-1.10862c-5.26443,4.05187 -3.62987,21.0672 -8.3444,21.25721c-4.80176,0.19352 -9.80374,-21.03106 -13.55931,-19.17368c-8.82864,4.36633 -10.4308,26.98535 -19.71744,29.14053c-0.61382,0.14245 -1.90866,-19.8741 -4.68991,-19.27027c-2.14889,0.46653 -3.26258,14.90485 -5.58338,15.46859c-0.00591,-0.26454 -1.83113,-11.10273 0.81743,-22.58045c2.15214,-9.32644 8.18611,-18.99783 13.08475,-24.38381z" fill="url(#color-1)" stroke="#000000" stroke-width="2" stroke-linecap="butt"/><g stroke="#000000" stroke-width="2" stroke-linecap="round"><path d="M265.50113,96.89497c0,0 7.12302,-18.23234 9.23381,-28.265c2.3266,-11.05847 4.14149,-35.30846 4.14149,-35.30846c0,0 8.4318,18.83739 9.47955,30.25292c1.11745,12.17488 -2.97046,40.66512 -2.97046,40.66512z" fill="#f97800"/><path d="M265.8326,96.55638l-13.11834,0.95409c0,0 9.59964,-21.8077 13.81,-33.13427c4.21821,-11.34767 11.47575,-34.88856 11.47575,-34.88856c0,0 -0.40639,25.83133 -2.49549,37.34676c-1.95824,10.79413 -9.67193,29.72198 -9.67193,29.72198z" fill="#fab575"/></g><g stroke="none" stroke-width="0.5" stroke-linecap="butt"><path d="M182.51218,122.32017c0.005,-0.07012 0.01089,-0.13948 0.01763,-0.20805c-0.64208,-0.72636 -1.03023,-2.25821 -0.9149,-3.87465c0.13751,-1.92741 0.94183,-3.28807 1.8385,-3.18197c-0.01944,-0.33343 -0.01798,-0.67801 0.00688,-1.02652c0.14609,-2.04761 1.04474,-3.45558 2.0072,-3.14478c0.96246,0.3108 1.62426,2.22267 1.47817,4.27028c-0.02566,0.35963 -0.07453,0.69954 -0.14289,1.01387c0.80925,0.55247 1.33363,2.28739 1.20199,4.13255c-0.14609,2.04761 -1.04474,3.45558 -2.0072,3.14478c-0.14609,2.04761 -1.04474,3.45559 -2.0072,3.14478c-0.96246,-0.3108 -1.62426,-2.22267 -1.47817,-4.27028z" fill="#b900e9"/><path d="M183.10759,118.97236c0.14609,-2.04761 1.04474,-3.45558 2.0072,-3.14478c0.96246,0.3108 1.62426,2.22267 1.47817,4.27029c-0.14609,2.04761 -1.04474,3.45558 -2.0072,3.14478c-0.96246,-0.3108 -1.62426,-2.22267 -1.47817,-4.27029z" fill="#e8c100"/></g><g stroke="none" stroke-width="0.5" stroke-linecap="butt"><path d="M212.54661,129.82017c0.01064,-0.07011 0.02316,-0.13948 0.0375,-0.20804c-1.36602,-0.72636 -2.19179,-2.25821 -1.94644,-3.87466c0.29255,-1.92741 2.00371,-3.28807 3.91137,-3.18197c-0.04137,-0.33343 -0.03825,-0.67801 0.01465,-1.02652c0.3108,-2.04761 2.22267,-3.45558 4.27029,-3.14478c2.04762,0.3108 3.45559,2.22267 3.14479,4.27028c-0.05459,0.35963 -0.15857,0.69954 -0.304,1.01387c1.72166,0.55247 2.83728,2.28739 2.55721,4.13255c-0.3108,2.04762 -2.22267,3.45558 -4.27029,3.14478c-0.3108,2.04762 -2.22267,3.45559 -4.27029,3.14479c-2.04762,-0.3108 -3.45559,-2.22267 -3.14479,-4.27029z" fill="#b900e9"/><path d="M213.81336,126.47236c0.3108,-2.04761 2.22267,-3.45559 4.27028,-3.14479c2.04762,0.3108 3.45559,2.22267 3.14479,4.27029c-0.3108,2.04762 -2.22267,3.45559 -4.27029,3.14479c-2.04762,-0.3108 -3.45558,-2.22267 -3.14478,-4.27029z" fill="#e8c100"/></g><g stroke="none" stroke-width="0.5" stroke-linecap="butt"><path d="M195.79661,115.07017c0.01064,-0.07012 0.02316,-0.13948 0.0375,-0.20805c-1.36602,-0.72636 -2.19179,-2.25821 -1.94644,-3.87465c0.29255,-1.92741 2.00371,-3.28807 3.91137,-3.18197c-0.04137,-0.33343 -0.03825,-0.67801 0.01465,-1.02652c0.3108,-2.04761 2.22267,-3.45558 4.27029,-3.14478c2.04762,0.3108 3.45559,2.22267 3.14479,4.27028c-0.05459,0.35963 -0.15857,0.69954 -0.304,1.01387c1.72166,0.55247 2.83728,2.28739 2.55721,4.13255c-0.3108,2.04761 -2.22267,3.45558 -4.27029,3.14478c-0.3108,2.04761 -2.22267,3.45558 -4.27029,3.14478c-2.04762,-0.3108 -3.45559,-2.22267 -3.14479,-4.27028z" fill="#b900e9"/><path d="M197.06336,111.72236c0.3108,-2.04761 2.22267,-3.45558 4.27028,-3.14478c2.04762,0.3108 3.45559,2.22267 3.14479,4.27029c-0.3108,2.04761 -2.22267,3.45558 -4.27029,3.14478c-2.04762,-0.3108 -3.45558,-2.22267 -3.14478,-4.27029z" fill="#e8c100"/></g><g stroke="none" stroke-width="0.5" stroke-linecap="butt"><path d="M228.04661,110.32017c0.01064,-0.07012 0.02316,-0.13948 0.0375,-0.20805c-1.36602,-0.72636 -2.19179,-2.25821 -1.94644,-3.87465c0.29255,-1.92741 2.00371,-3.28807 3.91137,-3.18197c-0.04137,-0.33343 -0.03825,-0.67801 0.01465,-1.02652c0.3108,-2.04761 2.22267,-3.45558 4.27029,-3.14478c2.04762,0.3108 3.45559,2.22267 3.14479,4.27028c-0.05459,0.35963 -0.15857,0.69954 -0.304,1.01387c1.72166,0.55247 2.83728,2.28739 2.55721,4.13255c-0.3108,2.04761 -2.22267,3.45558 -4.27029,3.14478c-0.3108,2.04761 -2.22267,3.45558 -4.27029,3.14478c-2.04762,-0.3108 -3.45559,-2.22267 -3.14479,-4.27028z" fill="#b900e9"/><path d="M229.31336,106.97236c0.3108,-2.04761 2.22267,-3.45558 4.27028,-3.14478c2.04762,0.3108 3.45559,2.22267 3.14479,4.27029c-0.3108,2.04761 -2.22267,3.45558 -4.27029,3.14478c-2.04762,-0.3108 -3.45558,-2.22267 -3.14478,-4.27029z" fill="#e8c100"/></g><g stroke="none" stroke-width="0.5" stroke-linecap="butt"><path d="M222.79661,93.75408c0.01064,-0.04681 0.02316,-0.0931 0.0375,-0.13888c-1.36602,-0.48489 -2.19179,-1.50749 -1.94644,-2.58656c0.29255,-1.28666 2.00371,-2.19498 3.91137,-2.12415c-0.04137,-0.22258 -0.03825,-0.45261 0.01465,-0.68527c0.3108,-1.3669 2.22267,-2.3068 4.27029,-2.09932c2.04762,0.20748 3.45559,1.48376 3.14479,2.85066c-0.05459,0.24008 -0.15857,0.46698 -0.304,0.67681c1.72166,0.3688 2.83728,1.52697 2.55721,2.75872c-0.3108,1.3669 -2.22267,2.3068 -4.27029,2.09933c-0.3108,1.3669 -2.22267,2.3068 -4.27029,2.09932c-2.04762,-0.20748 -3.45559,-1.48376 -3.14479,-2.85066z" fill="#b900e9"/><path d="M224.06336,91.51922c0.3108,-1.3669 2.22267,-2.3068 4.27028,-2.09933c2.04762,0.20748 3.45559,1.48376 3.14479,2.85066c-0.3108,1.3669 -2.22267,2.3068 -4.27029,2.09933c-2.04762,-0.20748 -3.45558,-1.48376 -3.14478,-2.85066z" fill="#e8c100"/></g><g stroke="none" stroke-width="0.5" stroke-linecap="butt"><path d="M236.29661,85.07346c0.01064,-0.03348 0.02316,-0.06661 0.0375,-0.09936c-1.36602,-0.34691 -2.19179,-1.0785 -1.94644,-1.8505c0.29255,-0.92051 2.00371,-1.57035 3.91137,-1.51968c-0.04137,-0.15924 -0.03825,-0.32381 0.01465,-0.49026c0.3108,-0.97792 2.22267,-1.65036 4.27029,-1.50192c2.04762,0.14844 3.45559,1.06153 3.14479,2.03945c-0.05459,0.17176 -0.15857,0.3341 -0.304,0.48422c1.72166,0.26386 2.83728,1.09244 2.55721,1.97367c-0.3108,0.97792 -2.22267,1.65036 -4.27029,1.50192c-0.3108,0.97792 -2.22267,1.65036 -4.27029,1.50192c-2.04762,-0.14844 -3.45559,-1.06153 -3.14479,-2.03945z" fill="#b900e9"/><path d="M237.56336,83.47457c0.3108,-0.97792 2.22267,-1.65036 4.27028,-1.50192c2.04762,0.14844 3.45559,1.06153 3.14479,2.03945c-0.3108,0.97792 -2.22267,1.65036 -4.27029,1.50193c-2.04762,-0.14844 -3.45558,-1.06153 -3.14478,-2.03946z" fill="#e8c100"/></g><g stroke="none" stroke-width="0.5" stroke-linecap="butt"><path d="M299.08382,142.32017c0.00403,-0.07011 0.00877,-0.13948 0.0142,-0.20804c-0.51726,-0.72636 -0.82996,-2.25821 -0.73705,-3.87466c0.11078,-1.92741 0.75874,-3.28807 1.48111,-3.18197c-0.01566,-0.33343 -0.01449,-0.67801 0.00555,-1.02653c0.11769,-2.04762 0.84165,-3.45558 1.61702,-3.14478c0.77536,0.3108 1.30852,2.22267 1.19083,4.27029c-0.02067,0.35963 -0.06004,0.69954 -0.11511,1.01386c0.65194,0.55247 1.07438,2.2874 0.96833,4.13255c-0.11769,2.04762 -0.84165,3.45558 -1.61702,3.14478c-0.11769,2.04762 -0.84165,3.45559 -1.61702,3.14479c-0.77536,-0.3108 -1.30852,-2.22267 -1.19083,-4.27029z" fill="#b900e9"/><path d="M299.56349,138.97236c0.11769,-2.04762 0.84165,-3.45559 1.61702,-3.14479c0.77536,0.3108 1.30852,2.22267 1.19083,4.27029c-0.11769,2.04762 -0.84165,3.45559 -1.61702,3.14479c-0.77536,-0.3108 -1.30852,-2.22267 -1.19083,-4.27029z" fill="#e8c100"/></g><g stroke="none" stroke-width="0.5" stroke-linecap="butt"><path d="M289.08289,123.57017c0.00811,-0.07011 0.01766,-0.13948 0.02859,-0.20805c-1.04149,-0.72636 -1.67109,-2.25821 -1.48403,-3.87465c0.22305,-1.92741 1.5277,-3.28807 2.98215,-3.18197c-0.03154,-0.33343 -0.02917,-0.67801 0.01117,-1.02652c0.23696,-2.04762 1.69463,-3.45558 3.2558,-3.14479c1.56117,0.3108 2.63465,2.22267 2.39768,4.27029c-0.04162,0.35963 -0.12089,0.69954 -0.23178,1.01387c1.31265,0.55247 2.16323,2.2874 1.94969,4.13255c-0.23696,2.04762 -1.69463,3.45558 -3.2558,3.14478c-0.23696,2.04762 -1.69463,3.45558 -3.2558,3.14479c-1.56117,-0.3108 -2.63465,-2.22267 -2.39768,-4.27029z" fill="#b900e9"/><path d="M290.04872,120.22236c0.23696,-2.04762 1.69463,-3.45558 3.2558,-3.14479c1.56117,0.3108 2.63465,2.22267 2.39768,4.27028c-0.23696,2.04762 -1.69463,3.45559 -3.2558,3.14479c-1.56117,-0.3108 -2.63465,-2.22267 -2.39768,-4.27028z" fill="#e8c100"/></g><g stroke="none" stroke-width="0.5" stroke-linecap="butt"><path d="M272.54662,119.82017c0.01064,-0.07012 0.02316,-0.13948 0.0375,-0.20805c-1.36602,-0.72636 -2.1918,-2.25821 -1.94644,-3.87465c0.29255,-1.92741 2.00371,-3.28807 3.91137,-3.18197c-0.04137,-0.33343 -0.03826,-0.67801 0.01464,-1.02652c0.3108,-2.04762 2.22267,-3.45558 4.27029,-3.14479c2.04762,0.3108 3.45559,2.22267 3.14479,4.27029c-0.05459,0.35963 -0.15857,0.69954 -0.304,1.01387c1.72166,0.55247 2.83728,2.2874 2.55721,4.13255c-0.3108,2.04762 -2.22267,3.45558 -4.27029,3.14478c-0.3108,2.04761 -2.22267,3.45558 -4.27029,3.14478c-2.04761,-0.3108 -3.45558,-2.22267 -3.14478,-4.27028z" fill="#b900e9"/><path d="M273.81335,116.47236c0.3108,-2.04762 2.22267,-3.45558 4.27028,-3.14479c2.04762,0.3108 3.45558,2.22267 3.14479,4.27029c-0.3108,2.04762 -2.22267,3.45559 -4.27029,3.14479c-2.04762,-0.3108 -3.45558,-2.22267 -3.14478,-4.27029z" fill="#e8c100"/></g><g stroke="none" stroke-width="0.5" stroke-linecap="butt"><path d="M241.79661,101.34439c0.01064,-0.05347 0.02316,-0.10636 0.0375,-0.15864c-1.36602,-0.55388 -2.19179,-1.72198 -1.94644,-2.95459c0.29255,-1.46973 2.00371,-2.50729 3.91137,-2.42638c-0.04137,-0.25425 -0.03825,-0.51701 0.01465,-0.78277c0.3108,-1.56139 2.22267,-2.63503 4.27029,-2.39803c2.04762,0.237 3.45559,1.69488 3.14479,3.25627c-0.05459,0.27424 -0.15857,0.53343 -0.304,0.77311c1.72166,0.42128 2.83728,1.74423 2.55721,3.15124c-0.3108,1.56139 -2.22267,2.63502 -4.27029,2.39803c-0.3108,1.56139 -2.22267,2.63503 -4.27029,2.39803c-2.04762,-0.237 -3.45559,-1.69488 -3.14479,-3.25627z" fill="#b900e9"/><path d="M243.06336,98.79154c0.3108,-1.56139 2.22267,-2.63503 4.27028,-2.39803c2.04762,0.237 3.45559,1.69488 3.14479,3.25627c-0.3108,1.56139 -2.22267,2.63503 -4.27029,2.39803c-2.04762,-0.237 -3.45558,-1.69488 -3.14478,-3.25627z" fill="#e8c100"/></g><g stroke="#000000" stroke-width="2" stroke-linecap="round"><path d="M191.87819,100.23955c0,0 -4.08791,-28.49023 -2.97046,-40.66511c1.04775,-11.41553 9.47955,-30.25292 9.47955,-30.25292c0,0 1.81488,24.24999 4.14149,35.30846c2.11079,10.03266 9.2338,28.26501 9.2338,28.26501z" fill="#f97800"/><path d="M201.75918,62.8344c-2.08909,-11.51543 -2.49548,-37.34676 -2.49548,-37.34676c0,0 7.25754,23.5409 11.47575,34.88857c4.21037,11.32657 13.81,33.13427 13.81,33.13427l-13.11833,-0.95409c0,0 -7.71369,-18.92786 -9.67193,-29.72199z" fill="#fab575"/></g></g></g></svg>