<svg version="1.1" xmlns="http://www.w3.org/2000/svg" xmlns:xlink="http://www.w3.org/1999/xlink" width="130.47404" height="267.22501" viewBox="0,0,130.47404,267.22501"><g transform="translate(-174.76298,-46.38751)"><g stroke-miterlimit="10"><path d="M179.56787,313.61252v-267.22501h123.18203v267.22501z" fill-opacity="0.01" fill="#000000" stroke="none" stroke-width="0" stroke-linecap="butt"/><path d="M206.75001,307.5l15.14285,-131.8421l37.78325,-0.15789l13.57389,132z" fill="#252525" stroke="#000000" stroke-width="2" stroke-linecap="butt"/><path d="M219.70026,204.11264l3.12142,-26.32765l35.83075,-0.14203l2.76735,26.1059c0,0 -7.51543,4.19603 -21.55904,4.50964c-12.48458,0.27879 -20.16049,-4.14586 -20.16049,-4.14586z" fill="#141414" stroke="#000000" stroke-width="0" stroke-linecap="butt"/><path d="M226.86212,307.29319v-127.58151h26.99386v127.58151z" fill="#ffffff" stroke="#000000" stroke-width="2" stroke-linecap="butt"/><path d="M175.76299,137c0,-33.30185 28.7599,-60.29833 64.23702,-60.29833c35.47713,0 64.23702,26.99648 64.23702,60.29833c0,33.30185 -28.75989,60.29834 -64.23702,60.29834c-35.47712,0 -64.23702,-26.99649 -64.23702,-60.29834z" fill="#000000" stroke="#000000" stroke-width="2" stroke-linecap="butt"/><path d="M267.12923,162.00629c-12.96801,0 -23.48065,-10.51265 -23.48065,-23.48066c0,-12.96801 10.51264,-23.48065 23.48065,-23.48065c12.96801,0 23.48066,10.51264 23.48066,23.48065c0,12.96801 -10.51265,23.48066 -23.48066,23.48066z" fill="#ffffff" stroke="#ffffff" stroke-width="2" stroke-linecap="butt"/><path d="M267.12923,160.75629c-12.96801,0 -23.48065,-10.51265 -23.48065,-23.48066c0,-12.96801 10.51264,-23.48065 23.48065,-23.48065c12.96801,0 23.48066,10.51264 23.48066,23.48065c0,12.96801 -10.51265,23.48066 -23.48066,23.48066z" fill="#ffffff" stroke="#ffffff" stroke-width="2" stroke-linecap="butt"/><path d="M283.74449,137c0,9.12808 -7.39976,16.52785 -16.52783,16.52785c-9.12807,0 -16.52784,-7.39978 -16.52784,-16.52785c0,-9.12808 7.39977,-16.52785 16.52784,-16.52785c9.12807,0 16.52783,7.39977 16.52783,16.52784z" fill="#000000" stroke="none" stroke-width="0" stroke-linecap="butt"/><path d="M276.14448,137c0,4.93071 -3.99712,8.92785 -8.92783,8.92785c-4.93071,0 -8.92784,-3.99714 -8.92784,-8.92785c0,-4.93071 3.99714,-8.92785 8.92784,-8.92785c4.93071,0 8.92783,3.99713 8.92783,8.92784z" fill="#ffffff" stroke="none" stroke-width="0" stroke-linecap="butt"/><path d="M246.49003,128.44187c0,-6.83382 9.62213,-12.37373 21.49163,-12.37373c11.8695,0 21.49164,5.5399 21.49164,12.37373c0,0.649 -42.98327,0 -42.98327,0z" fill="#ffffff" stroke-opacity="0.99216" stroke="#ffffff" stroke-width="2" stroke-linecap="butt"/><path d="M218.0536,82.71652l29.26703,41.20115" fill="none" stroke="#ffffff" stroke-width="7.5" stroke-linecap="round"/><path d="M280.84984,180.74685l-9.09267,-19.03777" fill="none" stroke="#ffffff" stroke-width="7.5" stroke-linecap="round"/></g></g></svg>