<svg version="1.1" xmlns="http://www.w3.org/2000/svg" xmlns:xlink="http://www.w3.org/1999/xlink" width="217.383" height="267.22501" viewBox="0,0,217.383,267.22501"><g transform="translate(-163.13138,-45.80536)"><g stroke-miterlimit="10"><g><path d="M200.24836,258.09554l66.52199,-93.13826" fill="none" stroke="#000000" stroke-width="2.5" stroke-linecap="round"/><g><path d="M255.29209,173.5876l41.66891,-51.41124c0,0 23.83088,23.79834 37.31239,34.72513c13.75206,11.14607 44.40444,31.50651 44.40444,31.50651l-41.66891,51.41125c0,0 -34.59996,-15.48989 -48.35202,-26.63596c-13.48151,-10.92678 -33.36481,-39.59567 -33.36481,-39.59567z" fill="#ff0000" stroke="#000000" stroke-width="2.5" stroke-linecap="butt"/><g fill="none" stroke="#ffff00" stroke-width="5"><path d="M339.08847,176.15791c-0.27351,4.20605 -1.95729,9.60571 -4.88826,12.62559c-2.7096,2.7918 -6.50748,3.33611 -10.71405,4.07138c-10.18479,1.78021 -19.81033,-4.60965 -21.49925,-14.27214c-0.03755,-0.21483 -0.07086,-0.42947 -0.09999,-0.64386" stroke-linecap="butt"/><path d="M302.92405,178.89446l-12.12151,1.71149" stroke-linecap="round"/><g stroke-linecap="butt"><path d="M308.21975,208.19584l7.09664,-32.1199l7.05071,1.5578c0,0 -0.74157,3.35635 -1.66641,7.54223c-1.07527,4.86673 -2.39829,10.85477 -3.09164,13.99291c-1.00303,4.53978 -2.33859,10.58477 -2.33859,10.58477z"/><path d="M306.89471,174.21523l3.33195,-15.08068l24.08993,5.32247l-3.33196,15.08069z"/></g></g></g></g><path d="M180.73912,313.03037v-267.22501h123.18203v267.22501z" fill-opacity="0.01" fill="#000000" stroke="none" stroke-width="0" stroke-linecap="butt"/><path d="M207.75006,307.5l15.14285,-131.8421l37.78325,-0.15789l13.57389,132z" fill="#19340f" stroke="#000000" stroke-width="2" stroke-linecap="butt"/><path d="M219.70028,204.11263l3.12142,-26.32765l35.83075,-0.14203l2.76735,26.1059c0,0 -7.51543,4.19603 -21.55904,4.50964c-12.48458,0.27879 -20.16049,-4.14586 -20.16049,-4.14586z" fill="#0f1e09" stroke="#000000" stroke-width="0" stroke-linecap="butt"/><g stroke-linecap="butt"><path d="M196.58998,117.2815c-6.19742,9.29613 -17.6189,12.56715 -25.51058,7.30603c-7.89168,-5.26112 -9.26515,-17.0621 -3.06773,-26.35824c6.19742,-9.29614 17.6189,-12.56716 25.51058,-7.30604c7.89168,5.26112 9.26515,17.06211 3.06773,26.35824z" fill="#ab856a" stroke="#000000" stroke-width="2"/><path d="M288.06111,89.72854c7.89168,-5.26112 19.31315,-1.9901 25.51058,7.30603c6.19742,9.29614 4.82395,21.09712 -3.06773,26.35824c-7.89168,5.26112 -19.31316,1.9901 -25.51058,-7.30603c-6.19742,-9.29613 -4.82395,-21.09712 3.06773,-26.35824z" fill="#ab856a" stroke="#000000" stroke-width="2"/><path d="M177.18177,137.37719c0,-33.30185 28.7599,-60.29833 64.23702,-60.29833c35.47712,0 64.23702,26.99649 64.23702,60.29833c0,33.30185 -28.7599,60.29833 -64.23702,60.29833c-35.47712,0 -64.23702,-26.99649 -64.23702,-60.29833z" fill="#ab856a" stroke="#000000" stroke-width="2"/><path d="M177.40483,136.93103c0,-0.72799 5.20666,55.91939 63.36046,56.93429c55.56352,0.9697 63.51358,-57.95314 63.51358,-56.93429c0,32.80479 -28.40173,59.39833 -63.43702,59.39833c-35.03529,0 -63.43702,-26.59354 -63.43702,-59.39833z" fill="#a0785b" stroke="#000000" stroke-width="0"/><path d="M190.732,137.80666c0,-12.968 10.51265,-23.48065 23.48065,-23.48065c12.968,0 23.48065,10.51265 23.48065,23.48065c0,12.968 -10.51265,23.48065 -23.48065,23.48065c-12.968,0 -23.48065,-10.51265 -23.48065,-23.48065z" fill="#ffffff" stroke="#000000" stroke-width="2"/><path d="M197.57192,141.37093c0,-9.12808 7.39976,-16.52784 16.52783,-16.52784c9.12808,0 16.52784,7.39977 16.52784,16.52784c0,9.12808 -7.39977,16.52784 -16.52784,16.52784c-9.12808,0 -16.52783,-7.39977 -16.52783,-16.52784z" fill="#000000" stroke="none" stroke-width="0"/><path d="M268.47107,161.2873c-12.968,0 -23.48065,-10.51265 -23.48065,-23.48065c0,-12.968 10.51265,-23.48065 23.48065,-23.48065c12.968,0 23.48065,10.51265 23.48065,23.48065c0,12.968 -10.51265,23.48065 -23.48065,23.48065z" fill="#ffffff" stroke="#000000" stroke-width="2"/><path d="M268.13306,158.80058c-9.12807,0 -16.52783,-7.39977 -16.52783,-16.52784c0,-9.12808 7.39977,-16.52784 16.52783,-16.52784c9.12807,0 16.52783,7.39977 16.52783,16.52784c0,9.12808 -7.39977,16.52784 -16.52783,16.52784z" fill="#000000" stroke="none" stroke-width="0"/><path d="M203.36969,105.99819c0,0 6.70895,-5.16922 11.79721,-6.36355c5.08827,-1.19433 12.33413,0.69937 12.33413,0.69937c0,0 -8.03812,-0.06028 -11.96762,0.86207c-4.10648,0.96389 -12.16372,4.80211 -12.16372,4.80211z" fill="#000000" stroke="none" stroke-width="0"/><path d="M270.30417,100.69609c-3.9295,-0.92235 -11.96762,-0.86207 -11.96762,-0.86207c0,0 7.24586,-1.8937 12.33413,-0.69937c5.08826,1.19433 11.79721,6.36355 11.79721,6.36355c0,0 -8.05724,-3.83822 -12.16372,-4.80211z" fill="#000000" stroke="none" stroke-width="0"/><path d="M190.64864,137.89909c0,-12.96801 10.51265,-23.48065 23.48066,-23.48065c12.96801,0 23.48065,10.51264 23.48065,23.48065c0,0 -6.95852,-14.64634 -23.43307,-14.78879c-16.22494,-0.14029 -23.52823,15.4054 -23.52823,14.78879z" fill="#ab856a" stroke="#000000" stroke-width="2"/><path d="M244.99043,137.79909c0,-12.96801 10.51264,-23.48065 23.48065,-23.48065c12.96801,0 23.48066,10.51264 23.48066,23.48065c0,0.60606 -7.87275,-14.38438 -22.92496,-14.781c-15.05221,-0.39662 -24.03635,14.781 -24.03635,14.781z" fill="#ab856a" stroke="#000000" stroke-width="2"/><path d="M240.60028,163.11609c53.3916,-0.14963 46.36273,13.86599 45.91566,14.95889c-13.14542,9.86451 -20.95777,18.19823 -44.94234,18.19823c-23.63779,0 -34.14252,-8.46772 -48.04828,-20.02794c0,0 -2.75577,-12.98953 47.07496,-13.12918z" fill="#d8c6ba" stroke="none" stroke-width="0"/><path d="M278.65808,173.58c0.23453,-0.07282 0.48384,-0.11205 0.74232,-0.11205c1.38071,0 2.5,1.11929 2.5,2.5c0,0.15726 -0.01451,0.31113 -0.04229,0.46034c0.52429,-0.32228 1.06664,-0.57928 1.67043,-0.63118c1.99039,-0.17107 4.77368,-0.54617 5.88929,1.11103c1.05552,1.56794 -0.64697,3.77105 -1.45123,5.48153c-0.77331,1.64465 -2.31837,3.18698 -3.98889,4.42819c0.04168,1.47189 -1.43021,2.20784 -1.43021,2.20784l-1.68018,0.81199c-9.4003,3.0301 -21.50205,0.17465 -28.82753,-6.36334c-0.30682,-0.27384 -0.72175,-0.65427 -1.18737,-1.10215l-0.77417,-0.167c0.0685,-0.13352 0.136,-0.26433 0.20261,-0.39253c-1.44359,-1.43883 -3.12382,-3.31698 -3.63066,-4.67357c-0.54445,-1.45725 -0.55208,-3.06189 -0.82811,-4.59284c0,0 -0.39237,-2.35419 1.88985,-2.84552l1.76986,-1.06192l0.03812,0.06353c1.37634,-1.397 3.09482,-2.14037 6.52384,-1.87749c0.11311,0.00867 0.21136,0.04221 0.29811,0.09525l4.68242,-1.44074c0.24856,-0.08283 0.51449,-0.12768 0.79088,-0.12768c1.21787,0 2.23235,0.87084 2.4547,2.0238l3.71389,-0.82531c0.19068,-0.04655 0.38994,-0.07123 0.59496,-0.07123c1.26645,0 2.31295,0.9417 2.47749,2.16307c0.19617,0.27104 0.33929,0.58299 0.41415,0.9206c0.15584,0.05729 0.30439,0.12965 0.44389,0.21532c0.2634,-0.24257 0.53681,-0.44759 0.82416,-0.60106c0.11869,-0.06339 0.23836,-0.12451 0.35892,-0.18356l-0.04363,-0.06544l3.35334,-2.23555c0.40239,-0.2768 0.88986,-0.43884 1.41519,-0.43884c1.38071,0 2.5,1.11929 2.5,2.5c0,0.41989 -0.10352,0.81561 -0.28643,1.16302l-1.33022,2.66044l-0.08241,-0.0412l-0.03865,0.2561c-0.29958,0.37366 -0.61816,0.73473 -0.95337,1.08156z" fill="#000000" stroke="none" stroke-width="0.5"/><path d="M204.30089,173.91347c-0.33522,-0.34683 -0.65379,-0.7079 -0.95337,-1.08156l-0.03865,-0.2561l-0.08241,0.0412l-1.33021,-2.66044c-0.18291,-0.34741 -0.28643,-0.74312 -0.28643,-1.16302c0,-1.38071 1.11929,-2.5 2.5,-2.5c0.52533,0 1.0128,0.16203 1.41519,0.43884l3.35333,2.23555l-0.04362,0.06544c0.12056,0.05905 0.24024,0.12017 0.35892,0.18356c0.28736,0.15347 0.56077,0.35848 0.82416,0.60106c0.1395,-0.08567 0.28805,-0.15803 0.44389,-0.21532c0.07486,-0.33762 0.21798,-0.64956 0.41415,-0.9206c0.16454,-1.22137 1.21104,-2.16307 2.47749,-2.16307c0.20502,0 0.40428,0.02468 0.59496,0.07123l3.71389,0.82531c0.22235,-1.15295 1.23683,-2.0238 2.4547,-2.0238c0.2764,0 0.54232,0.04485 0.79088,0.12768l4.68242,1.44074c0.08676,-0.05304 0.185,-0.08658 0.29811,-0.09525c3.42902,-0.26288 5.1475,0.48049 6.52384,1.87749l0.03812,-0.06353l1.76986,1.06192c2.28222,0.49133 1.88985,2.84552 1.88985,2.84552c-0.27604,1.53095 -0.28366,3.13559 -0.82811,4.59284c-0.50684,1.35659 -2.18708,3.23475 -3.63067,4.67357c0.06661,0.1282 0.13411,0.25901 0.20261,0.39253l-0.77417,0.167c-0.46562,0.44789 -0.88055,0.82832 -1.18737,1.10216c-7.32548,6.53798 -19.42723,9.39343 -28.82753,6.36333l-1.68017,-0.81199c0,0 -1.4719,-0.73595 -1.43022,-2.20784c-1.67052,-1.24121 -3.21558,-2.78354 -3.98889,-4.42819c-0.80426,-1.71048 -2.50675,-3.91359 -1.45123,-5.48153c1.11561,-1.6572 3.8989,-1.28209 5.88929,-1.11103c0.6038,0.0519 1.14614,0.3089 1.67043,0.63118c-0.02777,-0.14921 -0.04229,-0.30307 -0.04229,-0.46033c0,-1.38071 1.11929,-2.5 2.5,-2.5c0.25848,0 0.5078,0.03922 0.74232,0.11205z" fill="#000000" stroke="none" stroke-width="0.5"/><path d="M253.92437,168.64077c0,4.91828 -5.80394,8.90534 -12.96347,8.90534c-7.15953,0 -12.96347,-3.98706 -12.96347,-8.90534c0,-4.91828 5.80394,-8.90534 12.96347,-8.90534c7.15953,0 12.96347,3.98705 12.96347,8.90534z" fill="#cc523a" stroke="none" stroke-width="0"/></g></g></g></svg>