<svg version="1.1" xmlns="http://www.w3.org/2000/svg" xmlns:xlink="http://www.w3.org/1999/xlink" width="136.1165" height="253.75492" viewBox="0,0,136.1165,253.75492"><g transform="translate(-170.84587,-54.74509)"><g data-paper-data="{&quot;isPaintingLayer&quot;:true}" stroke-miterlimit="10" stroke-dasharray="" stroke-dashoffset="0" style="mix-blend-mode: normal"><path d="M206.75006,307.5l15.14285,-131.8421l37.78325,-0.15789l13.57389,132z" fill="#9200ff" fill-rule="nonzero" stroke="#000000" stroke-width="2" stroke-linecap="butt" stroke-linejoin="miter"/><path d="M219.70028,204.11263l3.12142,-26.32765l35.83075,-0.14203l2.76735,26.1059c0,0 -7.51543,4.19603 -21.55904,4.50964c-12.48458,0.27879 -20.16049,-4.14586 -20.16049,-4.14586z" fill="#6700b5" fill-rule="nonzero" stroke="#000000" stroke-width="0" stroke-linecap="butt" stroke-linejoin="miter"/><path d="M252.61664,176.65643h-25.10959" fill="none" fill-rule="nonzero" stroke="#000000" stroke-width="2" stroke-linecap="round" stroke-linejoin="miter"/><path d="M228.6428,220.87185v-42.4718h6.35092v42.4718z" fill="#9200ff" fill-rule="nonzero" stroke="#000000" stroke-width="2" stroke-linecap="butt" stroke-linejoin="miter"/><path d="M245.55078,220.3148v-42.4718h6.35092v42.4718z" fill="#9200ff" fill-rule="nonzero" stroke="#000000" stroke-width="2" stroke-linecap="butt" stroke-linejoin="miter"/><g><path d="M173.56461,174.11082v-28.08784h130.67818v28.08784z" fill="#00422c" fill-rule="nonzero" stroke="none" stroke-width="0" stroke-linecap="butt" stroke-linejoin="miter"/><path d="M173.86241,166.88858l0.39841,-111.14349h129.29251l0.19921,110.34668l-48.51395,-0.54765l-0.19363,-6.25681l-32.07762,0.23071l-0.27319,6.6159z" fill="#007500" fill-rule="nonzero" stroke="#000000" stroke-width="2" stroke-linecap="butt" stroke-linejoin="miter"/><path d="M208.73418,110.30492c2.10081,2.19669 4.23754,4.37622 6.19647,6.6407c0.265,0.30634 0.65422,0.69087 1.08326,1.11251c0.2897,-1.10762 0.56664,-2.21605 0.67722,-3.33876c0.26715,-2.71252 -1.06569,-5.55885 0.03039,-8.15847c0.08275,-0.19627 0.17512,-0.3893 0.27608,-0.57943l-0.12259,-0.02233l1.05482,-3.07399c0.69355,-2.2266 3.42674,-3.88879 6.69279,-3.88879c2.28608,0 4.31108,0.81436 5.55831,2.06661l5.33406,5.23177l-0.03593,0.01944l0.13419,0.07943c6.31243,6.89098 8.4605,8.42251 11.78065,14.47617c0.44844,0.00054 0.89674,0.00339 1.3451,0.0089c0.59012,-1.21709 1.27218,-2.44767 2.00199,-3.6624l2.60216,-7.58328c0.69355,-2.2266 3.42674,-3.88879 6.69279,-3.88879c2.19095,0 4.14211,0.74799 5.39862,1.91259l2.13968,1.9486l-0.24454,0.14253l0.55352,0.2458v-4.40964c0,-2.76142 3.07262,-5 6.86288,-5c3.71515,0 6.74081,2.15073 6.85928,4.83645l0.21464,4.19694c0.13867,0.98273 0.26118,1.9669 0.38269,2.95117c0.09789,0.32548 0.13255,0.66501 0.12542,1.0138c0.11488,0.92212 0.23346,1.8439 0.36822,2.76423c0.28822,-0.08395 0.58773,-0.16184 0.89903,-0.23332c3.45372,-0.79301 6.63878,2.41375 9.04152,4.38756c2.90805,2.38892 3.44499,6.63814 4.55451,9.63533c0.83014,2.24251 2.60895,4.3626 2.70099,6.68427c0.00139,0.03505 0.00266,0.0701 0.00382,0.10514l0.03177,-0.00579l2.14196,6.24215c0.15792,0.42094 0.24223,0.86402 0.24223,1.32146c0,2.76142 -3.07262,5 -6.86288,5c-0.19333,0 -0.38479,-0.00582 -0.57407,-0.01724l-0.20394,2.08016c-0.22314,2.61465 -3.20446,4.68494 -6.84948,4.68494c-0.44779,0 -0.88555,-0.03124 -1.30942,-0.0909v0.64796c0,2.76142 -3.07262,5 -6.86288,5c-3.08719,0 -5.69829,-1.48512 -6.56075,-3.52824l-1.0396,-2.27222l0.23109,-0.05612l-0.35336,-0.24168c-0.38734,-1.39688 -0.93534,-2.77412 -1.42643,-4.15744l-0.01428,0.01907c-1.14391,1.60133 -3.44249,2.69491 -6.09165,2.69491c-2.88609,0 -5.35608,-1.29793 -6.37029,-3.13632l-1.51253,-2.57124c-0.58126,-0.84399 -1.34136,-1.74582 -2.14374,-2.68641v1.4093c0,2.76142 -3.07262,5 -6.86288,5c-3.49533,0 -6.38034,-1.90374 -6.80818,-4.36566l-0.64912,-3.31043c-1.12324,0.5844 -2.49847,0.92824 -3.98394,0.92824c-2.73968,0 -5.10441,-1.16959 -6.20484,-2.86082l-2.65761,-3.87244l0.26553,-0.09673l-0.56377,-0.40461c-0.00997,-0.02863 -0.01992,-0.05726 -0.02985,-0.08589l-0.34589,1.76402c-0.42783,2.46192 -3.31285,4.36566 -6.80818,4.36566c-1.38919,0 -2.68198,-0.30072 -3.76242,-0.81768c-1.25153,1.21927 -3.24902,2.00848 -5.49953,2.00848c-2.88609,0 -5.35608,-1.29793 -6.37029,-3.13632l-1.57216,-2.67261c-0.25463,-0.43292 -0.58146,-0.98707 -0.94791,-1.60989c-0.00503,0.37574 -0.0304,0.75154 -0.08061,1.12743l1.08045,7.87173c0.02857,0.18527 0.04325,0.37361 0.04325,0.56444c0,2.76142 -3.07262,5 -6.86288,5c-0.20323,0 -0.40439,-0.00644 -0.60312,-0.01904l0.33717,2.37459c0.03049,0.19128 0.04617,0.38586 0.04617,0.5831c0,2.76142 -3.07262,5 -6.86288,5c-3.21717,0 -5.91731,-1.61281 -6.66029,-3.7892l-1.59523,-4.26147l0.11018,-0.02189l-0.16756,-0.1423c-3.89014,-14.08565 -6.69247,-28.83474 -6.72229,-43.22626c0,0 0,-5 6.86288,-5c6.86288,0 6.86288,5 6.86288,5c-0.00262,1.09573 0.01261,2.19423 0.04474,3.29491c1.86856,0.54493 3.33158,1.67114 3.96775,3.07169l0.4484,0.91472c0.89735,-0.4828 1.8493,-0.86688 2.81137,-1.08871c-0.22108,-0.48607 -0.42293,-0.9767 -0.59978,-1.47326l-4.65205,-5.6488c-0.65663,-0.76679 -1.03604,-1.67259 -1.03604,-2.64295c0,-2.76142 3.07262,-5 6.86288,-5c1.01291,0 1.97457,0.15987 2.84003,0.44687c0.31807,-0.03291 0.64317,-0.04994 0.97372,-0.04994c3.08719,0 5.69829,1.48512 6.56075,3.52824l0.95398,2.08508c1.2073,1.02457 1.60761,2.40568 2.2034,3.71057zM264.40445,130.25914c-1.11347,0.74768 -2.48461,1.08503 -3.49524,1.23724c0.26197,0.22106 0.51949,0.43609 0.77253,0.64232c1.69263,1.37948 1.45456,3.51511 2.15339,5.32115c1.59625,-1.04882 3.54678,-1.87833 5.35041,-2.33243l-2.43577,-2.12952l0.1248,-0.07577c-0.28597,-0.19914 -0.55612,-0.41177 -0.80783,-0.64011c-0.68495,-0.62139 -1.22116,-1.30277 -1.6623,-2.02288z" fill="#ff0000" fill-rule="nonzero" stroke="none" stroke-width="0.5" stroke-linecap="butt" stroke-linejoin="miter"/><path d="M185.58254,85.19963h106.26448c6.43804,0 11.62097,5.18296 11.62097,11.62098v32.93116c0,6.43802 -5.18296,11.62098 -11.62097,11.62098h-106.26447c-6.43802,0 -11.62099,-5.18296 -11.62099,-11.62098v-32.93116c0,-6.43801 5.18297,-11.62098 11.62099,-11.62098z" fill="#c5f4ff" fill-rule="evenodd" stroke="#000000" stroke-width="2" stroke-linecap="round" stroke-linejoin="round"/><path d="M196.22379,90.98188h85.64864c5.18902,0 9.36645,4.17744 9.36645,9.36645v26.54235c0,5.18901 -4.17744,9.36645 -9.36645,9.36645h-85.64864c-5.18901,0 -9.36646,-4.17744 -9.36646,-9.36645v-26.54235c0,-5.18901 4.17745,-9.36645 9.36646,-9.36645z" fill="#000000" fill-rule="evenodd" stroke="#000000" stroke-width="0" stroke-linecap="round" stroke-linejoin="round"/><g fill="#00ffff" fill-rule="nonzero" stroke="none" stroke-width="0" stroke-linecap="butt" stroke-linejoin="miter"><path d="M220.61217,119.24197c0,7.58314 -4.23043,13.73048 -9.44893,13.73048c-5.2185,0 -9.44893,-6.14735 -9.44893,-13.73048c0,-7.58314 4.23043,-13.73048 9.44893,-13.73048c5.2185,0 9.44893,6.14735 9.44893,13.73048z"/><path d="M197.28511,104.03509v-4.72447h24.21289v4.72447z"/><path d="M216.77354,102.26341v-8.26782h4.42919v8.26782z"/></g><g fill="#00ffff" fill-rule="nonzero" stroke="none" stroke-width="0" stroke-linecap="butt" stroke-linejoin="miter"><path d="M265.41194,106.14523c5.2185,0 9.44893,6.14735 9.44893,13.73048c0,7.58313 -4.23043,13.73048 -9.44893,13.73048c-5.2185,0 -9.44894,-6.14735 -9.44894,-13.73048c0,-7.58313 4.23044,-13.73048 9.44894,-13.73048z"/><path d="M255.07716,104.66883v-4.72447h24.21289v4.72447z"/><path d="M255.37244,102.89716v-8.26782h4.42919v8.26782z"/></g></g><path d="M303.37179,166.00507l2.37504,9.46767l-62.55473,15.07622l-3.88828,-17.09776l15.32085,-3.63797l2.3159,7.63411z" data-paper-data="{&quot;index&quot;:null}" fill="#007500" fill-rule="nonzero" stroke="#000000" stroke-width="2" stroke-linecap="round" stroke-linejoin="miter"/><path d="M221.60231,177.73871l2.193,-7.67063l15.61727,3.43501l-3.5942,17.16212l-63.76956,-14.24767l2.21541,-9.50629z" fill="#007500" fill-rule="nonzero" stroke="#000000" stroke-width="2" stroke-linecap="round" stroke-linejoin="miter"/></g></g></svg>