<svg version="1.1" xmlns="http://www.w3.org/2000/svg" xmlns:xlink="http://www.w3.org/1999/xlink" width="177.64686" height="267.22501" viewBox="0,0,177.64686,267.22501"><g transform="translate(-180.73912,-45.80536)"><g stroke-miterlimit="10"><path d="M180.73913,313.03037v-267.22501h123.18203v267.22501z" fill-opacity="0.01" fill="#000000" stroke="none" stroke-width="0"/><path d="M207.75007,307.5l15.14285,-131.8421l37.78325,-0.15789l13.57389,132z" fill="#7a7d5f" stroke="#000000" stroke-width="2"/><path d="M220.66658,203.62949l3.12142,-26.32765l35.83075,-0.14203l2.76735,26.1059c0,0 -7.51543,4.19603 -21.55904,4.50964c-12.48458,0.27879 -20.16049,-4.14586 -20.16049,-4.14586z" fill="#60624b" stroke="#000000" stroke-width="0"/><g stroke="#000000" stroke-width="2"><path d="M221.18333,98.62335c-9.50076,6.65606 -22.67011,5.75855 -29.41452,-2.00463c-6.74441,-7.76318 -4.50995,-19.4523 4.99082,-26.10836c9.50078,-6.65607 22.67011,-5.75856 29.41453,2.00463c6.74441,7.76318 4.50994,19.4523 -4.99082,26.10836z" fill="#87888c"/><path d="M330.99885,108.34185c10.13864,-2.19712 21.40384,4.96102 25.16152,15.98818c3.75767,11.02716 -1.41513,21.74755 -11.55377,23.94467c-10.13864,2.19712 -21.40384,-4.96103 -25.16152,-15.98818c-3.75768,-11.02716 1.41513,-21.74755 11.55377,-23.94467z" fill="#87888c"/><path d="M199.06228,122.13806c10.42702,-31.62737 46.19358,-48.26152 79.88684,-37.1534c33.69325,11.10811 52.5543,45.75206 42.12728,77.37942c-10.42702,31.62737 -46.19358,48.26152 -79.88684,37.1534c-33.69325,-11.10811 -52.5543,-45.75206 -42.12728,-77.37942z" fill="#87888c"/><path d="M278.27498,173.42917c-8.76812,-2.8907 -12.58451,-15.21814 -8.52414,-27.53409c4.06036,-12.31595 14.4599,-19.95662 23.22802,-17.06592c8.76812,2.8907 12.58451,15.21814 8.52414,27.53409c-4.06036,12.31595 -14.4599,19.95662 -23.22802,17.06592z" fill="#000000"/><path d="M228.21622,157.61183c-8.76812,-2.8907 -12.58451,-15.21814 -8.52414,-27.53409c4.06036,-12.31595 14.4599,-19.95662 23.22802,-17.06592c8.76812,2.8907 12.58451,15.21814 8.52414,27.53409c-4.06036,12.31595 -14.4599,19.95662 -23.22802,17.06592z" fill="#000000"/><path d="M248.00431,182.11847c-7.10327,-2.34183 -11.12778,-9.4993 -8.989,-15.98667c2.13878,-6.48737 9.63093,-9.84799 16.7342,-7.50616c7.10327,2.34183 11.12777,9.49931 8.989,15.98668c-2.13878,6.48737 -9.63093,9.84799 -16.7342,7.50616z" fill="#ff00ff"/></g></g></g></svg>