<svg version="1.1" xmlns="http://www.w3.org/2000/svg" xmlns:xlink="http://www.w3.org/1999/xlink" width="34.17311" height="34.17311" viewBox="0,0,34.17311,34.17311"><g transform="translate(-222.91346,-162.91346)"><g data-paper-data="{&quot;isPaintingLayer&quot;:true}" stroke-miterlimit="10" stroke-dasharray="" stroke-dashoffset="0" style="mix-blend-mode: normal"><path d="M229.98314,162.91347h20.03378c3.9166,0 7.06966,3.15307 7.06966,7.06966v20.03379c0,3.91659 -3.15306,7.06966 -7.06966,7.06966h-20.03378c-3.91659,0 -7.06967,-3.15307 -7.06967,-7.06966v-20.03379c0,-3.91659 3.15308,-7.06966 7.06967,-7.06966z" fill-opacity="0.09677" fill="#191919" fill-rule="evenodd" stroke="none" stroke-width="4.43922" stroke-linecap="round" stroke-linejoin="round"/><g fill-rule="nonzero" stroke-linecap="butt" stroke-linejoin="miter"><g><path d="M230.67841,194.27726l-5.20165,-18.08213l2.53708,-7.83382l6.57736,4.87291l6.84871,21.08213z" fill="#ffffff" stroke="#000000" stroke-width="0.5"/><path d="M231.72165,193.21898l-4.78319,-16.30038l1.5677,-6.78958l5.19976,4.59111l6.19495,18.47686z" fill="#bfbfbf" stroke="none" stroke-width="0"/></g><g data-paper-data="{&quot;index&quot;:null}"><path d="M238.56009,194.06635l6.84871,-21.08213l6.57737,-4.87291l2.53708,7.83382l-6.02518,18.55272z" fill="#ffffff" stroke="#000000" stroke-width="0.5"/><path d="M240.15795,193.35875l6.13614,-18.88862l5.19976,-4.59111l1.5677,6.78958l-5.60672,16.47686z" fill="#bfbfbf" stroke="none" stroke-width="0"/></g><g><path d="M235.13679,194.33549v-22.16666l4.83333,-6.66667l4.75,6.66667v22.16666z" fill="#ffffff" stroke="#000000" stroke-width="0.5"/><path d="M236.30345,193.16883v-19.86031l3.58874,-5.97303l3.52686,5.97303v19.86031z" fill="#bfbfbf" stroke="none" stroke-width="0"/></g></g></g></g></svg>