<svg version="1.1" xmlns="http://www.w3.org/2000/svg" xmlns:xlink="http://www.w3.org/1999/xlink" width="151.13634" height="276.97241" viewBox="0,0,151.13634,276.97241"><defs><linearGradient x1="244.89814" y1="14.12431" x2="244.89814" y2="135.12432" gradientUnits="userSpaceOnUse" id="color-1"><stop offset="0" stop-color="#f2c8f0"/><stop offset="1" stop-color="#ebb5e8"/></linearGradient></defs><g transform="translate(-169.62837,-31.5276)"><g stroke-miterlimit="10"><path d="M178.56481,120.828l-7.66667,-49.33333l21.66667,9.62963l24.66667,-43.33333l14.33333,22.66667l48.09267,-27.01141l-6.75934,36.34475c0,0 10.99646,-3.93086 15.60635,-6.90911c4.9665,-3.20864 13.20261,-11.7031 13.20261,-11.7031l0.19105,51.27888l17,-6l-17.33333,38.66667" fill="url(#color-1)" stroke="#000000" stroke-width="2" stroke-linecap="round"/><path d="M206.7501,307.5l15.14285,-131.8421l37.78325,-0.15789l13.57389,132z" fill="#a10000" stroke="#000000" stroke-width="2" stroke-linecap="butt"/><path d="M175.84001,136.84616c0,-26.09209 17.65502,-48.31345 42.36311,-56.71223c0.87297,-0.0793 1.75058,-0.12611 2.29783,-0.73493c6.17197,-1.85165 12.74967,-2.85117 19.57607,-2.85117c35.47712,0 64.23702,26.99649 64.23702,60.29833c0,33.30185 -28.7599,60.29833 -64.23702,60.29833c-35.47712,0 -64.23702,-26.99649 -64.23702,-60.29833z" fill="#fddad8" stroke="#000000" stroke-width="2" stroke-linecap="butt"/><path d="M189.39022,137.27563c0,-12.968 10.51265,-23.48065 23.48065,-23.48065c12.968,0 23.48065,10.51265 23.48065,23.48065c0,12.968 -10.51265,23.48065 -23.48065,23.48065c-12.968,0 -23.48065,-10.51265 -23.48065,-23.48065z" fill="#ffffff" stroke="#000000" stroke-width="2" stroke-linecap="butt"/><path d="M196.45561,137c0,-9.12808 7.39976,-16.52784 16.52783,-16.52784c9.12808,0 16.52784,7.39977 16.52784,16.52784c0,9.12808 -7.39977,16.52784 -16.52784,16.52784c-9.12808,0 -16.52783,-7.39977 -16.52783,-16.52784z" fill="#000000" stroke="none" stroke-width="0" stroke-linecap="butt"/><path d="M227.50709,176.65643c0,0 7.87204,-0.49798 12.15094,-0.49798c4.08165,0 12.95865,0.49798 12.95865,0.49798" fill="none" stroke="#000000" stroke-width="2" stroke-linecap="round"/><path d="M267.1293,160.75627c-12.968,0 -23.48065,-10.51265 -23.48065,-23.48065c0,-12.968 10.51265,-23.48065 23.48065,-23.48065c12.968,0 23.48065,10.51265 23.48065,23.48065c0,12.968 -10.51265,23.48065 -23.48065,23.48065z" fill="#ffffff" stroke="#000000" stroke-width="2" stroke-linecap="butt"/><path d="M267.01671,153.52784c-9.12807,0 -16.52783,-7.39977 -16.52783,-16.52784c0,-9.12808 7.39977,-16.52784 16.52783,-16.52784c9.12807,0 16.52783,7.39977 16.52783,16.52784c0,9.12808 -7.39977,16.52784 -16.52783,16.52784z" fill="#000000" stroke="none" stroke-width="0" stroke-linecap="butt"/><path d="M189.39022,137.27563c0,-12.968 10.51265,-23.48065 23.48065,-23.48065c12.968,0 23.48065,10.51265 23.48065,23.48065c0,0 -46.96131,1.23155 -46.96131,0z" fill="#fddad8" stroke="#000000" stroke-width="2" stroke-linecap="butt"/><path d="M243.64867,137.27563c0,-12.968 10.51265,-23.48065 23.48065,-23.48065c12.968,0 23.48065,10.51265 23.48065,23.48065c0,1.2138 -46.96131,0 -46.96131,0z" fill="#fddad8" stroke="#000000" stroke-width="2" stroke-linecap="butt"/><path d="M264.29447,220.44818h-47.45236l1.13658,-11.08169l44.89505,-0.28415z" fill="#240000" stroke="#000000" stroke-width="2" stroke-linecap="round"/><path d="M267.30546,246.19083h-53.41943l1.27951,-11.08169l50.54054,-0.28415z" fill="#240000" stroke="#000000" stroke-width="2" stroke-linecap="round"/><path d="M269.464,270.79689h-57.96576l1.3884,-11.08169l54.84186,-0.28415z" fill="#240000" stroke="#000000" stroke-width="2" stroke-linecap="round"/><path d="M271.90669,293.98223h-63.64868l1.52452,-11.08169l60.21851,-0.28415z" fill="#240000" stroke="#000000" stroke-width="2" stroke-linecap="round"/><path d="M181.68222,101.34516l0.85244,-1.70488l0.2581,-0.30112l0.14536,-0.369l1.42073,-1.98902l0.31812,-0.271l0.21501,-0.35835l2.84146,-2.84146l0.19822,-0.11893l0.13639,-0.18664l3.40975,-2.84146l0.11817,-0.05705l0.08275,-0.10184l2.10679,-1.58009l2.40187,-2.135l0.11779,-0.06157l0.08055,-0.10572l1.20449,-0.96359l1.38529,-1.38529l0.87516,-1.53153l2.5,-0.625h0.01558l1.70872,-0.73231l0.65142,-0.10507l0.61107,-0.24895l1.5427,-0.22039l2.1296,-0.70987l0.26171,-0.02013l0.23477,-0.11739l2.55731,-0.56829l0.30241,0.00796l0.28472,-0.10221l2.54508,-0.25451l2.26655,-0.50368l0.13699,0.0036l0.12567,-0.05464l3.33022,-0.55504l2.51434,-0.50287l3.45211,-1.06219l0.01811,-0.00097l0.01558,-0.00927l2.84146,-0.85244l0.72887,-0.0339l0.70787,-0.17697h18.18534l0.22426,0.05607l0.22842,-0.03553l3.1256,0.28415l0.87684,0.30588l0.90655,0.20145l0.17672,0.08836l0.12839,-0.01735l2.55731,0.28415l0.49863,0.18521l0.53035,0.0408l2.262,0.754l2.53622,0.50724l0.34664,0.1642l0.3815,0.03974l3.1256,1.13658l0.24215,0.16345l0.2852,0.06338l3.40975,1.70488l0.34507,0.29577l0.41886,0.17636l0.93024,0.69768l1.19955,0.71973l0.08621,0.08621l0.11481,0.04101l0.23576,0.15718l0.02144,-0.00585l0.12314,0.07389l0.13217,0.04406l0.96925,0.6168l0.95791,0.57475l1.00093,0.50047l0.61025,0.52307l0.68921,0.41353l0.2787,0.2787l0.97915,0.48957l0.61025,0.52307l0.68921,0.41353l2.39694,2.39694l1.53064,1.27553l0.13639,0.18664l0.19822,0.11893l3.40975,3.40975l0.07735,0.12892l0.12416,0.08479l1.99929,2.2492l0.87476,0.49986l2.01913,0.67304l0.31224,0.65917l0.26301,0.15029l0.21439,0.85756l0.31351,0.66186l0.28415,1.42073l-0.00394,0.08268l0.033,0.07591l0.16054,0.96327l0.51621,1.03241l0.06651,0.29929l0.17007,0.2551l0.38354,1.07392l1.00773,1.45561l0.08849,0.23468l0.17134,0.18316l1.35819,2.44474l1.35248,2.16396l0.44678,1.37758l0.25428,0.2842l-0.03108,0.40402l0.12501,0.38545l-0.1805,0.33593l-0.11107,1.44396l-0.28415,0.85244l-0.05326,0.08369l0.06612,0.07714l0.48957,0.97915l1.69943,1.69943l0.1035,0.1725l0.16071,0.05357l0.48214,1.01786l0.57946,0.96577l-0.04457,0.16344l0.08612,0.18181l0.15283,0.76414l0.26884,0.53768l0.18365,0.82641l0.30561,0.78948l0.28415,2.27317l-0.03802,0.31366l0.07663,0.30652v0.81035l0.03115,0.04673l-0.03115,0.14019v0.13932l-0.27864,1.11456l-0.24922,1.12151l-0.06231,0.12461l-0.03483,0.13932l-0.04876,0.02786l-0.13825,0.2765l-1.67705,1.95656l-0.19713,0.01095l-0.09795,0.17142l-2.5,0.625h-0.24205l-0.04673,0.03115l-0.14019,-0.03115h-0.13932l-1.11456,-0.27864l-1.12151,-0.24922l-0.12461,-0.06231l-0.13932,-0.03483l-0.02786,-0.04876l-0.2765,-0.13825l-0.74894,-0.64195l-0.37491,-0.07498l-0.34492,-0.54202l-0.48779,-0.4181l-0.02121,-0.38175l-0.52958,-0.8322l-0.0724,-0.21721l-0.19687,-0.2953l-0.06766,-0.18945l-0.14709,-0.08405l-0.27316,-1.09265l-0.37881,-1.06066l0.07576,-0.15152l-0.04879,-0.19516l0,-1.1438l-0.17861,-1.60749l-0.31621,-0.79053l-0.0625,-0.45833l-0.15212,-0.32114l-2.65657,-2.65657l-0.41353,-0.68921l-0.52307,-0.61025l-0.56829,-1.13658l-0.02416,-0.1087l-0.5164,-0.7746l-0.10627,-0.29754l-0.20562,-0.23989l-0.21632,-0.43264l-0.10259,-0.17099l-0.18664,-0.13639l-1.27553,-1.53064l-0.72495,-0.72495l-0.64597,-0.48447l-1.72274,-1.03364l-0.55111,-0.01837l-1.61823,-0.46235l-1.58164,-0.1977h-5.08748l-0.59715,-0.14929l-0.61553,0l-2.02294,-0.50573l-1.73368,-0.24767l-0.05533,-0.02254l-0.05956,0.00476l-1.29669,-0.21612l-5.96545,0l-3.90268,0.24392l-4.81588,1.26734l-4.4376,1.38675l-0.75636,0.04385l-0.73501,0.18375h-3.6939l-0.59715,-0.14929h-0.61553l-1.13658,-0.28415l-0.755,-0.40267l-0.80582,-0.28779l-0.85244,-0.56829l-0.46231,-0.50854l-0.56047,-0.39776l-1.57991,-1.84323l-1.0008,-1.0008l-0.29363,-0.48938l-0.41083,-0.39615l-0.30856,-0.4937l-0.08315,0.02376l-1.99001,0.796l-0.41049,0.30787l-3.22818,2.95916l-0.493,0.26739l-0.40493,0.38805l-1.98902,1.13658l-2.01735,0.56738l-0.18384,0.12256l-0.14073,-0.03127l-0.13878,0.03903l-0.19035,-0.11217l-1.645,-0.36555l-0.05877,0.01603l-0.077,-0.0462l-0.26495,-0.05888l-0.56829,-0.28415l-0.61025,-0.52307l-0.68921,-0.41353l-0.85244,-0.85244l-0.25622,-0.42704l-0.3685,-0.335l-1.70488,-2.55731l-0.02539,-0.0711l-0.05435,-0.05241l-1.04185,-1.66697l-0.15477,-0.02265l-0.24631,0.06158h-1.82743l-0.98288,1.10574l-0.95436,2.29046l-0.19314,0.77255l-0.36797,0.68994l0.0242,0.35085l-0.51125,0.56237l-0.35766,0.67061l-0.33855,0.09522l-0.52599,0.57859l-0.85244,0.56829l-2.42681,0.86672l-0.80462,-0.40231l-0.86789,0.2367l-2.20971,-1.32583l-0.62175,-0.62175l-0.05507,-0.01101l-0.0771,-0.12116l-0.09851,-0.09851l-0.59109,-0.98514l-0.50296,-0.79037l-0.7793,0.28338l-2.50447,1.25224l-1.85359,1.01105l-0.05409,0.09016l-0.03936,0.07872l-0.06861,0.20584l0.01478,0.05418l-0.07389,0.12314l-0.04406,0.13217l-0.6168,0.96925l-0.59109,0.98514l-0.09851,0.09851l-0.0771,0.12116l-0.05507,0.01101l-0.18651,0.18651l-0.43696,0.72826l-0.8918,1.78359l-1.27401,3.82202l-0.53844,1.88456l-0.26651,0.46195l-0.16611,0.66445l-0.32405,0.18517l-0.53108,0.92054l-1.89392,0.46517l-1.62595,0.92911l-0.64838,-0.3705l-0.72522,0.17812l-1.30814,-1.34005l-1.69325,-0.96757l-0.25776,-1.03102l-0.26071,-0.26707l0.02282,-0.68452l-0.12935,-0.51739v-5.68292l0.10136,-0.40542l-0.03333,-0.41657l0.28415,-1.70488l0.15814,-0.36371l0.03042,-0.39543l0.31854,-0.95561c0.03916,-0.75407 0.2454,-1.46393 0.58239,-2.09328l0.03578,-0.14314l0.06592,-0.03767c0.10003,-0.16949 0.20977,-0.33256 0.32846,-0.48845l-0.45109,-1.80437v-3.6939l0.10136,-0.40542l-0.03333,-0.41657l0.28415,-1.70488l0.29781,-0.68496zM205.03724,92.05355l0.11359,-0.05048l-0.0586,-0.00451z" fill="#ebb5e8" stroke="none" stroke-width="0.5" stroke-linecap="butt"/><path d="M214.34711,108.75528c-6.52493,-0.07507 -20.04936,2.70182 -20.04936,2.70182c0,0 11.99298,-5.27589 20.0779,-5.18285c8.08494,0.09304 18.26529,5.62405 18.26529,5.62405c0,0 -12.0501,-3.07116 -18.29383,-3.14301z" fill="#6a3967" stroke="none" stroke-width="0" stroke-linecap="butt"/><path d="M266.40979,109.72236c-6.24373,0.07184 -18.29383,3.14301 -18.29383,3.14301c0,0 10.18035,-5.53101 18.26529,-5.62405c8.08492,-0.09304 20.07791,5.18285 20.07791,5.18285c0,0 -13.52443,-2.77689 -20.04936,-2.70182z" fill="#6a3967" stroke="none" stroke-width="0" stroke-linecap="butt"/></g></g></svg>