<svg version="1.1" xmlns="http://www.w3.org/2000/svg" xmlns:xlink="http://www.w3.org/1999/xlink" width="164.69298" height="267.73261" viewBox="0,0,164.69298,267.73261"><defs><linearGradient x1="240.25" y1="152.5" x2="240.25" y2="192.50004" gradientUnits="userSpaceOnUse" id="color-1"><stop offset="0" stop-color="#000000"/><stop offset="1" stop-color="#007500"/></linearGradient><linearGradient x1="240.56005" y1="177.64297" x2="240.56005" y2="208.27116" gradientUnits="userSpaceOnUse" id="color-2"><stop offset="0" stop-color="#000000"/><stop offset="1" stop-color="#6700b5"/></linearGradient><linearGradient x1="229.74981" y1="47.32006" x2="239.99994" y2="167.98922" gradientUnits="userSpaceOnUse" id="color-3"><stop offset="0" stop-color="#000000"/><stop offset="1" stop-color="#007500"/></linearGradient><linearGradient x1="233.87681" y1="80.11041" x2="240.36993" y2="156.55035" gradientUnits="userSpaceOnUse" id="color-4"><stop offset="0" stop-color="#ff0000"/><stop offset="1" stop-color="#000000"/></linearGradient><linearGradient x1="232.05121" y1="76.6852" x2="236.80566" y2="132.65673" gradientUnits="userSpaceOnUse" id="color-5"><stop offset="0" stop-color="#000000"/><stop offset="1" stop-color="#c5f4ff"/></linearGradient><linearGradient x1="236.67676" y1="123.55673" x2="240.69309" y2="170.83884" gradientUnits="userSpaceOnUse" id="color-6"><stop offset="0" stop-color="#000000"/><stop offset="1" stop-color="#1a1a23"/></linearGradient><linearGradient x1="166.52762" y1="139.80191" x2="170.11564" y2="182.04171" gradientUnits="userSpaceOnUse" id="color-7"><stop offset="0" stop-color="#000000"/><stop offset="1" stop-color="#dfdaba"/></linearGradient><linearGradient x1="174.21936" y1="136.26376" x2="177.9861" y2="180.60752" gradientUnits="userSpaceOnUse" id="color-8"><stop offset="0" stop-color="#000000"/><stop offset="1" stop-color="#a6a38a"/></linearGradient><linearGradient x1="305.07699" y1="128.77344" x2="308.66501" y2="171.01324" gradientUnits="userSpaceOnUse" id="color-9"><stop offset="0" stop-color="#000000"/><stop offset="1" stop-color="#dfdaba"/></linearGradient><linearGradient x1="296.89868" y1="126.58336" x2="300.66542" y2="170.92712" gradientUnits="userSpaceOnUse" id="color-10"><stop offset="0" stop-color="#000000"/><stop offset="1" stop-color="#a6a38a"/></linearGradient></defs><g transform="translate(-154.32483,-40.76741)"><g data-paper-data="{&quot;isPaintingLayer&quot;:true}" fill-rule="nonzero" stroke-linejoin="miter" stroke-miterlimit="10" stroke-dasharray="" stroke-dashoffset="0" style="mix-blend-mode: normal"><path d="M229,192.50004v-40h22.5v40z" fill="url(#color-1)" stroke="none" stroke-width="NaN" stroke-linecap="butt"/><path d="M206.75007,307.50001l15.14285,-131.8421l37.78325,-0.15789l13.57389,132z" fill="#131313" stroke="#000000" stroke-width="2" stroke-linecap="butt"/><path d="M211.80171,263.57744l10.20803,-87.78121l37.78325,-0.15789l8.99156,88.2916z" fill="#9200ff" stroke="#000000" stroke-width="2" stroke-linecap="butt"/><path d="M219.70029,204.11266l3.12142,-26.32765l35.83075,-0.14203l2.76735,26.1059c0,0 -7.51543,4.19603 -21.55904,4.50964c-12.48458,0.27879 -20.16049,-4.14586 -20.16049,-4.14586z" fill="url(#color-2)" stroke="#000000" stroke-width="0" stroke-linecap="butt"/><path d="M227.50706,176.65646h25.10959" fill="none" stroke="#000000" stroke-width="2" stroke-linecap="round"/><path d="M223.53175,220.69562v-42.4718h6.35092v42.4718z" fill="#9200ff" stroke="#000000" stroke-width="2" stroke-linecap="butt"/><path d="M249.95688,220.84354v-42.4718h6.35092v42.4718z" fill="#9200ff" stroke="#000000" stroke-width="2" stroke-linecap="butt"/><path d="M232.75051,269.84781v-89.35549h14.45197v89.35549z" fill="#131313" stroke="none" stroke-width="0" stroke-linecap="butt"/><g><path d="M175.58565,173.46084l-10.25013,-120.66916l128.82856,-10.94322l10.25013,120.66916zM274.34347,92.98095c-0.46745,-5.50303 -5.30748,-9.58517 -10.81051,-9.11772c-4.08036,0.3466 -7.37952,3.09717 -8.62209,6.7395c-1.68681,-0.94835 -3.6662,-1.41815 -5.73972,-1.24202c-5.50302,0.46745 -9.58517,5.30748 -9.11772,10.81051c0.20453,2.40778 1.24613,4.54355 2.81411,6.14525c-1.60554,1.94605 -2.48042,4.49739 -2.25002,7.20979c0.46745,5.50303 5.30749,9.58517 10.81051,9.11772c1.24926,-0.10612 2.42529,-0.43757 3.49149,-0.95097c1.63824,3.88233 5.6354,6.44942 10.06143,6.07345c1.57881,-0.13411 3.04068,-0.62813 4.3117,-1.39446c4.53717,-1.25746 7.68455,-5.5956 7.28419,-10.45588c0.77169,-1.57318 1.13966,-3.36944 0.98056,-5.24253c-0.19438,-2.28837 -1.14487,-4.33104 -2.58474,-5.90303c0.16794,-0.87859 0.21986,-1.79451 0.14043,-2.72958c-0.13856,-1.63125 -0.66134,-3.13764 -1.47171,-4.43769c0.57948,-1.41811 0.84068,-2.9911 0.70212,-4.62234z" fill="url(#color-3)" stroke="#000000" stroke-width="2" stroke-linecap="butt"/><path d="M228.86053,84.18113c1.42486,-2.4484 3.48443,-0.62846 3.48443,-0.62846c2.49286,2.62647 4.53819,0.29937 7.69877,0.74346c1.45145,0.20393 2.81051,1.07597 4.24859,1.41467c3.76228,0.88608 7.76407,-0.70285 11.37361,-1.38261c2.66612,-0.5021 5.50983,0.36047 8.11627,-0.32435c3.35755,-0.88217 8.3075,-7.5257 12.24854,-3.75904c0.24563,0.23477 0.46218,0.57825 0.65444,1.00427c0.71945,0.83947 1.19698,1.86029 1.33398,2.98866l0.64786,5.09097c0.23979,1.18459 0.46363,2.3723 0.68649,3.56021c0.1312,0.38794 0.20084,0.79834 0.2298,1.22354c0.19017,1.00858 0.38333,2.01655 0.58867,3.02215c0.03136,0.0993 0.06253,0.19877 0.09347,0.2984c0.26953,-0.12171 0.55013,-0.23742 0.84228,-0.3468c3.35932,-1.25769 6.86456,2.37648 9.46278,4.57593c3.14465,2.66202 4.11906,7.78936 5.53452,11.34408c1.05905,2.65966 3.05071,5.08999 3.3825,7.90849c0.00501,0.04255 0.0099,0.08511 0.01468,0.12768l0.03106,-0.00974l2.77975,7.41759c0.20088,0.49906 0.33071,1.03131 0.37801,1.58817c0.28555,3.36161 -2.54456,6.34682 -6.32122,6.66763c-0.19264,0.01636 -0.38401,0.02547 -0.57379,0.02759l0.01189,2.54955c0.04803,3.20183 -2.70851,5.97443 -6.34045,6.28295c-0.44618,0.0379 -0.8856,0.03692 -1.31412,0.00017l0.067,0.78879c0.28555,3.36161 -2.54456,6.34681 -6.32122,6.66762c-3.07611,0.2613 -5.83141,-1.32561 -6.90205,-3.73981l-1.27083,-2.6781l0.22446,-0.08788l-0.37708,-0.26429c-0.5304,-1.6677 -1.21885,-3.29791 -1.85122,-4.94033l-0.01226,0.02443c-0.97422,2.0462 -3.15147,3.57202 -5.79112,3.79624c-2.87573,0.24428 -5.47108,-1.12671 -6.67175,-3.27882l-1.77299,-3.00209c-0.66645,-0.97823 -1.51708,-2.01174 -2.41384,-3.08886l0.14573,1.71561c0.28555,3.36161 -2.54456,6.34681 -6.32122,6.66762c-3.48279,0.29584 -6.55431,-1.7775 -7.23519,-4.7383l-0.98911,-3.97502c-1.05878,0.80649 -2.39352,1.34147 -3.87366,1.4672c-2.72985,0.23188 -5.20704,-0.99176 -6.4784,-2.95745l-3.04851,-4.48918l0.25457,-0.14023l-0.60359,-0.44484c-0.01289,-0.03401 -0.02577,-0.06801 -0.03862,-0.10204l-0.16224,2.1767c-0.17172,3.03323 -2.84952,5.59493 -6.33231,5.89077c-1.38421,0.11758 -2.70345,-0.13908 -3.83347,-0.67696c-1.12096,1.5902 -3.02967,2.72001 -5.27211,2.91049c-2.87573,0.24428 -5.47107,-1.1267 -6.67175,-3.27881l-1.84288,-3.12044c-0.29848,-0.50546 -0.68144,-1.1524 -1.11098,-1.87957c0.03384,0.45784 0.04742,0.91746 0.03626,1.3793l1.89056,9.4912c0.04763,0.22312 0.08173,0.45115 0.10146,0.68345c0.28555,3.36161 -2.54456,6.34681 -6.32122,6.66762c-0.2025,0.0172 -0.4036,0.0264 -0.60292,0.02787l0.58151,2.86217c0.05016,0.23027 0.0859,0.46582 0.1063,0.70593c0.28555,3.36161 -2.54456,6.34681 -6.32122,6.66762c-3.20563,0.2723 -6.06285,-1.46252 -7.02822,-4.04907l-2.03017,-5.05268l0.10752,-0.03597l-0.18167,-0.15905c-5.33273,-16.81791 -9.65016,-34.53553 -11.16805,-52.05253c0,0 -0.51703,-6.08675 6.32122,-6.66762c6.83825,-0.58087 7.35529,5.50588 7.35529,5.50588c0.1107,1.33411 0.23946,2.67008 0.3853,4.00728c1.9182,0.50522 3.49243,1.75238 4.27115,3.4035l0.54138,1.07559c0.84421,-0.66368 1.75302,-1.21182 2.6887,-1.5633c-0.27055,-0.57301 -0.52241,-1.15319 -0.74997,-1.74271l-5.21948,-6.48282c-0.73356,-0.87787 -1.20528,-1.94845 -1.30562,-3.12971c-0.28555,-3.36161 2.54456,-6.34681 6.32122,-6.66762c1.00928,-0.08573 1.98402,0.02748 2.87605,0.30361c0.31353,-0.06699 0.6357,-0.11523 0.96506,-0.14321c3.07611,-0.2613 5.83141,1.32561 6.90205,3.73981l1.16617,2.45753c1.30892,1.14507 1.8506,2.79249 2.57919,4.33057l-0.00002,0.00005c2.32042,2.49633 4.67486,4.96873 6.86093,7.55959c0.29573,0.35049 0.72331,0.78566 1.19441,1.26263c0.17412,-1.37288 0.33545,-2.74566 0.32954,-4.12176c-0.0143,-3.3247 -1.63669,-6.67687 -0.81336,-9.93429c0.06216,-0.24593 0.13424,-0.48874 0.21517,-0.72874l-0.12446,-0.01681l0.73316,-3.8314c0.46082,-2.76925 3.01232,-5.02405 6.26665,-5.30048c2.27788,-0.19349 4.37982,0.62647 5.75207,2.04533l2.07732,2.09915c0.06697,-0.37847 0.20903,-0.7817 0.45455,-1.20358z" fill="url(#color-4)" stroke="none" stroke-width="0.5" stroke-linecap="butt"/><path d="M284.99278,72.18812c6.41494,-0.54491 12.01795,4.18077 12.56286,10.59569l2.78727,32.81299c0.54491,6.41492 -4.18077,12.01796 -10.59568,12.56287l-105.88316,8.99415c-6.41492,0.54491 -12.01797,-4.18077 -12.56288,-10.59569l-2.78727,-32.81299c-0.54491,-6.41491 4.18078,-12.01796 10.5957,-12.56287zM274.34347,92.98095c-0.46745,-5.50303 -5.30748,-9.58517 -10.81051,-9.11772c-4.08036,0.3466 -7.37952,3.09717 -8.62209,6.7395c-1.68681,-0.94835 -3.6662,-1.41815 -5.73972,-1.24202c-5.50302,0.46745 -9.58517,5.30748 -9.11772,10.81051c0.20453,2.40778 1.24613,4.54355 2.81411,6.14525c-1.60554,1.94605 -2.48042,4.49739 -2.25002,7.20979c0.46745,5.50303 5.30749,9.58517 10.81051,9.11772c1.24926,-0.10612 2.42529,-0.43757 3.49149,-0.95097c1.63824,3.88233 5.6354,6.44942 10.06143,6.07345c1.57881,-0.13411 3.04068,-0.62813 4.3117,-1.39446c4.53717,-1.25746 7.68455,-5.5956 7.28419,-10.45588c0.77169,-1.57318 1.13966,-3.36944 0.98056,-5.24253c-0.19438,-2.28837 -1.14487,-4.33104 -2.58474,-5.90303c0.16794,-0.87859 0.21986,-1.79451 0.14043,-2.72958c-0.13856,-1.63125 -0.66134,-3.13764 -1.47171,-4.43769c0.57948,-1.41811 0.84068,-2.9911 0.70212,-4.62234z" fill="url(#color-5)" stroke="#000000" stroke-width="2" stroke-linecap="butt"/><path d="M188.81051,86.44649l85.3413,-7.24924c5.1704,-0.43919 9.68642,3.36968 10.12561,8.54007l2.24653,26.44711c0.43919,5.17039 -3.36968,9.68642 -8.54007,10.12561l-3.12998,0.26587c0.51839,-1.12172 0.83958,-2.47751 0.94782,-3.89465c0.54154,-1.25877 0.83044,-2.64485 0.80816,-4.08882c0.38705,-0.90752 0.64294,-1.88072 0.74587,-2.89372c0.21573,-0.96795 0.28998,-1.98469 0.2016,-3.02512c-0.19438,-2.28837 -1.14487,-4.33104 -2.58474,-5.90303c0.16794,-0.87859 0.21986,-1.79451 0.14043,-2.72958c-0.11215,-1.32027 -0.47598,-2.55875 -1.04027,-3.67224c-0.05118,-0.44769 -0.12496,-0.89072 -0.22175,-1.32619c0.43095,-1.26736 0.61298,-2.64243 0.49243,-4.0616c-0.06932,-0.81601 -0.23477,-1.60078 -0.48428,-2.34411c-0.61383,-1.82869 -1.73637,-3.40656 -3.18751,-4.58169c-1.97338,-1.73297 -4.62237,-2.69084 -7.44589,-2.451c-4.0574,0.34465 -7.34239,3.06631 -8.60094,6.67814c-1.5559,-0.74782 -3.32599,-1.10231 -5.17058,-0.94562c-0.04727,0.00402 -0.09442,0.00835 -0.14148,0.01301c-0.04717,0.00334 -0.09438,0.00702 -0.14164,0.01104c-5.50303,0.46745 -9.58517,5.30748 -9.11772,10.81051c0.20453,2.40778 1.24613,4.54355 2.81411,6.14525c-1.60554,1.94605 -2.48042,4.49739 -2.25002,7.20979c0.46745,5.50303 5.30748,9.58517 10.81051,9.11772c0.09469,-0.00804 0.18896,-0.01739 0.2828,-0.028c0.68194,-0.07714 1.34082,-0.22165 1.97052,-0.42629c0.62349,0.38577 1.29116,0.70441 1.99219,0.94677c0.70669,1.11889 1.62723,2.0829 2.69926,2.83943l-65.7302,5.58339c-5.17039,0.43919 -9.68643,-3.36968 -10.12562,-8.54007l-2.24653,-26.44711c-0.43919,-5.17039 3.36969,-9.68642 8.54008,-10.12561z" fill="#000000" stroke="#000000" stroke-width="0" stroke-linecap="butt"/><path d="M260.75209,90.02638c1.312,-0.52896 2.18092,-0.01623 2.68811,0.5287c0.02658,0.00047 0.0555,0.00135 0.08651,0.00277c0.86882,-0.23558 1.70525,0.09744 1.70525,0.09744c1.05989,0.49027 2.34975,0.64924 3.17967,1.4708c0.86638,0.85767 1.07926,2.18633 1.61889,3.2795l0.35528,0.82533c0,0 0.16268,0.37792 0.20273,0.89312c0.85944,0.48521 1.19122,1.45473 1.19122,1.45473c0.40638,1.20681 0.81277,2.41362 1.21916,3.62043l0.21132,2.30848c1.59192,5.29195 2.05574,10.10883 0.52636,15.86808l-2.64452,-0.66554c-0.56452,0.40743 -1.12905,0.81487 -1.69357,1.2223l-2.95022,0.60816c0,0 -0.50005,0.04248 -1.0711,-0.13468c-0.07661,0.12161 -0.16667,0.24486 -0.27169,0.36938c-1.6118,1.91105 -3.52284,0.29924 -3.52284,0.29924l-1.16411,-1.00751l-0.36541,1.32048c-0.25329,1.00635 -1.12146,1.78776 -2.21342,1.88052c-1.32661,0.11269 -2.49909,-0.8322 -2.68596,-2.13338l-0.64096,-4.20366l0.02392,-0.00365l-0.03457,-0.07454c-0.05322,-0.60551 -0.11352,-1.20552 -0.18063,-1.80123l-1.66855,-0.20386c-0.34922,-0.37573 -0.76136,-0.71009 -1.1532,-1.0578c-0.32711,0.08832 -0.65048,0.13588 -0.96396,0.13047c0.51585,1.40145 1.1002,2.67356 1.69477,3.71036c0,0 1.22343,2.18019 -0.95676,3.40361c-2.18019,1.22343 -3.40361,-0.95676 -3.40361,-0.95676c-3.28691,-5.96143 -5.41419,-15.29579 -2.95849,-21.87083l0.32376,-0.81318c-0.07427,-0.20362 -0.12309,-0.42036 -0.14232,-0.64669c-0.11686,-1.37576 0.90368,-2.58577 2.27943,-2.70263c0.47362,-0.04023 0.9276,0.05433 1.32409,0.25179c0.21957,-1.054 1.10859,-1.88428 2.2363,-1.98007c0.5209,-0.04425 1.01805,0.07456 1.4411,0.31398c0.34284,-0.39593 0.72088,-0.79441 1.12434,-1.1531c0.48633,-0.18554 1.00026,-0.25731 1.54027,-0.17801c0.41302,-0.50239 1.02048,-0.84415 1.71971,-0.90355c0.7267,-0.06173 1.40716,0.19389 1.9047,0.6516c0.18112,-0.34774 0.4389,-0.60144 0.71039,-0.78617c0.20847,-0.4732 0.6189,-0.92809 1.37865,-1.2344zM267.2633,102.52378c0,0 -0.33545,-0.90299 -0.02938,-1.79615c-0.06161,-0.17667 -0.12323,-0.35334 -0.18483,-0.53c0,0 -0.10223,-0.29874 -0.12787,-0.72022c-0.19024,-0.11024 -0.35507,-0.24289 -0.4955,-0.38031c0.34718,1.404 0.65534,2.82673 0.93009,4.25888c0.17347,0.48419 0.33129,0.97365 0.46686,1.47058c0.22854,0.83765 0.36039,1.69245 0.44078,2.55638c0.24507,0.91982 0.48065,1.84422 0.69767,2.77748c-0.0948,-1.11597 -0.2199,-2.58871 -0.2827,-3.32809c-0.03078,-0.11314 -0.06216,-0.22639 -0.09417,-0.33981c-0.26469,-0.52778 -0.30644,-1.01923 -0.30644,-1.01923l-0.00124,-0.01608c-0.29289,-0.94002 -0.62909,-1.90533 -1.01329,-2.93342z" fill-opacity="0.45882" fill="#000000" stroke="none" stroke-width="0.5" stroke-linecap="butt"/><path d="M261.15958,119.70854c-1.3014,0.11055 -2.45449,-0.79668 -2.67425,-2.0596l-0.23872,-1.27924c-0.01938,-0.01634 -0.03851,-0.03297 -0.05739,-0.04989c-1.62889,0.10616 -3.35731,-0.14565 -4.9428,-0.73016l-0.39879,0.9061c-0.34744,0.83307 -1.13548,1.44876 -2.09705,1.53043c-1.31891,0.11203 -2.48548,-0.82128 -2.68261,-2.11076l-0.59224,-3.63484l0.02913,-0.00474l-0.04274,-0.09025c-0.08287,-1.09169 -0.71871,-2.29145 -0.3,-3.28512l-0.88989,-2.1796c-0.10606,-0.24345 -0.17482,-0.50809 -0.19854,-0.78735c-0.11686,-1.37576 0.90368,-2.58577 2.27943,-2.70263c0.21671,-0.01841 0.4293,-0.0086 0.63416,0.02638c2.02617,-3.28505 5.52479,-6.36243 7.77592,-8.32715c1.45462,-1.26956 2.63346,-3.68235 4.56094,-3.57036c1.67003,0.09704 2.18903,2.55688 3.01666,4.01064c0.68311,1.1999 0.95624,2.59098 1.47104,3.87214c0.24156,0.60114 0.59396,1.17904 0.92977,1.7595c0.62069,0.37279 1.0717,1.00942 1.18626,1.76921l0.60208,3.74963l-0.03619,0.00581l0.04924,0.08635c-0.00704,0.03173 -0.01408,0.06346 -0.02113,0.0952l0.03073,-0.00261l0.09712,1.14336c0.65837,-0.11695 1.28817,-0.0931 1.83459,0.25181c0.82047,0.5179 1.49326,3.1054 1.84636,5.41697c0.17769,0.3417 0.52907,1.18191 0.23405,2.04183c0.04799,0.68595 0.04722,1.23901 -0.0104,1.54889c-0.37535,2.01873 -0.23214,5.31403 -2.24127,5.7378c-2.39727,0.50564 -4.1285,-2.63925 -6.19276,-3.95887c-0.22856,-0.41615 -0.46781,-0.82708 -0.70952,-1.23682c-0.19108,1.09074 -1.0959,1.95979 -2.25123,2.05793z" fill-opacity="0.62745" fill="#000000" stroke="none" stroke-width="0.5" stroke-linecap="butt"/><path d="M253.9261,102.92004c0.33573,-0.29432 0.81049,-0.51651 1.48116,-0.57348c0.38573,-0.03277 0.71681,-0.00073 1.0009,0.07683c0.17503,-1.01439 0.96719,-1.83826 2.00475,-2.03082c-0.0336,-0.59234 -0.07479,-1.18419 -0.12518,-1.77538l0.04001,-0.1193l-0.04154,-0.00047l0.03263,-2.94279c-0.00094,-1.28574 0.98413,-2.37924 2.28855,-2.49005c0.96657,-0.0821 1.85132,0.39722 2.33265,1.16672l2.26644,3.4693l-0.03933,0.02569c0.07208,0.09283 0.14251,0.18711 0.21116,0.28297c1.91921,2.67977 1.92483,7.94661 2.78761,11.12758l-0.02723,0.11802l0.04912,-0.00871l0.54221,3.05954c0.01579,0.08361 0.02749,0.16884 0.03485,0.25546c0.10662,1.25519 -0.73354,2.37241 -1.92644,2.64734c-0.08821,0.67858 -0.32367,1.28405 -0.83041,1.74953c-0.84241,0.77383 -1.97298,1.08321 -3.18118,1.14469c-0.34423,0.23521 -0.75212,0.38742 -1.19718,0.42522c-0.73837,0.06272 -1.429,-0.20219 -1.92851,-0.6738c-0.30304,-0.05198 -0.59945,-0.10809 -0.88575,-0.16473c-0.11367,-0.02249 -0.22443,-0.05178 -0.33255,-0.08719c-0.14122,0.39696 -0.4223,0.8015 -0.92045,1.17499c-2.00025,1.49968 -3.49992,-0.50057 -3.49992,-0.50057l-1.89671,-2.63904c-0.45765,-2.22141 -1.70993,-5.01672 -2.42403,-7.5907c-0.33496,-0.56874 -0.71926,-1.21775 -1.18489,-1.98036l0.00419,-0.37846l-0.1231,0.03245l-1.26213,-4.78813c-0.04294,-0.15161 -0.07208,-0.30949 -0.08592,-0.47235c-0.11686,-1.37576 0.90368,-2.58577 2.27943,-2.70263c1.03115,-0.08759 1.96918,0.46377 2.42362,1.32476l1.92629,3.46052l-0.04314,0.02402c0.05654,0.07562 0.11197,0.1522 0.16623,0.22982c0.02821,0.04035 0.05613,0.08152 0.0838,0.12349z" fill-opacity="0.68235" fill="#000000" stroke="none" stroke-width="0.5" stroke-linecap="butt"/><path d="M238.8784,142.76124l62.35114,-24.68786l3.16695,47.35423l-128.3524,9.7621l-3.4446,-43.90862z" fill="url(#color-6)" stroke="#000000" stroke-width="2" stroke-linecap="round"/><path d="M178.35804,157.34278c4.03237,11.30763 2.80779,22.07667 -2.73516,24.05331c-5.54296,1.97665 -13.30528,-5.5876 -17.33765,-16.89523c-4.03237,-11.30763 -2.80779,-22.07667 2.73516,-24.05331c5.54296,-1.97665 13.30528,5.5876 17.33765,16.89523z" fill="url(#color-7)" stroke="#000000" stroke-width="2" stroke-linecap="butt"/><path d="M175.56582,180.8131c0,0 3.34768,-4.71531 3.94147,-7.13971c0.59357,-2.42354 -0.37939,-7.40413 -0.37939,-7.40413c0,0 -0.04304,-6.62524 -1.22985,-9.81636c-1.25302,-3.36913 -6.10043,-9.89337 -6.10043,-9.89337c0,0 -1.46408,-3.64649 -3.2024,-4.50498c-2.00665,-0.991 -8.14848,-1.10075 -8.14848,-1.10075l15.17859,-4.80943c0,0 10.93051,10.33414 13.43528,16.93225c2.47083,6.50869 1.49291,22.39179 1.49291,22.39179l-14.98771,5.34471z" fill="url(#color-8)" stroke="#000000" stroke-width="2" stroke-linecap="round"/><path d="M310.61422,128.48088c5.79694,1.0134 8.8204,11.42158 6.75307,23.24734c-2.06732,11.82576 -8.44256,20.59092 -14.23951,19.57752c-5.79694,-1.0134 -8.8204,-11.42158 -6.75307,-23.24734c2.06732,-11.82576 8.44256,-20.59092 14.23951,-19.57752z" fill="url(#color-9)" stroke="#000000" stroke-width="2" stroke-linecap="butt"/><path d="M303.0857,170.72151l-15.67447,-2.74013c0,0 -3.64293,-15.4906 -2.30533,-22.32278c1.35598,-6.92606 10.38681,-18.95579 10.38681,-18.95579l15.77233,2.18033c0,0 -6.03532,1.14412 -7.84607,2.45939c-1.56861,1.13938 -2.39666,4.98059 -2.39666,4.98059c0,0 -3.67751,7.24839 -4.3443,10.78059c-0.63156,3.34558 0.44351,9.88317 0.44351,9.88317c0,0 -0.11893,5.07334 0.87491,7.36204c0.9942,2.28952 5.08927,6.37262 5.08927,6.37262z" fill="url(#color-10)" stroke="#000000" stroke-width="2" stroke-linecap="round"/><path d="M265.48464,150.48208l-2.06829,-24.34886l5.66253,-0.481l2.06829,24.34886z" fill="#000000" stroke="none" stroke-width="0" stroke-linecap="butt"/><text transform="translate(185.0191,106.67829) rotate(-4.85528) scale(0.26204,0.26204)" font-size="40" xml:space="preserve" fill="#ff0063" fill-rule="nonzero" stroke="none" stroke-width="1" stroke-linecap="butt" stroke-linejoin="miter" stroke-miterlimit="10" stroke-dasharray="" stroke-dashoffset="0" font-family="Pixel" font-weight="normal" text-anchor="start" style="mix-blend-mode: normal"><tspan x="0" dy="0">RESTART</tspan><tspan x="0" dy="46.150000000000006px">SERVER</tspan></text></g><g><path d="M230.73159,116.17642c-0.17288,-1.29439 0.73628,-2.48384 2.03066,-2.65672c1.29438,-0.17288 2.48384,0.73627 2.65672,2.03066c0.17288,1.29438 -0.73628,2.48384 -2.03066,2.65672c-1.29438,0.17288 -2.48384,-0.73628 -2.65672,-2.03066z" fill="#ff0063" stroke="#000000" stroke-width="0" stroke-linecap="butt"/><path d="M236.44771,118.47937c-0.70492,0.9554 -1.78156,1.63473 -3.05137,1.80433c-1.07205,0.14319 -2.10661,-0.10034 -2.96307,-0.62313" fill="none" stroke="#ff0063" stroke-width="1.5" stroke-linecap="butt"/><path d="M234.69066,126.8056l-0.91372,-6.26494" fill="none" stroke="#ff0063" stroke-width="1.5" stroke-linecap="round"/><path d="M229.73379,126.85318l0.96337,-6.25749" fill="none" stroke="#ff0063" stroke-width="1.5" stroke-linecap="round"/><path d="M237.00154,121.075c-0.70492,0.95541 -1.78156,1.63473 -3.05137,1.80433c-1.07205,0.14319 -2.10661,-0.10033 -2.96307,-0.62313" fill="none" stroke="#ff0063" stroke-width="1.5" stroke-linecap="butt"/><path d="M237.65609,123.27242c-0.87827,0.97857 -2.198,1.69035 -3.73695,1.8959c-1.29927,0.17354 -2.54247,-0.04212 -3.56274,-0.54303" fill="none" stroke="#ff0063" stroke-width="1.5" stroke-linecap="butt"/><path d="M236.36922,119.19878l2.57186,5.78532" data-paper-data="{&quot;index&quot;:null}" fill="none" stroke="#ff0063" stroke-width="1.5" stroke-linecap="round"/><path d="M228.90767,114.91287c0.78277,-1.43865 1.92642,-2.4601 3.31351,-2.78823c1.64295,-0.38866 3.30942,0.27062 4.66125,1.64514" data-paper-data="{&quot;index&quot;:null}" fill="none" stroke="#ff0063" stroke-width="1.5" stroke-linecap="butt"/><path d="M226.81927,112.70565c1.209,-1.49558 2.91231,-2.59179 4.92499,-3.00348c2.38394,-0.48763 4.74051,0.07948 6.6031,1.38577" data-paper-data="{&quot;index&quot;:null}" fill="none" stroke="#ff0063" stroke-width="1.5" stroke-linecap="butt"/></g></g></g></svg>