<svg version="1.1" xmlns="http://www.w3.org/2000/svg" xmlns:xlink="http://www.w3.org/1999/xlink" width="164.10183" height="259.71402" viewBox="0,0,164.10183,259.71402"><defs><linearGradient x1="240.56006" y1="177.64296" x2="240.56006" y2="208.27114" gradientUnits="userSpaceOnUse" id="color-1"><stop offset="0" stop-color="#000000"/><stop offset="1" stop-color="#6700b5"/></linearGradient><linearGradient x1="269.9362" y1="60.53535" x2="250.08089" y2="180.00032" gradientUnits="userSpaceOnUse" id="color-2"><stop offset="0" stop-color="#000000"/><stop offset="1" stop-color="#007500"/></linearGradient><linearGradient x1="265.84089" y1="93.32968" x2="253.26321" y2="169.0068" gradientUnits="userSpaceOnUse" id="color-3"><stop offset="0" stop-color="#ff0000"/><stop offset="1" stop-color="#000000"/></linearGradient><linearGradient x1="264.91734" y1="89.5598" x2="255.70759" y2="144.97279" gradientUnits="userSpaceOnUse" id="color-4"><stop offset="0" stop-color="#000000"/><stop offset="1" stop-color="#c5f4ff"/></linearGradient><linearGradient x1="257.8291" y1="136.12259" x2="250.04914" y2="182.93285" gradientUnits="userSpaceOnUse" id="color-5"><stop offset="0" stop-color="#000000"/><stop offset="1" stop-color="#1a1a23"/></linearGradient><linearGradient x1="185.84071" y1="134.54809" x2="178.89043" y2="176.36637" gradientUnits="userSpaceOnUse" id="color-6"><stop offset="0" stop-color="#000000"/><stop offset="1" stop-color="#dfdaba"/></linearGradient><linearGradient x1="194.16782" y1="133.01822" x2="186.87136" y2="176.91944" gradientUnits="userSpaceOnUse" id="color-7"><stop offset="0" stop-color="#000000"/><stop offset="1" stop-color="#a6a38a"/></linearGradient><linearGradient x1="322.82466" y1="158.06302" x2="315.87438" y2="199.8813" gradientUnits="userSpaceOnUse" id="color-8"><stop offset="0" stop-color="#000000"/><stop offset="1" stop-color="#dfdaba"/></linearGradient><linearGradient x1="315.44009" y1="153.92185" x2="308.14362" y2="197.82308" gradientUnits="userSpaceOnUse" id="color-9"><stop offset="0" stop-color="#000000"/><stop offset="1" stop-color="#a6a38a"/></linearGradient></defs><g transform="translate(-170.75625,-48.786)"><g data-paper-data="{&quot;isPaintingLayer&quot;:true}" fill-rule="nonzero" stroke-linejoin="miter" stroke-miterlimit="10" stroke-dasharray="" stroke-dashoffset="0" style="mix-blend-mode: normal"><path d="M206.75009,307.50001l15.14285,-131.8421l37.78325,-0.15789l13.57389,132z" fill="#131313" stroke="#000000" stroke-width="2" stroke-linecap="butt"/><path d="M211.80172,263.57743l10.20803,-87.78121l37.78325,-0.15789l8.99156,88.2916z" fill="#9200ff" stroke="#000000" stroke-width="2" stroke-linecap="butt"/><path d="M219.70031,204.11264l3.12142,-26.32765l35.83075,-0.14203l2.76735,26.1059c0,0 -7.51543,4.19603 -21.55904,4.50964c-12.48458,0.27879 -20.16049,-4.14586 -20.16049,-4.14586z" fill="url(#color-1)" stroke="#000000" stroke-width="0" stroke-linecap="butt"/><path d="M227.50708,176.65644h25.10959" fill="none" stroke="#000000" stroke-width="2" stroke-linecap="round"/><path d="M223.53176,220.69562v-42.4718h6.35092v42.4718z" fill="#9200ff" stroke="#000000" stroke-width="2" stroke-linecap="butt"/><path d="M249.95689,220.84354v-42.4718h6.35092v42.4718z" fill="#9200ff" stroke="#000000" stroke-width="2" stroke-linecap="butt"/><path d="M232.75053,269.84781v-89.35549h14.45197v89.35549z" fill="#131313" stroke="none" stroke-width="0" stroke-linecap="butt"/><g><path d="M186.30941,169.40138l19.85531,-119.46496l127.54294,21.19789l-19.85531,119.46496zM301.87797,115.79142c0.90549,-5.44812 -2.77704,-10.59872 -8.22515,-11.50421c-4.03964,-0.6714 -7.9157,1.17962 -10.01896,4.40249c-1.4005,-1.33541 -3.20265,-2.2793 -5.25548,-2.62048c-5.44811,-0.90549 -10.59872,2.77704 -11.50421,8.22515c-0.39618,2.38375 0.08595,4.71055 1.21001,6.64975c-2.03625,1.48949 -3.51388,3.74589 -3.96019,6.43122c-0.90549,5.44812 2.77705,10.59873 8.22515,11.50421c1.23679,0.20556 2.45825,0.17467 3.61819,-0.05963c0.62915,4.16659 3.8689,7.64096 8.25076,8.36924c1.56306,0.25978 3.10163,0.14192 4.52249,-0.28693c4.70717,-0.0985 8.82804,-3.52543 9.63988,-8.33412c1.13616,-1.334 1.93617,-2.98383 2.24437,-4.83822c0.37654,-2.26553 -0.04029,-4.47962 -1.04754,-6.35841c0.37963,-0.80994 0.65605,-1.6847 0.80991,-2.61044c0.26841,-1.61497 0.13368,-3.2038 -0.33068,-4.66365c0.91162,-1.23117 1.55304,-2.691 1.82145,-4.30597z" fill="url(#color-2)" stroke="#000000" stroke-width="2" stroke-linecap="butt"/><path d="M259.97497,96.0361c1.98517,-2.02089 3.53173,0.25115 3.53173,0.25115c1.76734,3.16057 4.32384,1.4104 7.27698,2.62096c1.35619,0.55592 2.45792,1.73647 3.76788,2.41969c3.4271,1.78741 7.69729,1.23553 11.36292,1.46786c2.70755,0.17159 5.25033,1.70946 7.94515,1.68926c3.47141,-0.02602 9.90818,-5.24201 12.79742,-0.61904c0.18007,0.28814 0.30513,0.67444 0.38627,1.13475c0.48996,0.99109 0.7007,2.09821 0.55492,3.22547l-0.62894,5.09335c-0.06005,1.20713 -0.13634,2.41333 -0.21363,3.61949c0.03137,0.40832 -0.00245,0.82321 -0.07935,1.2424c-0.06469,1.02431 -0.12633,2.04877 -0.17559,3.07394c0.00587,0.10397 0.01152,0.20805 0.01692,0.31224c0.29123,-0.05141 0.59171,-0.09427 0.90182,-0.12815c3.56583,-0.38949 6.06545,3.9975 8.04031,6.77028c2.39018,3.35592 2.06871,8.56511 2.56286,12.35924c0.36972,2.83878 1.69979,5.68556 1.32554,8.49873c-0.00565,0.04247 -0.01142,0.08492 -0.01729,0.12735l0.0325,-0.00178l0.86263,7.87423c0.07147,0.5332 0.06588,1.08103 -0.02574,1.63234c-0.55313,3.32807 -4.03258,5.52225 -7.77155,4.90083c-0.19071,-0.0317 -0.37842,-0.07011 -0.56285,-0.11491l-0.61785,2.47358c-0.74385,3.1146 -4.09952,5.12092 -7.69522,4.5233c-0.44173,-0.07342 -0.86731,-0.18284 -1.27349,-0.32424l-0.12979,0.78092c-0.55313,3.32807 -4.03258,5.52224 -7.77155,4.90082c-3.04541,-0.50615 -5.3237,-2.72412 -5.76524,-5.32789l-0.57039,-2.90893l0.23921,-0.02975l-0.30017,-0.3492c-0.10229,-1.74702 -0.36701,-3.49673 -0.57436,-5.24443l-0.01791,0.02064c-1.44919,1.74238 -3.93572,2.6835 -6.54903,2.24916c-2.84704,-0.47318 -5.02362,-2.44242 -5.65586,-4.82433l-0.97702,-3.34686c-0.40434,-1.11248 -0.97351,-2.32399 -1.57662,-3.58914l-0.28229,1.69849c-0.55313,3.32807 -4.03258,5.52224 -7.77155,4.90082c-3.44803,-0.57307 -5.91267,-3.34047 -5.84158,-6.37773l0.02277,-4.09617c-1.2251,0.52016 -2.6506,0.70909 -4.11596,0.46555c-2.70261,-0.44918 -4.80106,-2.24647 -5.54784,-4.46517l-1.84597,-5.10279l0.28131,-0.07305l-0.47509,-0.58007c-0.0041,-0.03614 -0.00818,-0.07227 -0.01224,-0.10841l-0.69455,2.06929c-0.91518,2.89696 -4.14249,4.71834 -7.59052,4.14527c-1.37039,-0.22776 -2.58545,-0.80215 -3.54772,-1.60233c-1.47882,1.26427 -3.60737,1.88793 -5.82742,1.51895c-2.84704,-0.47318 -5.02362,-2.44241 -5.65586,-4.82432l-1.01554,-3.4788c-0.16447,-0.5635 -0.37587,-1.28495 -0.61261,-2.09566c-0.08023,0.45202 -0.18053,0.90077 -0.30535,1.34556l-0.51093,9.66417c-0.00893,0.22797 -0.03217,0.45736 -0.0704,0.68735c-0.55313,3.32807 -4.03258,5.52224 -7.77155,4.90082c-0.20048,-0.03332 -0.39763,-0.07405 -0.59115,-0.12183l-0.14304,2.91714c-0.00824,0.23553 -0.03175,0.47261 -0.07125,0.71032c-0.55313,3.32807 -4.03258,5.52224 -7.77155,4.90082c-3.17364,-0.52746 -5.51418,-2.91393 -5.81116,-5.65873l-0.72004,-5.39747l0.11307,-0.00831l-0.13679,-0.19898c-1.01605,-17.61385 -0.82611,-35.84894 2.02719,-53.19851c0,0 1.00153,-6.02601 7.77155,-4.90082c6.77001,1.12519 5.76848,7.1512 5.76848,7.1512c-0.22207,1.32015 -0.42708,2.64656 -0.61586,3.97837c1.73412,0.96311 2.95176,2.56028 3.29878,4.35253l0.25911,1.17594c0.98191,-0.43475 1.99792,-0.74157 2.9914,-0.85119c-0.12072,-0.62206 -0.22157,-1.24646 -0.29656,-1.87391l-3.45761,-7.57066c-0.49415,-1.03179 -0.68699,-2.18568 -0.49262,-3.35516c0.55313,-3.32807 4.03258,-5.52224 7.77155,-4.90082c0.9992,0.16607 1.91583,0.5164 2.71209,1.00419c0.32036,0.01248 0.64447,0.04527 0.97055,0.09946c3.04541,0.50615 5.3237,2.72412 5.76524,5.32789l0.52341,2.66936c0.98573,1.43275 1.10398,3.1629 1.43033,4.83324l-0.00003,0.00005c1.63237,2.99189 3.30361,5.96899 4.78244,9.01931c0.20005,0.41264 0.50698,0.9399 0.84576,1.5184c0.50764,-1.28741 1.00286,-2.57788 1.33683,-3.91285c0.80687,-3.22534 0.06221,-6.87426 1.66418,-9.82762c0.12094,-0.22298 0.25073,-0.44047 0.38841,-0.65307l-0.11646,-0.04701l1.65629,-3.53184c1.13017,-2.56979 4.15932,-4.12495 7.38117,-3.58947c2.25515,0.37481 4.08962,1.68828 5.06914,3.40198l1.49484,2.54699c0.15832,-0.35022 0.39553,-0.7059 0.7376,-1.05412z" fill="url(#color-3)" stroke="none" stroke-width="0.5" stroke-linecap="butt"/><path d="M317.3306,98.27099c6.35092,1.05554 10.61396,7.01812 9.55842,13.36902l-5.39916,32.48554c-1.05553,6.3509 -7.01812,10.61397 -13.36901,9.55843l-104.82652,-17.42237c-6.3509,-1.05553 -10.61398,-7.01812 -9.55844,-13.36902l5.39916,-32.48554c1.05553,-6.35089 7.01813,-10.61396 13.36903,-9.55843zM301.87797,115.79142c0.90549,-5.44812 -2.77704,-10.59872 -8.22515,-11.50421c-4.03964,-0.6714 -7.9157,1.17962 -10.01896,4.40249c-1.4005,-1.33541 -3.20265,-2.2793 -5.25548,-2.62048c-5.44811,-0.90549 -10.59872,2.77704 -11.50421,8.22515c-0.39618,2.38375 0.08595,4.71055 1.21001,6.64975c-2.03625,1.48949 -3.51388,3.74589 -3.96019,6.43122c-0.90549,5.44812 2.77705,10.59873 8.22515,11.50421c1.23679,0.20556 2.45825,0.17467 3.61819,-0.05963c0.62915,4.16659 3.8689,7.64096 8.25076,8.36924c1.56306,0.25978 3.10163,0.14192 4.52249,-0.28693c4.70717,-0.0985 8.82804,-3.52543 9.63988,-8.33412c1.13616,-1.334 1.93617,-2.98383 2.24437,-4.83822c0.37654,-2.26553 -0.04029,-4.47962 -1.04754,-6.35841c0.37963,-0.80994 0.65605,-1.6847 0.80991,-2.61044c0.26841,-1.61497 0.13368,-3.2038 -0.33068,-4.66365c0.91162,-1.23117 1.55304,-2.691 1.82145,-4.30597z" fill="url(#color-4)" stroke="#000000" stroke-width="2" stroke-linecap="butt"/><path d="M220.60522,88.34465l84.48966,14.04235c5.1188,0.85076 8.5548,5.65657 7.70405,10.77536l-4.3517,26.18318c-0.85075,5.11879 -5.65657,8.5548 -10.77536,7.70405l-3.09874,-0.51502c0.77925,-0.95904 1.42519,-2.19358 1.87991,-3.54014c0.83552,-1.08613 1.45764,-2.35799 1.79251,-3.76278c0.5991,-0.78388 1.08732,-1.6638 1.43713,-2.62004c0.448,-0.88474 0.77094,-1.85168 0.94214,-2.88173c0.37654,-2.26553 -0.04029,-4.47962 -1.04754,-6.35841c0.37963,-0.80994 0.65605,-1.6847 0.80991,-2.61044c0.21724,-1.30709 0.1704,-2.59706 -0.10155,-3.81539c0.06092,-0.44646 0.09879,-0.894 0.11249,-1.33989c0.73047,-1.12176 1.24631,-2.40934 1.47983,-3.81434c0.13427,-0.80787 0.16766,-1.6092 0.10937,-2.39111c-0.14341,-1.92362 -0.84169,-3.72977 -1.95783,-5.22676c-1.48451,-2.16649 -3.81505,-3.74864 -6.6104,-4.21323c-4.01691,-0.66762 -7.8721,1.15888 -9.98331,4.34825c-1.32314,-1.10877 -2.95095,-1.88924 -4.77712,-2.19276c-0.0468,-0.00778 -0.09356,-0.01522 -0.14031,-0.02232c-0.04653,-0.0084 -0.0932,-0.01649 -0.13999,-0.02427c-5.44812,-0.90549 -10.59872,2.77704 -11.50421,8.22515c-0.39618,2.38375 0.08595,4.71055 1.21001,6.64975c-2.03625,1.48949 -3.51388,3.74589 -3.96019,6.43122c-0.90549,5.44812 2.77704,10.59872 8.22515,11.50421c0.09374,0.01558 0.1874,0.0298 0.28095,0.04268c0.67987,0.09359 1.35404,0.1162 2.01477,0.07334c0.50896,0.52775 1.07731,1.00135 1.69682,1.40926c0.40861,1.25872 1.06269,2.42013 1.91479,3.41789l-65.07426,-10.81547c-5.11879,-0.85075 -8.55481,-5.65657 -7.70406,-10.77536l4.3517,-26.18318c0.85075,-5.11879 5.65658,-8.5548 10.77537,-7.70405z" fill="#000000" stroke="#000000" stroke-width="0" stroke-linecap="butt"/><path d="M289.43659,109.57315c1.40197,-0.18872 2.11743,0.52265 2.47441,1.17592c0.02564,0.00702 0.05345,0.01501 0.08315,0.02404c0.90008,-0.01382 1.62842,0.51538 1.62842,0.51538c0.90606,0.73674 2.11676,1.2092 2.71818,2.21021c0.62785,1.045 0.50615,2.38509 0.75922,3.57764l0.14054,0.88749c0,0 0.06435,0.40638 -0.02402,0.91552c0.71307,0.68235 0.79524,1.70377 0.79524,1.70377c0.09589,1.26978 0.1918,2.53956 0.28769,3.80935l-0.36509,2.2892c0.23629,5.52115 -0.50333,10.30345 -3.4071,15.50692l-2.39838,-1.29776c-0.64763,0.25547 -1.29527,0.51093 -1.94289,0.7664l-3.00905,-0.13895c0,0 -0.49506,-0.08228 -1.00471,-0.39492c-0.10426,0.09893 -0.22196,0.19613 -0.35447,0.29088c-2.03368,1.45402 -3.48769,-0.57966 -3.48769,-0.57966l-0.87937,-1.2637l-0.68007,1.18941c-0.49388,0.91268 -1.52808,1.45559 -2.60914,1.27592c-1.31337,-0.21829 -2.21631,-1.42337 -2.07619,-2.7304l0.41659,-4.23179l0.02408,0.00237l-0.0151,-0.08077c0.0979,-0.59991 0.18758,-1.19623 0.26961,-1.79008l-1.56659,-0.60944c-0.24566,-0.45031 -0.56251,-0.87606 -0.85638,-1.30974c-0.33879,0.00484 -0.6639,-0.0289 -0.96633,-0.11153c0.15392,1.48542 0.40615,2.86241 0.72639,4.0139c0,0 0.64737,2.41473 -1.76736,3.06209c-2.41473,0.64737 -3.06209,-1.76736 -3.06209,-1.76736c-1.71355,-6.58833 -1.47073,-16.15895 2.53207,-21.92428l0.51449,-0.70809c-0.02171,-0.21566 -0.01551,-0.43774 0.02173,-0.66181c0.22637,-1.36203 1.51403,-2.28266 2.87605,-2.05629c0.4689,0.07793 0.88548,0.28164 1.22096,0.57086c0.47296,-0.96717 1.53944,-1.5523 2.65589,-1.36674c0.51571,0.08571 0.96814,0.32357 1.31899,0.66001c0.42997,-0.29904 0.89467,-0.59186 1.37419,-0.83986c0.51708,-0.05974 1.03282,-0.00243 1.53654,0.20773c0.52426,-0.38488 1.19729,-0.56611 1.88953,-0.45106c0.71945,0.11957 1.31575,0.53526 1.6849,1.10162c0.26135,-0.29227 0.57379,-0.47448 0.88248,-0.58647c0.31883,-0.4071 0.82885,-0.74659 1.6407,-0.85586zM292.66119,123.29113c0,0 -0.10216,-0.95785 0.41492,-1.74781c-0.0161,-0.18641 -0.03219,-0.37282 -0.04828,-0.55922c0,0 -0.02532,-0.31473 0.05388,-0.7295c-0.15714,-0.15379 -0.28412,-0.32302 -0.38628,-0.49085c-0.01016,1.44626 -0.06274,2.90102 -0.15004,4.35667c0.04858,0.51203 0.08068,1.0253 0.08939,1.54032c0.01468,0.86815 -0.06856,1.72904 -0.20392,2.58607c0.01042,0.95185 0.01051,1.90579 -0.00957,2.86374c0.18363,-1.10483 0.42595,-2.56287 0.54762,-3.29488c-0.00189,-0.11724 -0.00435,-0.23473 -0.00737,-0.35254c-0.12621,-0.57679 -0.04535,-1.06333 -0.04535,-1.06333l0.00277,-0.01589c-0.05178,-0.98323 -0.13928,-2.00166 -0.25779,-3.09278z" fill-opacity="0.45882" fill="#000000" stroke="none" stroke-width="0.5" stroke-linecap="butt"/><path d="M282.50418,138.43729c-1.28842,-0.21414 -2.18186,-1.37794 -2.08305,-2.65602l0.08446,-1.29857c-0.01475,-0.02062 -0.02918,-0.04145 -0.0433,-0.06251c-1.60468,-0.29923 -3.21745,-0.96992 -4.60958,-1.92773l-0.61013,0.77962c-0.54233,0.72152 -1.45798,1.12361 -2.40995,0.9654c-1.30575,-0.21702 -2.20582,-1.40942 -2.07853,-2.70766l0.32338,-3.66854l0.0294,0.0026l-0.01914,-0.098c0.18919,-1.07836 -0.1308,-2.39795 0.52025,-3.2575l-0.3243,-2.33182c-0.04268,-0.26209 -0.04399,-0.53552 0.00197,-0.812c0.22637,-1.36203 1.51403,-2.28266 2.87605,-2.05629c0.21455,0.03566 0.41814,0.09765 0.60802,0.18211c2.7744,-2.68321 6.92443,-4.80168 9.59089,-6.14988c1.72301,-0.87119 3.46098,-2.91829 5.30116,-2.33395c1.59439,0.5063 1.49009,3.01813 1.93324,4.63121c0.36576,1.33139 0.28704,2.74685 0.46965,4.11544c0.08568,0.64217 0.28453,1.28917 0.46665,1.93457c0.50945,0.51448 0.78935,1.24274 0.7128,2.0073l-0.34218,3.78221l-0.0365,-0.0033l0.02639,0.09583c-0.01465,0.02901 -0.02931,0.05802 -0.04398,0.08704l0.03042,0.00506l-0.18813,1.13195c0.66687,0.04919 1.27129,0.22777 1.71565,0.6969c0.66723,0.70442 0.68045,3.37791 0.452,5.70512c0.08784,0.37499 0.22094,1.27594 -0.27724,2.03641c-0.12283,0.67657 -0.2601,1.21232 -0.39243,1.49839c-0.86208,1.8636 -1.53677,5.09226 -3.58833,5.00695c-2.44789,-0.1018 -3.34921,-3.57672 -5.02382,-5.36508c-0.11876,-0.45969 -0.24916,-0.91697 -0.38224,-1.3737c-0.45442,1.00981 -1.54577,1.6286 -2.68957,1.4385z" fill-opacity="0.62745" fill="#000000" stroke="none" stroke-width="0.5" stroke-linecap="butt"/><path d="M279.63894,120.38271c0.398,-0.20233 0.91291,-0.30045 1.57689,-0.1901c0.38188,0.06347 0.69481,0.17624 0.95096,0.32153c0.42003,-0.93979 1.39105,-1.54261 2.44403,-1.47308c0.11367,-0.5823 0.21985,-1.166 0.31697,-1.75133l0.06822,-0.10574l-0.04014,-0.01071l0.75807,-2.84366c0.31649,-1.24618 1.54101,-2.06267 2.83241,-1.84804c0.95692,0.15904 1.69597,0.84194 1.97244,1.70645l1.33987,3.92142l-0.04445,0.01519c0.04693,0.10775 0.09191,0.2165 0.13477,0.32634c1.19829,3.0706 -0.09643,8.17583 -0.0456,11.47134l-0.05552,0.10764l0.04975,0.00369l-0.22984,3.0987c-0.00534,0.08492 -0.01504,0.1704 -0.02929,0.25615c-0.20653,1.24266 -1.29649,2.11791 -2.52034,2.08985c-0.253,0.6358 -0.63063,1.16441 -1.2366,1.49039c-1.00736,0.54192 -2.17932,0.56264 -3.3653,0.32396c-0.39164,0.14295 -0.82448,0.18976 -1.26509,0.11653c-0.731,-0.12149 -1.33486,-0.54869 -1.70249,-1.12902c-0.28083,-0.12518 -0.55421,-0.25272 -0.81767,-0.37829c-0.1046,-0.04985 -0.2047,-0.10558 -0.30074,-0.16658c-0.23484,0.34981 -0.60708,0.67245 -1.18202,0.91141c-2.30855,0.95949 -3.26803,-1.34906 -3.26803,-1.34906l-1.18654,-3.02559c0.10489,-2.26563 -0.41859,-5.28357 -0.47518,-7.95417c-0.18419,-0.63383 -0.39639,-1.35762 -0.65935,-2.21157l0.09749,-0.36572l-0.1273,0.00105l-0.04108,-4.95151c-0.00418,-0.15752 0.00655,-0.31771 0.03335,-0.47894c0.22637,-1.36203 1.51403,-2.28266 2.87605,-2.05629c1.02086,0.16967 1.79375,0.93553 2.02159,1.88205l1.01241,3.82894l-0.04774,0.01262c0.03613,0.08723 0.07094,0.17513 0.10435,0.26374c0.01737,0.04606 0.03427,0.09286 0.05072,0.14036z" fill-opacity="0.68235" fill="#000000" stroke="none" stroke-width="0.5" stroke-linecap="butt"/><path d="M255.22181,155.27624l66.51588,-8.5319l-8.62086,46.67048l-126.78995,-22.22491l7.50122,-43.40005z" fill="url(#color-5)" stroke="#000000" stroke-width="2" stroke-linecap="round"/><path d="M192.97488,154.46653c1.11619,11.9531 -2.72892,22.08656 -8.58828,22.6337c-5.85937,0.54715 -11.51416,-8.6992 -12.63035,-20.6523c-1.11619,-11.9531 2.72892,-22.08656 8.58828,-22.6337c5.85937,-0.54715 11.51416,8.6992 12.63035,20.6523z" fill="url(#color-6)" stroke="#000000" stroke-width="2" stroke-linecap="butt"/><path d="M184.47523,176.52119c0,0 4.40809,-3.74297 5.58199,-5.94576c1.17347,-2.202 1.46012,-7.26864 1.46012,-7.26864c0,0 1.59379,-6.43082 1.23146,-9.81616c-0.38254,-3.57417 -3.46937,-11.09313 -3.46937,-11.09313c0,0 -0.5186,-3.89505 -1.9912,-5.15609c-1.69991,-1.45569 -7.62456,-3.0782 -7.62456,-3.0782l15.89608,-0.91362c0,0 8.04115,12.71261 8.83961,19.72483c0.78763,6.9172 -4.0809,22.06734 -4.0809,22.06734l-15.84325,1.47945z" fill="url(#color-7)" stroke="#000000" stroke-width="2" stroke-linecap="round"/><path d="M328.26273,159.14645c5.36737,2.41306 5.7279,13.24549 0.80527,24.19493c-4.92263,10.94944 -13.26432,17.86954 -18.6317,15.45648c-5.36737,-2.41306 -5.7279,-13.24549 -0.80527,-24.19493c4.92263,-10.94944 13.26432,-17.86954 18.6317,-15.45648z" fill="url(#color-8)" stroke="#000000" stroke-width="2" stroke-linecap="butt"/><path d="M310.53975,198.2213l-14.51294,-6.5247c0,0 0.29381,-15.91048 3.27659,-22.20101c3.02377,-6.37698 14.74475,-15.80507 14.74475,-15.80507l14.74597,6.00638c0,0 -6.13097,-0.38116 -8.21037,0.44641c-1.80133,0.7169 -3.55199,4.23482 -3.55199,4.23482c0,0 -5.35302,6.11624 -6.87113,9.37452c-1.4379,3.08613 -2.00996,9.68678 -2.00996,9.68678c0,0 -1.36765,4.88697 -0.96955,7.35017c0.39824,2.46409 3.35863,7.43172 3.35863,7.43172z" fill="url(#color-9)" stroke="#000000" stroke-width="2" stroke-linecap="round"/><path d="M279.09867,169.32613l4.00644,-24.10588l5.60602,0.93173l-4.00644,24.10588z" fill="#000000" stroke="none" stroke-width="0" stroke-linecap="butt"/><text transform="translate(211.93676,107.01437) rotate(9.4359) scale(0.26204,0.26204)" font-size="40" xml:space="preserve" fill="#ff0063" fill-rule="nonzero" stroke="none" stroke-width="1" stroke-linecap="butt" stroke-linejoin="miter" stroke-miterlimit="10" stroke-dasharray="" stroke-dashoffset="0" font-family="Pixel" font-weight="normal" text-anchor="start" style="mix-blend-mode: normal"><tspan x="0" dy="0">RESTART</tspan><tspan x="0" dy="46.150000000000006px">SERVER..</tspan></text></g><g><path d="M255.78249,126.03372c0.31573,-1.26713 1.59891,-2.03839 2.86604,-1.72266c1.26713,0.31574 2.03839,1.5989 1.72266,2.86603c-0.31573,1.26713 -1.5989,2.0384 -2.86603,1.72266c-1.26713,-0.31574 -2.0384,-1.59891 -1.72267,-2.86603z" fill="#ff0063" stroke="#000000" stroke-width="0" stroke-linecap="butt"/><path d="M260.24949,130.27912c-1.00711,0.62883 -2.25823,0.86413 -3.5013,0.55439c-1.04949,-0.2615 -1.92175,-0.86876 -2.52562,-1.67011" fill="none" stroke="#ff0063" stroke-width="1.5" stroke-linecap="butt"/><path d="M257.00748,131.21254l-1.45664,6.16138" fill="none" stroke="#ff0063" stroke-width="1.5" stroke-linecap="round"/><path d="M250.92453,135.59347l3.19917,-5.46348" fill="none" stroke="#ff0063" stroke-width="1.5" stroke-linecap="round"/><path d="M259.80896,132.89636c-1.00711,0.62884 -2.25824,0.86413 -3.50131,0.55438c-1.04949,-0.2615 -1.92175,-0.86875 -2.52562,-1.67011" fill="none" stroke="#ff0063" stroke-width="1.5" stroke-linecap="butt"/><path d="M259.60866,135.18043c-1.17682,0.58655 -2.66591,0.76254 -4.17245,0.38716c-1.27192,-0.31692 -2.34844,-0.97508 -3.11267,-1.81638" fill="none" stroke="#ff0063" stroke-width="1.5" stroke-linecap="butt"/><path d="M259.91171,130.91913l0.26162,6.3258" data-paper-data="{&quot;index&quot;:null}" fill="none" stroke="#ff0063" stroke-width="1.5" stroke-linecap="round"/><path d="M254.55177,124.18748c1.25739,-1.04949 2.69675,-1.57822 4.10722,-1.37271c1.67065,0.24343 2.97742,1.46986 3.72835,3.24548" data-paper-data="{&quot;index&quot;:null}" fill="none" stroke="#ff0063" stroke-width="1.5" stroke-linecap="butt"/><path d="M253.42252,121.3665c1.67465,-0.94552 3.66188,-1.33774 5.68478,-0.97963c2.39604,0.42417 4.37838,1.81893 5.62932,3.71914" data-paper-data="{&quot;index&quot;:null}" fill="none" stroke="#ff0063" stroke-width="1.5" stroke-linecap="butt"/></g></g></g></svg>