<svg version="1.1" xmlns="http://www.w3.org/2000/svg" xmlns:xlink="http://www.w3.org/1999/xlink" width="35.625" height="35.62434" viewBox="0,0,35.625,35.62434"><g transform="translate(-221.93752,-161.93783)"><g stroke-miterlimit="10"><path d="M257.56251,169.8317v20.49804c0,4.00745 -3.22497,7.23243 -7.23242,7.23243h-20.5c-3.66107,0 -6.66147,-2.69385 -7.1543,-6.21484c0.7952,3.03475 3.54108,5.26367 6.83204,5.26367h20.0332c3.9166,0 7.07032,-3.15372 7.07032,-7.07031v-20.03321c0,-3.2976 -2.23906,-6.0451 -5.28321,-6.83398c3.52994,0.48496 6.23438,3.49081 6.23438,7.15821z" fill-opacity="0.29839" fill="#000000" fill-rule="evenodd" stroke="none" stroke-width="4.54219" stroke-linecap="round" stroke-linejoin="round"/><path d="M229.50719,162.43783h20.03378c3.9166,0 7.06966,3.15307 7.06966,7.06966v20.03379c0,3.91659 -3.15307,7.06966 -7.06966,7.06966h-20.03378c-3.91659,0 -7.06967,-3.15307 -7.06967,-7.06966v-20.03379c0,-3.91659 3.15308,-7.06966 7.06967,-7.06966z" fill="#000000" fill-rule="evenodd" stroke="#ffffff" stroke-width="1" stroke-linecap="round" stroke-linejoin="round"/><path d="M229.48314,162.41347h20.03378c3.9166,0 7.06966,3.15307 7.06966,7.06966v20.03379c0,3.91659 -3.15306,7.06966 -7.06966,7.06966h-20.03378c-3.91659,0 -7.06967,-3.15307 -7.06967,-7.06966v-20.03379c0,-3.91659 3.15308,-7.06966 7.06967,-7.06966z" fill-opacity="0.09677" fill="#191919" fill-rule="evenodd" stroke="none" stroke-width="4.43922" stroke-linecap="round" stroke-linejoin="round"/><g fill-rule="nonzero" stroke-linejoin="miter"><path d="M226.09088,179.18182c0,-7.60647 6.1052,-13.77273 13.63636,-13.77273c7.53116,0 13.63636,6.16626 13.63636,13.77273c0,7.60647 -6.10521,13.77273 -13.63636,13.77273c-7.53116,0 -13.63636,-6.16626 -13.63636,-13.77273z" fill="#ffff00" stroke="none" stroke-width="0" stroke-linecap="butt"/><path d="M227.84605,179.18182c0,-6.62742 5.31939,-12 11.88119,-12c6.5618,0 11.88119,5.37258 11.88119,12c0,6.62742 -5.31939,12 -11.88119,12c-6.5618,0 -11.88119,-5.37258 -11.88119,-12z" fill="#000000" stroke="none" stroke-width="0" stroke-linecap="butt"/><path d="M224.77273,180.59095c0,0 10.22065,3.42636 15.18068,3.45707c4.82407,0.02987 14.00114,-3.72979 14.00114,-3.72979" fill="none" stroke="#ff7b00" stroke-width="5" stroke-linecap="round"/></g></g></g></svg>