<svg version="1.1" xmlns="http://www.w3.org/2000/svg" xmlns:xlink="http://www.w3.org/1999/xlink" width="176.02009" height="267.22501" viewBox="0,0,176.02009,267.22501"><g transform="translate(-146.11727,-45.80536)"><g stroke-miterlimit="10"><path d="M180.73912,313.03037v-267.22501h123.18203v267.22501z" fill-opacity="0.01" fill="#000000" stroke="none" stroke-width="0"/><path d="M207.75006,307.5l15.14285,-131.8421l37.78325,-0.15789l13.57389,132z" fill="#7a7d5f" stroke="#000000" stroke-width="2"/><path d="M220.66657,203.62949l3.12142,-26.32765l35.83075,-0.14203l2.76735,26.1059c0,0 -7.51543,4.19603 -21.55904,4.50964c-12.48458,0.27879 -20.16049,-4.14586 -20.16049,-4.14586z" fill="#60624b" stroke="#000000" stroke-width="0"/><path d="M176.56302,136.9c0,-0.72799 5.20666,55.91939 63.36046,56.93429c55.56352,0.9697 63.51358,-57.95314 63.51358,-56.93429c0,32.80479 -28.40173,59.39833 -63.43702,59.39833c-35.03529,0 -63.43702,-26.59354 -63.43702,-59.39833z" fill="#535457" stroke="#000000" stroke-width="0"/><g stroke="#000000" stroke-width="2"><path d="M184.46385,119.32315c-4.80763,10.5572 -16.61007,16.46816 -26.36146,13.2025c-9.75139,-3.26566 -13.7591,-14.4713 -8.95147,-25.0285c4.80763,-10.55721 16.61007,-16.46817 26.36146,-13.20251c9.75139,3.26566 13.7591,14.47131 8.95147,25.0285z" fill="#87888c"/><path d="M284.01527,71.95846c7.62043,-7.03907 20.95989,-6.5893 29.79454,1.00459c8.83464,7.59391 9.81895,19.45627 2.19853,26.49534c-7.62043,7.03907 -20.9599,6.5893 -29.79454,-1.00459c-8.83464,-7.5939 -9.81895,-19.45627 -2.19853,-26.49534z" fill="#87888c"/><path d="M177.33922,150.81159c-7.06881,-32.54297 15.30531,-65.02898 49.97399,-72.55952c34.66867,-7.53054 68.5036,12.74604 75.57241,45.289c7.06881,32.54297 -15.30531,65.02898 -49.97399,72.55952c-34.66867,7.53054 -68.5036,-12.74604 -75.57241,-45.289z" fill="#87888c"/><path d="M271.62351,154.79934c-9.02195,1.9597 -18.56716,-6.72474 -21.31981,-19.39723c-2.75265,-12.67249 2.32962,-24.53423 11.35157,-26.49393c9.02195,-1.9597 18.56716,6.72474 21.31981,19.39723c2.75265,12.67249 -2.32962,24.53423 -11.35157,26.49393z" fill="#000000"/><path d="M220.46386,166.57886c-9.02195,1.9597 -18.56716,-6.72474 -21.31981,-19.39723c-2.75265,-12.67249 2.32962,-24.53423 11.35157,-26.49393c9.02195,-1.9597 18.56716,6.72474 21.31981,19.39723c2.75265,12.67249 -2.32962,24.53423 -11.35157,26.49393z" fill="#000000"/><path d="M249.95223,177.65043c-7.3089,1.5876 -14.40935,-2.53669 -15.85929,-9.21187c-1.44995,-6.67518 3.29967,-13.37348 10.60858,-14.96108c7.3089,-1.5876 14.40935,2.5367 15.8593,9.21187c1.44995,6.67518 -3.29968,13.37348 -10.60858,14.96108z" fill="#ff00ff"/></g></g></g></svg>