<svg version="1.1" xmlns="http://www.w3.org/2000/svg" xmlns:xlink="http://www.w3.org/1999/xlink" width="164.63214" height="251.4184" viewBox="0,0,164.63214,251.4184"><defs><linearGradient x1="240.56005" y1="177.64296" x2="240.56005" y2="208.27114" gradientUnits="userSpaceOnUse" id="color-1"><stop offset="0" stop-color="#000000"/><stop offset="1" stop-color="#6700b5"/></linearGradient><linearGradient x1="229.60029" y1="62.5399" x2="237.82915" y2="183.36373" gradientUnits="userSpaceOnUse" id="color-2"><stop offset="0" stop-color="#000000"/><stop offset="1" stop-color="#007500"/></linearGradient><linearGradient x1="233.17785" y1="95.39473" x2="238.39056" y2="171.93265" gradientUnits="userSpaceOnUse" id="color-3"><stop offset="0" stop-color="#ff0000"/><stop offset="1" stop-color="#000000"/></linearGradient><linearGradient x1="231.40984" y1="91.93944" x2="235.22673" y2="147.98273" gradientUnits="userSpaceOnUse" id="color-4"><stop offset="0" stop-color="#000000"/><stop offset="1" stop-color="#c5f4ff"/></linearGradient><linearGradient x1="235.25017" y1="138.88184" x2="238.47451" y2="186.22454" gradientUnits="userSpaceOnUse" id="color-5"><stop offset="0" stop-color="#000000"/><stop offset="1" stop-color="#1a1a23"/></linearGradient><linearGradient x1="164.83894" y1="153.95054" x2="167.71942" y2="196.24448" gradientUnits="userSpaceOnUse" id="color-6"><stop offset="0" stop-color="#000000"/><stop offset="1" stop-color="#dfdaba"/></linearGradient><linearGradient x1="172.58883" y1="150.54164" x2="175.61279" y2="194.94221" gradientUnits="userSpaceOnUse" id="color-7"><stop offset="0" stop-color="#000000"/><stop offset="1" stop-color="#a6a38a"/></linearGradient><linearGradient x1="303.5535" y1="145.24273" x2="306.43398" y2="187.53668" gradientUnits="userSpaceOnUse" id="color-8"><stop offset="0" stop-color="#000000"/><stop offset="1" stop-color="#dfdaba"/></linearGradient><linearGradient x1="295.41299" y1="142.91608" x2="298.43695" y2="187.31667" gradientUnits="userSpaceOnUse" id="color-9"><stop offset="0" stop-color="#000000"/><stop offset="1" stop-color="#a6a38a"/></linearGradient></defs><g transform="translate(-152.60368,-57.08162)"><g data-paper-data="{&quot;isPaintingLayer&quot;:true}" fill-rule="nonzero" stroke-linejoin="miter" stroke-miterlimit="10" stroke-dasharray="" stroke-dashoffset="0" style="mix-blend-mode: normal"><path d="M206.75007,307.50001l15.14285,-131.8421l37.78325,-0.15789l13.57389,132z" fill="#131313" stroke="#000000" stroke-width="2" stroke-linecap="butt"/><path d="M211.80171,263.57743l10.20803,-87.78121l37.78325,-0.15789l8.99156,88.2916z" fill="#9200ff" stroke="#000000" stroke-width="2" stroke-linecap="butt"/><path d="M219.70029,204.11264l3.12142,-26.32765l35.83075,-0.14203l2.76735,26.1059c0,0 -7.51543,4.19603 -21.55904,4.50964c-12.48458,0.27879 -20.16049,-4.14586 -20.16049,-4.14586z" fill="url(#color-1)" stroke="#000000" stroke-width="0" stroke-linecap="butt"/><path d="M227.50706,176.65644h25.10959" fill="none" stroke="#000000" stroke-width="2" stroke-linecap="round"/><path d="M223.53175,220.69562v-42.4718h6.35092v42.4718z" fill="#9200ff" stroke="#000000" stroke-width="2" stroke-linecap="butt"/><path d="M249.95688,220.84354v-42.4718h6.35092v42.4718z" fill="#9200ff" stroke="#000000" stroke-width="2" stroke-linecap="butt"/><path d="M232.75051,269.84781v-89.35549h14.45197v89.35549z" fill="#131313" stroke="none" stroke-width="0" stroke-linecap="butt"/><g><path d="M173.3323,187.75636l-8.22885,-120.82383l128.99369,-8.78527l8.22885,120.82383zM273.4234,108.94082c-0.37527,-5.51009 -5.14629,-9.67267 -10.65638,-9.2974c-4.08559,0.27825 -7.43033,2.97321 -8.73369,6.59423c-1.6707,-0.97645 -3.64195,-1.47932 -5.71813,-1.33792c-5.51008,0.37527 -9.67267,5.14629 -9.2974,10.65638c0.16419,2.41087 1.16991,4.56377 2.71085,6.19149c-1.63789,1.91891 -2.55536,4.45524 -2.37039,7.17112c0.37527,5.51009 5.1463,9.67267 10.65638,9.2974c1.25086,-0.08519 2.43227,-0.39692 3.50692,-0.89239c1.57302,3.90921 5.52665,6.54284 9.95836,6.24102c1.58084,-0.10766 3.05076,-0.57715 4.33443,-1.3221c4.55758,-1.18133 7.77713,-5.46619 7.45819,-10.33249c0.79791,-1.56004 1.1959,-3.34989 1.06817,-5.22538c-0.15605,-2.2913 -1.07222,-4.3496 -2.48557,-5.94547c0.18262,-0.87565 0.24987,-1.79058 0.1861,-2.72685c-0.11124,-1.63334 -0.60873,-3.14827 -1.39723,-4.4617c0.60314,-1.40821 0.89063,-2.97661 0.77939,-4.60994z" fill="url(#color-2)" stroke="#000000" stroke-width="2" stroke-linecap="butt"/><path d="M228.09414,99.38092c1.46565,-2.42421 3.49446,-0.57005 3.49446,-0.57005c2.44854,2.66783 4.53255,0.3753 7.68525,0.87222c1.44783,0.2282 2.79211,1.12286 4.22432,1.48559c3.74692,0.94893 7.77475,-0.57279 11.39516,-1.19203c2.67415,-0.4574 5.50303,0.45264 8.12056,-0.18845c3.37185,-0.82584 8.43231,-7.38558 12.30975,-3.55349c0.24167,0.23885 0.45244,0.5859 0.63754,1.01509c0.7053,0.85139 1.16567,1.88007 1.28377,3.01057l0.56255,5.1011c0.21993,1.18844 0.42386,2.37973 0.6268,3.5712c0.12468,0.39008 0.18745,0.80159 0.20929,1.22722c0.17326,1.01163 0.34953,2.02268 0.53801,3.03158c0.02969,0.09981 0.05919,0.19979 0.08846,0.29992c0.27153,-0.11718 0.55403,-0.22818 0.84797,-0.33266c3.37991,-1.20129 6.82381,2.49105 9.38486,4.73368c3.09965,2.71429 3.9881,7.85721 5.34386,11.43513c1.01438,2.67701 2.96508,5.14035 3.24964,7.964c0.0043,0.04263 0.00847,0.08526 0.01254,0.1279l0.03122,-0.00922l2.6552,7.46308c0.1925,0.50235 0.3134,1.0367 0.35137,1.59428c0.22924,3.36592 -2.65044,6.30334 -6.43194,6.56089c-0.19288,0.01314 -0.38438,0.01904 -0.57417,0.01799l-0.03078,2.54939c-0.00557,3.20219 -2.80813,5.92826 -6.44473,6.17594c-0.44676,0.03043 -0.8861,0.02209 -1.31394,-0.02183l0.05379,0.7898c0.22924,3.36592 -2.65044,6.30333 -6.43194,6.56088c-3.08005,0.20977 -5.80841,-1.42303 -6.83848,-3.85481l-1.22583,-2.69899l0.2259,-0.08411l-0.37261,-0.27057c-0.50241,-1.67635 -1.16347,-3.31785 -1.76826,-4.97063l-0.01266,0.02422c-1.00833,2.02961 -3.21082,3.51876 -5.85385,3.69877c-2.87942,0.19611 -5.45145,-1.21813 -6.61593,-3.39004l-1.72249,-3.03135c-0.64998,-0.98925 -1.48319,-2.03686 -2.3618,-3.12883l0.11699,1.71781c0.22924,3.36592 -2.65044,6.30333 -6.43194,6.56088c-3.48725,0.2375 -6.52363,-1.88696 -7.15486,-4.85875l-0.92244,-3.99102c-1.07213,0.78865 -2.41564,1.30122 -3.89767,1.40215c-2.73335,0.18616 -5.18971,-1.07878 -6.42799,-3.06547l-2.97294,-4.53957l0.25689,-0.13595l-0.59606,-0.45488c-0.01232,-0.03422 -0.02463,-0.06843 -0.03691,-0.10267l-0.19865,2.17368c-0.22246,3.02993 -2.94278,5.54645 -6.43003,5.78395c-1.38598,0.09439 -2.70075,-0.18431 -3.8216,-0.74103c-1.14742,1.57122 -3.07478,2.66892 -5.32009,2.82184c-2.87942,0.19611 -5.45145,-1.21812 -6.61593,-3.39003l-1.79039,-3.15085c-0.28998,-0.51039 -0.66206,-1.16364 -1.07936,-1.8979c0.02617,0.45834 0.03206,0.91812 0.01317,1.37971l1.73143,9.52152c0.04388,0.22389 0.07417,0.45246 0.09001,0.68506c0.22924,3.36592 -2.65044,6.30333 -6.43194,6.56088c-0.20276,0.01381 -0.40399,0.01964 -0.60331,0.01778l0.53352,2.8715c0.0463,0.23108 0.0781,0.46719 0.09447,0.70761c0.22924,3.36592 -2.65044,6.30333 -6.43194,6.56088c-3.20973,0.2186 -6.03752,-1.5638 -6.95946,-4.16614l-1.94531,-5.08595l0.10811,-0.03416l-0.17899,-0.16207c-5.05047,-16.90482 -9.07073,-34.69223 -10.2952,-52.23217c0,0 -0.41508,-6.09455 6.43194,-6.56088c6.84702,-0.46632 7.2621,5.62823 7.2621,5.62823c0.08835,1.33577 0.19474,2.67372 0.31817,4.01317c1.90948,0.53725 3.46261,1.81059 4.21358,3.47451l0.5233,1.0845c0.8552,-0.64946 1.77306,-1.18231 2.71449,-1.51808c-0.26092,-0.57746 -0.50303,-1.16177 -0.7207,-1.75502l-5.11024,-6.56928c-0.71877,-0.89003 -1.1725,-1.96835 -1.25305,-3.15113c-0.22924,-3.36592 2.65044,-6.30333 6.43194,-6.56088c1.01057,-0.06883 1.98328,0.06069 2.87056,0.35171c0.3146,-0.06173 0.63754,-0.10457 0.96732,-0.12703c3.08005,-0.20977 5.80841,1.42303 6.83848,3.85481l1.12487,2.47671c1.28956,1.16682 1.8036,2.82307 2.50634,4.37313l-0.00002,0.00005c2.27831,2.53482 4.59104,5.04629 6.73343,7.67338c0.28982,0.35539 0.71006,0.79766 1.17311,1.28244c0.19708,-1.36978 0.38136,-2.73967 0.39849,-4.11567c0.04135,-3.32447 -1.5247,-6.70333 -0.64696,-9.94651c0.06627,-0.24486 0.1424,-0.48642 0.22734,-0.72503l-0.12416,-0.01889l0.79719,-3.81859c0.50711,-2.76115 3.09599,-4.97292 6.35449,-5.19485c2.2808,-0.15534 4.36872,0.6997 5.71702,2.14132l2.0419,2.13363c0.07329,-0.37729 0.22208,-0.77809 0.47463,-1.1958z" fill="url(#color-3)" stroke="none" stroke-width="0.5" stroke-linecap="butt"/><path d="M284.41928,88.32917c6.42316,-0.43746 11.94629,4.38135 12.38374,10.80449l2.23763,32.85505c0.43746,6.42314 -4.38135,11.9463 -10.80448,12.38375l-106.01887,7.22054c-6.42314,0.43746 -11.94631,-4.38135 -12.38376,-10.80449l-2.23763,-32.85505c-0.43746,-6.42313 4.38136,-11.9463 10.8045,-12.38375zM273.4234,108.94082c-0.37527,-5.51009 -5.14629,-9.67267 -10.65638,-9.2974c-4.08559,0.27825 -7.43033,2.97321 -8.73369,6.59423c-1.6707,-0.97645 -3.64195,-1.47932 -5.71813,-1.33792c-5.51008,0.37527 -9.67267,5.14629 -9.2974,10.65638c0.16419,2.41087 1.16991,4.56377 2.71085,6.19149c-1.63789,1.91891 -2.55536,4.45524 -2.37039,7.17112c0.37527,5.51009 5.1463,9.67267 10.65638,9.2974c1.25086,-0.08519 2.43227,-0.39692 3.50692,-0.89239c1.57302,3.90921 5.52665,6.54284 9.95836,6.24102c1.58084,-0.10766 3.05076,-0.57715 4.33443,-1.3221c4.55758,-1.18133 7.77713,-5.46619 7.45819,-10.33249c0.79791,-1.56004 1.1959,-3.34989 1.06817,-5.22538c-0.15605,-2.2913 -1.07222,-4.3496 -2.48557,-5.94547c0.18262,-0.87565 0.24987,-1.79058 0.1861,-2.72685c-0.11124,-1.63334 -0.60873,-3.14827 -1.39723,-4.4617c0.60314,-1.40821 0.89063,-2.97661 0.77939,-4.60994z" fill="url(#color-4)" stroke="#000000" stroke-width="2" stroke-linecap="butt"/><path d="M188.01181,100.97556l85.45069,-5.81972c5.17703,-0.35259 9.62865,3.53135 9.98124,8.70836l1.80352,26.48101c0.35259,5.17702 -3.53135,9.62865 -8.70836,9.98124l-3.13399,0.21344c0.53709,-1.11289 0.88093,-2.46311 1.01288,-3.87824c0.56254,-1.24953 0.8746,-2.63058 0.87649,-4.07472c0.40218,-0.90091 0.67434,-1.86969 0.79421,-2.88083c0.2319,-0.96421 0.32316,-1.97955 0.25221,-3.02132c-0.15605,-2.2913 -1.07222,-4.3496 -2.48557,-5.94547c0.18262,-0.87565 0.24987,-1.79058 0.1861,-2.72685c-0.09003,-1.32196 -0.43308,-2.56635 -0.97865,-3.68914c-0.04367,-0.44848 -0.11003,-0.89269 -0.19952,-1.32972c0.4521,-1.25997 0.65712,-2.6318 0.56034,-4.05279c-0.05565,-0.81706 -0.20794,-1.60449 -0.44498,-2.35189c-0.58314,-1.83871 -1.6791,-3.43515 -3.11037,-4.63441c-1.94409,-1.76576 -4.57668,-2.76784 -7.40382,-2.57529c-4.0626,0.27669 -7.39268,2.94298 -8.71152,6.53324c-1.54316,-0.77376 -3.30708,-1.15782 -5.15403,-1.03204c-0.04733,0.00322 -0.09455,0.00677 -0.14167,0.01064c-0.04722,0.00255 -0.09449,0.00544 -0.14181,0.00867c-5.51009,0.37527 -9.67267,5.14629 -9.2974,10.65638c0.16419,2.41087 1.16991,4.56377 2.71085,6.19149c-1.63789,1.91891 -2.55536,4.45524 -2.37039,7.17112c0.37527,5.51009 5.14629,9.67267 10.65638,9.2974c0.09481,-0.00646 0.18922,-0.01422 0.28322,-0.02326c0.68313,-0.06571 1.34434,-0.19918 1.97738,-0.39325c0.61694,0.39615 1.27919,0.72593 1.97607,0.97998c0.68786,1.13056 1.59214,2.10984 2.65136,2.88421l-65.81445,4.48237c-5.17702,0.35259 -9.62866,-3.53135 -9.98125,-8.70836l-1.80352,-26.48101c-0.35259,-5.17702 3.53136,-9.62866 8.70837,-9.98124z" fill="#000000" stroke="#000000" stroke-width="0" stroke-linecap="butt"/><path d="M259.88339,105.75917c1.32067,-0.50693 2.18089,0.02028 2.67889,0.57362c0.02656,0.00092 0.05547,0.00228 0.08646,0.00422c0.87264,-0.22101 1.70338,0.12597 1.70338,0.12597c1.05153,0.50794 2.33856,0.68848 3.1546,1.52382c0.8519,0.87205 1.04251,2.20409 1.56377,3.30613l0.34142,0.83116c0,0 0.15633,0.38059 0.18775,0.89638c0.8512,0.49953 1.1667,1.47446 1.1667,1.47446c0.38612,1.21345 0.77226,2.42688 1.15838,3.64033l0.17265,2.31169c1.50312,5.31786 1.88624,10.14182 0.26068,15.87467l-2.63301,-0.70971c-0.57126,0.39793 -1.14253,0.79585 -1.7138,1.19378l-2.95999,0.55869c0,0 -0.50069,0.0341 -1.0687,-0.15259c-0.07864,0.12031 -0.17075,0.24203 -0.27784,0.36478c-1.64357,1.8838 -3.52736,0.24024 -3.52736,0.24024l-1.14708,-1.02685l-0.38746,1.31417c-0.2701,1.00197 -1.15123,1.76874 -2.24458,1.84321c-1.32831,0.09047 -2.48481,-0.87392 -2.64987,-2.17804l-0.5705,-4.2138l0.02397,-0.00325l-0.03332,-0.07511c-0.04308,-0.60631 -0.09333,-1.20725 -0.15046,-1.80401l-1.66491,-0.23176c-0.34289,-0.38152 -0.74937,-0.72273 -1.13533,-1.07695c-0.32854,0.08284 -0.65267,0.12498 -0.96601,0.11431c0.49232,1.40989 1.05529,2.69161 1.63243,3.73821c0,0 1.18677,2.20037 -1.0136,3.38712c-2.20037,1.18677 -3.38712,-1.0136 -3.38712,-1.0136c-3.18666,-6.01561 -5.1574,-15.38428 -2.59198,-21.91728l0.33733,-0.80765c-0.07085,-0.20484 -0.11604,-0.42236 -0.13147,-0.64899c-0.09382,-1.37752 0.94683,-2.57028 2.32435,-2.66409c0.47423,-0.0323 0.92656,0.06985 1.31969,0.27392c0.23718,-1.05017 1.13998,-1.86546 2.26913,-1.94236c0.52157,-0.03552 1.01666,0.09159 1.43564,0.33806c0.34942,-0.39013 0.73408,-0.78223 1.14348,-1.13412c0.48937,-0.17737 1.00443,-0.24054 1.54303,-0.1522c0.42137,-0.49541 1.03447,-0.82695 1.73459,-0.87463c0.72763,-0.04956 1.40372,0.21742 1.89352,0.68339c0.18691,-0.34466 0.44891,-0.59401 0.72345,-0.77417c0.21636,-0.46965 0.63435,-0.9176 1.39912,-1.21115zM266.18449,118.36381c0,0 -0.32029,-0.90848 0.00069,-1.79639c-0.05865,-0.17768 -0.1173,-0.35535 -0.17593,-0.53302c0,0 -0.09722,-0.30041 -0.11579,-0.72226c-0.18837,-0.11341 -0.35096,-0.2488 -0.48906,-0.38855c0.32363,1.40962 0.60794,2.8373 0.85867,4.27385c0.16535,0.48703 0.31494,0.97906 0.44218,1.47819c0.21449,0.84136 0.33201,1.69825 0.39793,2.5634c0.22964,0.92379 0.44971,1.852 0.65108,2.78877c-0.0761,-1.1174 -0.17653,-2.59203 -0.22695,-3.33236c-0.02888,-0.11364 -0.05837,-0.2274 -0.08847,-0.34134c-0.25582,-0.53214 -0.28933,-1.02422 -0.28933,-1.02422l-0.00097,-0.0161c-0.27712,-0.94479 -0.59711,-1.91559 -0.96405,-2.94997z" fill-opacity="0.45882" fill="#000000" stroke="none" stroke-width="0.5" stroke-linecap="butt"/><path d="M259.79399,135.44399c-1.30307,0.08875 -2.44081,-0.83766 -2.6394,-2.10408l-0.21727,-1.28305c-0.01911,-0.01666 -0.03795,-0.03361 -0.05655,-0.05085c-1.63044,0.07888 -3.3544,-0.20183 -4.92988,-0.81279l-0.4139,0.8993c-0.36133,0.82713 -1.15957,1.42955 -2.12237,1.49512c-1.3206,0.08994 -2.47139,-0.86277 -2.6469,-2.15537l-0.53131,-3.64424l0.02921,-0.00425l-0.04123,-0.09095c-0.06458,-1.09293 -0.68025,-2.30316 -0.24497,-3.28968l-0.85328,-2.19419c-0.10197,-0.24519 -0.16629,-0.51094 -0.18534,-0.79056c-0.09382,-1.37752 0.94683,-2.57028 2.32435,-2.66409c0.21699,-0.01478 0.42939,-0.00141 0.63363,0.03699c2.08087,-3.25068 5.63052,-6.26906 7.91421,-8.19582c1.47567,-1.24504 2.69473,-3.63775 4.62007,-3.49351c1.66817,0.12498 2.14592,2.59316 2.94911,4.06058c0.66293,1.21116 0.91274,2.60663 1.40602,3.89622c0.23146,0.6051 0.57415,1.18882 0.90019,1.77482c0.61436,0.38313 1.05466,1.02722 1.15648,1.78882l0.53923,3.75918l-0.03628,0.00521l0.04778,0.08716c-0.00757,0.03161 -0.01514,0.06321 -0.02272,0.09483l0.03077,-0.0021l0.07797,1.14483c0.66024,-0.10592 1.28955,-0.07153 1.83011,0.28248c0.81169,0.53157 1.44107,3.12996 1.75543,5.44712c0.17194,0.34462 0.50922,1.1906 0.19984,2.04546c0.0365,0.68666 0.02647,1.23963 -0.03633,1.5485c-0.40909,2.01217 -0.32105,5.3094 -2.337,5.69948c-2.40539,0.46544 -4.08374,-2.70798 -6.12562,-4.06197c-0.22156,-0.41992 -0.4539,-0.8348 -0.68872,-1.24853c-0.20931,1.08739 -1.12855,1.94117 -2.28536,2.01996z" fill-opacity="0.62745" fill="#000000" stroke="none" stroke-width="0.5" stroke-linecap="butt"/><path d="M252.84253,118.53676c0.34061,-0.28866 0.81902,-0.50287 1.49055,-0.54861c0.38623,-0.0263 0.71672,0.01127 0.99948,0.09357c0.19199,-1.01132 0.99783,-1.82181 2.03846,-1.99698c-0.02368,-0.59282 -0.05496,-1.18528 -0.09544,-1.77722l0.042,-0.11862l-0.04152,-0.00116l0.08189,-2.94183c0.02058,-1.28558 1.02382,-2.36244 2.32991,-2.45139c0.96781,-0.06591 1.84442,0.42815 2.31279,1.2056l2.20805,3.50675l-0.03975,0.02503c0.07051,0.09403 0.13936,0.18947 0.20639,0.28647c1.87409,2.71151 1.79155,7.97771 2.60096,11.17268l-0.0292,0.11755l0.04926,-0.00789l0.49092,3.06818c0.01439,0.08387 0.02466,0.16928 0.03057,0.256c0.0856,1.2568 -0.77315,2.3598 -1.97049,2.61473c-0.09956,0.67701 -0.34512,1.27846 -0.85958,1.73539c-0.85524,0.75962 -1.99083,1.05003 -3.19989,1.09128c-0.34812,0.22941 -0.7585,0.37478 -1.20413,0.40513c-0.73932,0.05035 -1.42542,-0.22608 -1.91696,-0.70599c-0.30212,-0.05704 -0.59756,-0.11811 -0.88287,-0.17954c-0.11328,-0.02439 -0.22353,-0.05553 -0.33105,-0.09274c-0.14784,0.39454 -0.43565,0.79432 -0.93999,1.15942c-2.02507,1.46599 -3.49105,-0.55908 -3.49105,-0.55908l-1.85227,-2.67042c-0.4204,-2.22876 -1.62571,-5.04464 -2.29663,-7.63021c-0.32539,-0.57427 -0.69878,-1.22962 -1.15157,-1.99991l0.01053,-0.37834l-0.12362,0.03038l-1.18181,-4.80858c-0.04039,-0.15231 -0.06689,-0.31065 -0.078,-0.47372c-0.09382,-1.37752 0.94683,-2.57028 2.32435,-2.66409c1.03247,-0.07032 1.96114,0.49667 2.40111,1.36514l1.86809,3.49228l-0.04354,0.02329c0.05527,0.07655 0.10941,0.15405 0.16236,0.23257c0.02753,0.04081 0.05476,0.08245 0.08172,0.12488z" fill-opacity="0.68235" fill="#000000" stroke="none" stroke-width="0.5" stroke-linecap="butt"/><path d="M237.13005,158.1205l62.75565,-23.64073l2.37386,47.40061l-128.49783,7.61229l-2.70915,-43.96013z" fill="url(#color-5)" stroke="#000000" stroke-width="2" stroke-linecap="round"/><path d="M176.37409,171.68697c3.84253,11.37354 2.43786,22.12058 -3.1374,24.00416c-5.57527,1.8836 -13.20989,-5.80953 -17.05242,-17.18307c-3.84253,-11.37354 -2.43786,-22.12058 3.1374,-24.00416c5.57527,-1.8836 13.20989,5.80953 17.05242,17.18307z" fill="url(#color-6)" stroke="#000000" stroke-width="2" stroke-linecap="butt"/><path d="M173.1894,195.10725c0,0 3.42614,-4.65861 4.06043,-7.07274c0.63406,-2.41326 -0.2554,-7.40944 -0.2554,-7.40944c0,0 0.06786,-6.62503 -1.06537,-9.83557c-1.19645,-3.38963 -5.93397,-9.9941 -5.93397,-9.9941c0,0 -1.40284,-3.67048 -3.12654,-4.55795c-1.98978,-1.02445 -8.12891,-1.23699 -8.12891,-1.23699l15.25697,-4.55469c0,0 10.756,10.51566 13.14998,17.15476c2.36153,6.54913 1.11789,22.41364 1.11789,22.41364l-15.07507,5.09308z" fill="url(#color-7)" stroke="#000000" stroke-width="2" stroke-linecap="round"/><path d="M309.09485,145.04292c5.77917,1.11029 8.62798,11.56762 6.36299,23.35712c-2.26498,11.7895 -8.78605,20.44672 -14.56522,19.33643c-5.77917,-1.11029 -8.62798,-11.56762 -6.36299,-23.35712c2.26498,-11.7895 8.78605,-20.44672 14.56522,-19.33643z" fill="url(#color-8)" stroke="#000000" stroke-width="2" stroke-linecap="butt"/><path d="M300.86033,187.1516l-15.62641,-3.00211c0,0 -3.38312,-15.54941 -1.93135,-22.35824c1.47172,-6.90239 10.70265,-18.77927 10.70265,-18.77927l15.73362,2.44403c0,0 -6.05362,1.04294 -7.88614,2.32771c-1.58746,1.11297 -2.47969,4.93978 -2.47969,4.93978c0,0 -3.79832,7.18582 -4.52414,10.70636c-0.68747,3.33454 0.27801,9.88921 0.27801,9.88921c0,0 -0.20384,5.07064 0.75155,7.37565c0.95574,2.30584 4.98188,6.45691 4.98188,6.45691z" fill="url(#color-9)" stroke="#000000" stroke-width="2" stroke-linecap="round"/><path d="M263.60333,166.28563l-1.66043,-24.38007l5.66979,-0.38615l1.66043,24.38007z" fill="#000000" stroke="none" stroke-width="0" stroke-linecap="butt"/><text transform="translate(183.88228,121.14107) rotate(-3.89618) scale(0.26204,0.26204)" font-size="40" xml:space="preserve" fill="#ff0063" fill-rule="nonzero" stroke="none" stroke-width="1" stroke-linecap="butt" stroke-linejoin="miter" stroke-miterlimit="10" stroke-dasharray="" stroke-dashoffset="0" font-family="Pixel" font-weight="normal" text-anchor="start" style="mix-blend-mode: normal"><tspan x="0" dy="0">RESTART</tspan><tspan x="0" dy="46.150000000000006px">SERVER.</tspan></text></g><g><path d="M230.88761,128.60215c-0.08282,-1.30325 0.90653,-2.42688 2.20978,-2.5097c1.30325,-0.08282 2.42688,0.90653 2.5097,2.20977c0.08282,1.30325 -0.90653,2.42688 -2.20978,2.5097c-1.30325,0.08282 -2.42688,-0.90653 -2.5097,-2.20978z" fill="#ff0063" stroke="#000000" stroke-width="0" stroke-linecap="butt"/><path d="M236.4305,131.29545c-0.76939,0.90429 -1.89051,1.50742 -3.16901,1.58866c-1.0794,0.0686 -2.0946,-0.246 -2.91279,-0.82685" fill="none" stroke="#ff0063" stroke-width="1.5" stroke-linecap="butt"/><path d="M234.10103,139.48001l-0.47763,-6.31318" fill="none" stroke="#ff0063" stroke-width="1.5" stroke-linecap="round"/><path d="M229.15275,139.18416l1.39444,-6.17575" fill="none" stroke="#ff0063" stroke-width="1.5" stroke-linecap="round"/><path d="M236.80324,133.9232c-0.76939,0.90429 -1.89051,1.50742 -3.16901,1.58866c-1.0794,0.0686 -2.0946,-0.246 -2.91279,-0.82684" fill="none" stroke="#ff0063" stroke-width="1.5" stroke-linecap="butt"/><path d="M237.30403,136.16068c-0.94393,0.91538 -2.3098,1.53406 -3.85928,1.63253c-1.30817,0.08313 -2.53346,-0.21811 -3.51657,-0.78847" fill="none" stroke="#ff0063" stroke-width="1.5" stroke-linecap="butt"/><path d="M236.30239,132.0077l2.165,5.94954" data-paper-data="{&quot;index&quot;:null}" fill="none" stroke="#ff0063" stroke-width="1.5" stroke-linecap="round"/><path d="M229.15558,127.21531c0.88053,-1.38099 2.09218,-2.32078 3.49866,-2.55205c1.66592,-0.27393 3.28273,0.49918 4.53612,1.96402" data-paper-data="{&quot;index&quot;:null}" fill="none" stroke="#ff0063" stroke-width="1.5" stroke-linecap="butt"/><path d="M227.22507,124.86876c1.30968,-1.40826 3.08482,-2.38387 5.12118,-2.65517c2.41199,-0.32135 4.72362,0.40761 6.49127,1.83977" data-paper-data="{&quot;index&quot;:null}" fill="none" stroke="#ff0063" stroke-width="1.5" stroke-linecap="butt"/></g></g></g></svg>