<svg version="1.1" xmlns="http://www.w3.org/2000/svg" xmlns:xlink="http://www.w3.org/1999/xlink" width="164.38879" height="254.00697" viewBox="0,0,164.38879,254.00697"><defs><linearGradient x1="240.56005" y1="177.64296" x2="240.56005" y2="208.27115" gradientUnits="userSpaceOnUse" id="color-1"><stop offset="0" stop-color="#000000"/><stop offset="1" stop-color="#6700b5"/></linearGradient><linearGradient x1="241.71923" y1="55.49305" x2="241.71923" y2="176.59677" gradientUnits="userSpaceOnUse" id="color-2"><stop offset="0" stop-color="#000000"/><stop offset="1" stop-color="#007500"/></linearGradient><linearGradient x1="243.05607" y1="88.51504" x2="243.05607" y2="165.23026" gradientUnits="userSpaceOnUse" id="color-3"><stop offset="0" stop-color="#ff0000"/><stop offset="1" stop-color="#000000"/></linearGradient><linearGradient x1="241.52693" y1="84.9476" x2="241.52693" y2="141.1207" gradientUnits="userSpaceOnUse" id="color-4"><stop offset="0" stop-color="#000000"/><stop offset="1" stop-color="#c5f4ff"/></linearGradient><linearGradient x1="242.16871" y1="132.04244" x2="242.16871" y2="179.49483" gradientUnits="userSpaceOnUse" id="color-5"><stop offset="0" stop-color="#000000"/><stop offset="1" stop-color="#1a1a23"/></linearGradient><linearGradient x1="170.89631" y1="142.29196" x2="170.89631" y2="184.68388" gradientUnits="userSpaceOnUse" id="color-6"><stop offset="0" stop-color="#000000"/><stop offset="1" stop-color="#dfdaba"/></linearGradient><linearGradient x1="178.85992" y1="139.41753" x2="178.85992" y2="183.92098" gradientUnits="userSpaceOnUse" id="color-7"><stop offset="0" stop-color="#000000"/><stop offset="1" stop-color="#a6a38a"/></linearGradient><linearGradient x1="309.88196" y1="143.02978" x2="309.88196" y2="185.4217" gradientUnits="userSpaceOnUse" id="color-8"><stop offset="0" stop-color="#000000"/><stop offset="1" stop-color="#dfdaba"/></linearGradient><linearGradient x1="301.91836" y1="140.15535" x2="301.91836" y2="184.65881" gradientUnits="userSpaceOnUse" id="color-9"><stop offset="0" stop-color="#000000"/><stop offset="1" stop-color="#a6a38a"/></linearGradient></defs><g transform="translate(-158.19474,-54.49305)"><g data-paper-data="{&quot;isPaintingLayer&quot;:true}" fill-rule="nonzero" stroke-linejoin="miter" stroke-miterlimit="10" stroke-dasharray="" stroke-dashoffset="0" style="mix-blend-mode: normal"><path d="M206.75007,307.50001l15.14285,-131.8421l37.78325,-0.15789l13.57389,132z" fill="#131313" stroke="#000000" stroke-width="2" stroke-linecap="butt"/><path d="M211.80171,263.57743l10.20803,-87.78121l37.78325,-0.15789l8.99156,88.2916z" fill="#9200ff" stroke="#000000" stroke-width="2" stroke-linecap="butt"/><path d="M219.70029,204.11265l3.12142,-26.32765l35.83075,-0.14203l2.76735,26.1059c0,0 -7.51543,4.19603 -21.55904,4.50964c-12.48458,0.27879 -20.16049,-4.14586 -20.16049,-4.14586z" fill="url(#color-1)" stroke="#000000" stroke-width="0" stroke-linecap="butt"/><path d="M227.50706,176.65645h25.10959" fill="none" stroke="#000000" stroke-width="2" stroke-linecap="round"/><path d="M223.53175,220.69562v-42.4718h6.35092v42.4718z" fill="#9200ff" stroke="#000000" stroke-width="2" stroke-linecap="butt"/><path d="M249.95688,220.84354v-42.4718h6.35092v42.4718z" fill="#9200ff" stroke="#000000" stroke-width="2" stroke-linecap="butt"/><path d="M232.75051,269.84781v-89.35549h14.45197v89.35549z" fill="#131313" stroke="none" stroke-width="0" stroke-linecap="butt"/><g><path d="M177.07297,176.59677v-121.10372h129.29251v121.10372zM282.28817,104.76446c0,-5.52285 -4.47715,-10 -10,-10c-4.09505,0 -7.61518,2.46146 -9.16158,5.98555c-1.60049,-1.08772 -3.53301,-1.72337 -5.614,-1.72337c-5.52284,0 -10,4.47715 -10,10c0,2.41645 0.8571,4.63272 2.28388,6.36138c-1.76449,1.80318 -2.85218,4.27131 -2.85218,6.99348c0,5.52285 4.47716,10 10,10c1.25376,0 2.45362,-0.23073 3.55945,-0.65204c1.30376,4.00706 5.0693,6.90325 9.51127,6.90325c1.5845,0 3.08293,-0.36852 4.41425,-1.02452c4.62732,-0.86892 8.13058,-4.92511 8.14303,-9.80183c0.90207,-1.50222 1.42076,-3.26089 1.42076,-5.14072c0,-2.29661 -0.77419,-4.4124 -2.07584,-6.10062c0.2417,-0.86122 0.37096,-1.76946 0.37096,-2.7079c0,-1.63712 -0.3934,-3.18236 -1.09083,-4.54633c0.69743,-1.36397 1.09083,-2.90921 1.09083,-4.54633z" fill="url(#color-2)" stroke="#000000" stroke-width="2" stroke-linecap="butt"/><path d="M237.71325,92.14658c1.62698,-2.31902 3.52512,-0.33129 3.52512,-0.33129c2.26161,2.82804 4.49657,0.68241 7.60822,1.39241c1.42898,0.32605 2.70936,1.30999 4.11361,1.76919c3.67378,1.20134 7.7957,-0.04318 11.44982,-0.41499c2.69905,-0.27464 5.45955,0.82552 8.1146,0.36377c3.42017,-0.59482 8.91466,-6.79555 12.52275,-2.70884c0.22488,0.25472 0.41158,0.61529 0.56709,1.05606c0.64582,0.89735 1.03523,1.95493 1.07624,3.09084l0.21464,5.12754c0.13867,1.20064 0.26118,2.40303 0.38269,3.60554c0.09789,0.39765 0.13255,0.81247 0.12542,1.2386c0.10412,1.02106 0.21128,2.04176 0.33077,3.06113c0.02284,0.1016 0.04548,0.20335 0.06788,0.30524c0.27886,-0.09846 0.56825,-0.19001 0.86861,-0.27427c3.45372,-0.96885 6.63878,2.94896 9.04152,5.36043c2.90805,2.91863 3.44499,8.11004 4.55451,11.77181c0.83014,2.73975 2.60895,5.32994 2.70099,8.1664c0.00139,0.04282 0.00266,0.08564 0.00382,0.12846l0.03177,-0.00708l2.14196,7.62625c0.15792,0.51427 0.24223,1.0556 0.24223,1.61447c0,3.37372 -3.07262,6.10868 -6.86288,6.10868c-0.19333,0 -0.38479,-0.00712 -0.57407,-0.02107l-0.20394,2.54141c-0.22314,3.19441 -3.20446,5.72375 -6.84948,5.72375c-0.44779,0 -0.88555,-0.03817 -1.30942,-0.11106v0.79163c0,3.37372 -3.07262,6.10867 -6.86288,6.10867c-3.08719,0 -5.69829,-1.81442 -6.56075,-4.31057l-1.0396,-2.77605l0.23109,-0.06857l-0.35336,-0.29526c-0.38734,-1.70661 -0.93534,-3.38924 -1.42643,-5.07929l-0.01428,0.0233c-1.14391,1.9564 -3.44249,3.29246 -6.09165,3.29246c-2.88609,0 -5.35608,-1.58573 -6.37029,-3.83175l-1.51253,-3.14138c-0.58126,-1.03113 -1.34136,-2.13293 -2.14374,-3.28208v1.72179c0,3.37372 -3.07262,6.10867 -6.86288,6.10867c-3.49533,0 -6.38034,-2.32587 -6.80818,-5.33368l-0.64912,-4.04447c-1.12324,0.71398 -2.49847,1.13407 -3.98394,1.13407c-2.73968,0 -5.10441,-1.42892 -6.20484,-3.49516l-2.65761,-4.73109l0.26553,-0.11818l-0.56377,-0.49433c-0.00997,-0.03498 -0.01992,-0.06995 -0.02985,-0.10494l-0.34589,2.15516c-0.42783,3.00781 -3.31285,5.33367 -6.80818,5.33367c-1.38919,0 -2.68198,-0.3674 -3.76242,-0.99899c-1.25153,1.48962 -3.24902,2.45382 -5.49953,2.45382c-2.88609,0 -5.35608,-1.58572 -6.37029,-3.83174l-1.57216,-3.26522c-0.25463,-0.52891 -0.58146,-1.20594 -0.94791,-1.96686c-0.00503,0.45906 -0.0304,0.91818 -0.08061,1.37742l1.08045,9.61716c0.02857,0.22635 0.04325,0.45645 0.04325,0.68959c0,3.37372 -3.07262,6.10867 -6.86288,6.10867c-0.20323,0 -0.40439,-0.00786 -0.60312,-0.02326l0.33717,2.90112c0.03049,0.23369 0.04617,0.47142 0.04617,0.71239c0,3.37372 -3.07262,6.10867 -6.86288,6.10867c-3.21717,0 -5.91731,-1.97043 -6.66029,-4.6294l-1.59523,-5.20638l0.11018,-0.02674l-0.16756,-0.17386c-3.89014,-17.20892 -6.69247,-35.22839 -6.72229,-52.811c0,0 0,-6.10867 6.86288,-6.10867c6.86288,0 6.86288,6.10867 6.86288,6.10867c-0.00262,1.33869 0.01261,2.68077 0.04474,4.02551c1.86856,0.66576 3.33158,2.04169 3.96775,3.75279l0.4484,1.11755c0.89735,-0.58985 1.8493,-1.0591 2.81137,-1.33012c-0.22108,-0.59385 -0.42293,-1.19327 -0.59978,-1.79993l-4.65205,-6.90133c-0.65663,-0.93681 -1.03604,-2.04347 -1.03604,-3.22899c0,-3.37372 3.07262,-6.10867 6.86288,-6.10867c1.01291,0 1.97457,0.19531 2.84003,0.54595c0.31807,-0.04021 0.64317,-0.06101 0.97372,-0.06101c3.08719,0 5.69829,1.81442 6.56075,4.31057l0.95398,2.54742c1.2073,1.25175 1.60761,2.9391 2.2034,4.53333l-0.00002,0.00005c2.10081,2.68377 4.23754,5.34658 6.19647,8.11317c0.265,0.37426 0.65422,0.84406 1.08326,1.35919c0.2897,-1.35322 0.56664,-2.70742 0.67722,-4.07908c0.26715,-3.31398 -1.06569,-6.79144 0.03039,-9.96748c0.08275,-0.23979 0.17512,-0.47562 0.27608,-0.70791l-0.12259,-0.02728l1.05482,-3.7556c0.69355,-2.72031 3.42674,-4.75106 6.69279,-4.75106c2.28608,0 4.31108,0.99493 5.55831,2.52484l1.8922,2.26744c0.09876,-0.37144 0.27444,-0.7612 0.55479,-1.16079z" fill="url(#color-3)" stroke="none" stroke-width="0.5" stroke-linecap="butt"/><path d="M294.65916,84.9476c6.43804,0 11.62097,5.18296 11.62097,11.62098v32.93116c0,6.43802 -5.18296,11.62098 -11.62097,11.62098h-106.26447c-6.43802,0 -11.62099,-5.18296 -11.62099,-11.62098v-32.93116c0,-6.43801 5.18297,-11.62098 11.62099,-11.62098zM282.28817,104.76446c0,-5.52285 -4.47715,-10 -10,-10c-4.09505,0 -7.61518,2.46146 -9.16158,5.98555c-1.60049,-1.08772 -3.53301,-1.72337 -5.614,-1.72337c-5.52284,0 -10,4.47715 -10,10c0,2.41645 0.8571,4.63272 2.28388,6.36138c-1.76449,1.80318 -2.85218,4.27131 -2.85218,6.99348c0,5.52285 4.47716,10 10,10c1.25376,0 2.45362,-0.23073 3.55945,-0.65204c1.30376,4.00706 5.0693,6.90325 9.51127,6.90325c1.5845,0 3.08293,-0.36852 4.41425,-1.02452c4.62732,-0.86892 8.13058,-4.92511 8.14303,-9.80183c0.90207,-1.50222 1.42076,-3.26089 1.42076,-5.14072c0,-2.29661 -0.77419,-4.4124 -2.07584,-6.10062c0.2417,-0.86122 0.37096,-1.76946 0.37096,-2.7079c0,-1.63712 -0.3934,-3.18236 -1.09083,-4.54633c0.69743,-1.36397 1.09083,-2.90921 1.09083,-4.54633z" fill="url(#color-4)" stroke="#000000" stroke-width="2" stroke-linecap="butt"/><path d="M197.61521,91.014h85.64864c5.18902,0 9.36645,4.17744 9.36645,9.36645v26.54235c0,5.18901 -4.17744,9.36645 -9.36645,9.36645h-3.14125c0.61147,-1.07382 1.04626,-2.39756 1.27406,-3.80045c0.64614,-1.20842 1.05132,-2.56507 1.15134,-4.00575c0.46247,-0.8715 0.79982,-1.81955 0.98812,-2.82021c0.29688,-0.94622 0.45692,-1.95302 0.45692,-2.9972c0,-2.29661 -0.77419,-4.4124 -2.07584,-6.10062c0.2417,-0.86122 0.37096,-1.76946 0.37096,-2.7079c0,-1.32502 -0.2577,-2.58985 -0.72572,-3.74711c-0.0131,-0.45041 -0.04912,-0.8981 -0.10871,-1.3402c0.53667,-1.22634 0.83443,-2.58107 0.83443,-4.00535c0,-0.81895 -0.09844,-1.61491 -0.28414,-2.37669c-0.45685,-1.87408 -1.44181,-3.5413 -2.78828,-4.83504c-1.81962,-1.89378 -4.37803,-3.07242 -7.21172,-3.07242c-4.07201,0 -7.57557,2.43385 -9.13531,5.9262c-1.48702,-0.87683 -3.22076,-1.37986 -5.07199,-1.37986c-0.04744,0 -0.09479,0.00033 -0.14207,0.00099c-0.04728,-0.00066 -0.09464,-0.00099 -0.14207,-0.00099c-5.52285,0 -10,4.47715 -10,10c0,2.41645 0.8571,4.63272 2.28388,6.36138c-1.76449,1.80318 -2.85218,4.27131 -2.85218,6.99348c0,5.52285 4.47715,10 10,10c0.09503,0 0.18975,-0.00133 0.28415,-0.00396c0.68602,-0.01914 1.35477,-0.10737 1.99953,-0.25798c0.5886,0.43716 1.22691,0.81117 1.90491,1.11199c0.60945,1.17469 1.4451,2.21315 2.44925,3.0577h-65.96691c-5.18901,0 -9.36646,-4.17744 -9.36646,-9.36645v-26.54235c0,-5.18901 4.17745,-9.36645 9.36646,-9.36645z" fill="#000000" stroke="#000000" stroke-width="0" stroke-linecap="butt"/><path d="M268.99564,100.67013c1.35206,-0.41602 2.17447,0.16842 2.63372,0.75432c0.02644,0.00272 0.05519,0.00604 0.08597,0.01008c0.88564,-0.1612 1.69088,0.24142 1.69088,0.24142c1.01459,0.57822 2.28637,0.84579 3.04377,1.73465c0.79068,0.92792 0.89034,2.26983 1.33551,3.40475l0.28415,0.85244c0,0 0.13011,0.39033 0.12641,0.90707c0.81529,0.55621 1.06382,1.55033 1.06382,1.55033c0.30278,1.23688 0.60557,2.47375 0.90835,3.71063l0.01517,2.31808c1.1383,5.4077 1.19276,10.24655 -0.81859,15.85569l-2.5787,-0.88698c-0.59698,0.35819 -1.19397,0.71638 -1.79095,1.07457l-2.99111,0.35627c0,0 -0.50185,0 -1.05586,-0.22485c-0.08663,0.11469 -0.1868,0.22987 -0.30198,0.34506c-1.76777,1.76777 -3.53553,0 -3.53553,0l-1.07466,-1.10242l-0.47586,1.28481c-0.33756,0.9813 -1.26875,1.68643 -2.36464,1.68643c-1.33139,0 -2.41969,-1.04074 -2.49575,-2.35306l-0.28286,-4.24283l0.02414,-0.00161l-0.02814,-0.0772c-0.00178,-0.60784 -0.01108,-1.2108 -0.02753,-1.81006l-1.64531,-0.34435c-0.31617,-0.40394 -0.69853,-0.77198 -1.05953,-1.15161c-0.33341,0.06032 -0.65965,0.08034 -0.97154,0.04841c0.39538,1.44008 0.86996,2.75709 1.37465,3.84049c0,0 1.03451,2.27592 -1.24141,3.31042c-2.27592,1.03451 -3.31042,-1.24141 -3.31042,-1.24141c-2.77054,-6.21824 -4.10014,-15.69916 -1.09674,-22.04275l0.39143,-0.78286c-0.05677,-0.20918 -0.08707,-0.42927 -0.08707,-0.65642c0,-1.38071 1.11929,-2.5 2.5,-2.5c0.47533,0 0.91967,0.13265 1.29803,0.36296c0.30799,-1.03163 1.2641,-1.78369 2.39587,-1.78369c0.52278,0 1.00809,0.16046 1.40935,0.43483c0.37512,-0.36549 0.78553,-0.73054 1.2179,-1.0538c0.50029,-0.14371 1.01845,-0.17173 1.54981,-0.047c0.45406,-0.46563 1.08827,-0.75475 1.79001,-0.75475c0.72932,0 1.3857,0.3123 1.84271,0.81047c0.2099,-0.33116 0.48823,-0.56213 0.77438,-0.72322c0.24777,-0.45386 0.69523,-0.87238 1.47818,-1.11328zM274.42571,113.67379c0,0 -0.25782,-0.92814 0.12275,-1.79219c-0.04644,-0.18125 -0.09288,-0.3625 -0.13931,-0.54374c0,0 -0.07658,-0.30632 -0.06645,-0.72846c-0.18023,-0.12595 -0.33324,-0.27207 -0.46153,-0.42088c0.2271,1.42835 0.41374,2.87205 0.56628,4.32232c0.13187,0.49714 0.24769,0.9982 0.34072,1.50482c0.15682,0.85399 0.21585,1.71688 0.22283,2.58451c0.16634,0.93726 0.32283,1.87828 0.46008,2.82656c0,-1.11999 0,-2.59803 0,-3.34008c-0.02109,-0.11534 -0.04278,-0.23084 -0.06507,-0.34656c-0.21907,-0.54829 -0.21907,-1.04151 -0.21907,-1.04151l0.00013,-0.01613c-0.21228,-0.96144 -0.46557,-1.95174 -0.76137,-3.00866z" fill-opacity="0.45882" fill="#000000" stroke="none" stroke-width="0.5" stroke-linecap="butt"/><path d="M266.88939,130.28027c-1.30609,0 -2.37825,-1.00157 -2.49033,-2.27856l-0.12959,-1.29485c-0.01793,-0.01792 -0.03558,-0.03611 -0.05296,-0.05457c-1.63203,-0.03209 -3.33293,-0.42929 -4.86326,-1.14589l-0.47405,0.8691c-0.4167,0.80067 -1.25403,1.34745 -2.21906,1.34745c-1.32366,0 -2.40705,-1.0287 -2.49433,-2.33024l-0.28246,-3.67192l0.02943,-0.00226l-0.03495,-0.09354c0.00983,-1.09479 -0.52218,-2.34406 -0.02087,-3.29872l-0.70222,-2.2471c-0.08507,-0.25155 -0.13119,-0.52106 -0.13119,-0.80133c0,-1.38071 1.11929,-2.5 2.5,-2.5c0.21749,0 0.42849,0.02777 0.62965,0.07996c2.29694,-3.10177 6.04348,-5.87198 8.45282,-7.63912c1.55686,-1.14189 2.93568,-3.44624 4.84677,-3.17151c1.65582,0.23804 1.96476,2.73298 2.66638,4.25158c0.5791,1.25341 0.73351,2.66262 1.13803,3.98275c0.18981,0.61943 0.49204,1.22508 0.77751,1.83188c0.58691,0.42399 0.98242,1.09651 1.03226,1.86327l0.28255,3.78713l-0.03655,0.00273l0.04175,0.09021c-0.0097,0.03102 -0.0194,0.06204 -0.02911,0.09307h0.03084v1.14748c0.66591,-0.06081 1.29143,0.01626 1.80669,0.40618c0.77369,0.58549 1.22506,3.22064 1.38125,5.55381c0.14813,0.35551 0.42714,1.22245 0.06039,2.05431c-0.01024,0.68755 -0.05782,1.23856 -0.14146,1.54245c-0.54487,1.97972 -0.68108,5.27531 -2.71887,5.52751c-2.43146,0.30092 -3.8903,-2.97921 -5.83546,-4.46881c-0.19252,-0.434 -0.39613,-0.86371 -0.60229,-1.29244c-0.28271,1.07065 -1.25784,1.86 -2.41733,1.86z" fill-opacity="0.62745" fill="#000000" stroke="none" stroke-width="0.5" stroke-linecap="butt"/><path d="M261.10283,112.93978c0.35944,-0.26485 0.8513,-0.44606 1.52438,-0.44606c0.38712,0 0.7143,0.05994 0.99081,0.16127c0.26026,-0.99594 1.11931,-1.7498 2.16944,-1.85385c0.01666,-0.59306 0.02571,-1.18627 0.02554,-1.7796l0.04996,-0.11549l-0.04135,-0.00398l0.28159,-2.92947c0.10789,-1.28121 1.18198,-2.28741 2.49109,-2.28741c0.97005,0 1.81106,0.55249 2.22553,1.35997l1.96467,3.64868l-0.04136,0.02227c0.06396,0.0986 0.12616,0.1985 0.18645,0.29983c1.68551,2.83259 1.24533,8.08101 1.83578,11.32359l-0.03712,0.11529l0.04968,-0.00452l0.28131,3.09445c0.00866,0.08465 0.0131,0.17056 0.0131,0.25749c0,1.25971 -0.93171,2.30181 -2.1436,2.47479c-0.14533,0.66868 -0.43119,1.25205 -0.97551,1.67297c-0.90488,0.69975 -2.05758,0.91233 -3.26665,0.87133c-0.3629,0.20523 -0.78221,0.32237 -1.22887,0.32237c-0.74103,0 -1.40676,-0.32241 -1.86456,-0.83461c-0.29755,-0.07744 -0.58815,-0.15844 -0.86863,-0.23911c-0.11136,-0.03203 -0.21924,-0.07059 -0.32398,-0.11502c-0.17431,0.38358 -0.48862,0.76288 -1.0166,1.09287c-2.12,1.325 -3.44499,-0.795 -3.44499,-0.795l-1.66654,-2.79011c-0.26799,-2.25217 -1.27918,-5.14345 -1.77286,-7.76863c-0.28562,-0.59505 -0.61361,-1.27426 -1.01302,-2.07354l0.03621,-0.37675l-0.1254,0.02191l-0.85234,-4.87777c-0.02995,-0.1547 -0.04563,-0.31448 -0.04563,-0.47793c0,-1.38071 1.11929,-2.5 2.5,-2.5c1.03486,0 1.92286,0.62878 2.3028,1.52514l1.62648,3.61114l-0.04502,0.02028c0.04994,0.08013 0.09869,0.16113 0.14618,0.24306c0.02469,0.04259 0.04903,0.08598 0.07305,0.13014z" fill-opacity="0.68235" fill="#000000" stroke="none" stroke-width="0.5" stroke-linecap="butt"/><path d="M242.737,151.36439l64.21697,-19.32192l-0.85244,47.45236l-128.71809,-1.13658l0.28415,-44.04261z" fill="url(#color-5)" stroke="#000000" stroke-width="2" stroke-linecap="round"/><path d="M181.19963,160.7712c3.06083,11.60835 0.92916,22.2351 -4.7612,23.7355c-5.69037,1.50041 -12.78461,-6.6937 -15.84544,-18.30205c-3.06083,-11.60835 -0.92916,-22.2351 4.7612,-23.7355c5.69037,-1.50041 12.78461,6.6937 15.84544,18.30205z" fill="url(#color-6)" stroke="#000000" stroke-width="2" stroke-linecap="butt"/><path d="M176.43092,183.92097c0,0 3.73477,-4.41504 4.53163,-6.78049c0.79657,-2.3646 0.24865,-7.40967 0.24865,-7.40967c0,0 0.51787,-6.60511 -0.39459,-9.88523c-0.96336,-3.46309 -5.24117,-10.37421 -5.24117,-10.37421c0,0 -1.15019,-3.75732 -2.80961,-4.75986c-1.91557,-1.15729 -8.02607,-1.78648 -8.02607,-1.78648l15.53119,-3.50747c0,0 10.01661,11.22221 11.95394,18.00864c1.91107,6.69446 -0.40767,22.4378 -0.40767,22.4378l-15.3863,4.05698z" fill="url(#color-7)" stroke="#000000" stroke-width="2" stroke-linecap="round"/><path d="M315.42408,143.20694c5.69037,1.50041 7.82203,12.12715 4.7612,23.7355c-3.06083,11.60835 -10.15507,19.80246 -15.84544,18.30205c-5.69037,-1.50041 -7.82203,-12.12715 -4.7612,-23.7355c3.06083,-11.60835 10.15507,-19.80246 15.84544,-18.30205z" fill="url(#color-8)" stroke="#000000" stroke-width="2" stroke-linecap="butt"/><path d="M304.34736,184.65879l-15.3863,-4.05697c0,0 -2.31874,-15.74335 -0.40767,-22.4378c1.93733,-6.78644 11.95394,-18.00864 11.95394,-18.00864l15.53119,3.50746c0,0 -6.1105,0.62919 -8.02608,1.78648c-1.65942,1.00253 -2.80961,4.75987 -2.80961,4.75987c0,0 -4.27781,6.91112 -5.24117,10.37421c-0.91246,3.28012 -0.39459,9.88524 -0.39459,9.88524c0,0 -0.54791,5.04507 0.24865,7.40967c0.79685,2.36545 4.53163,6.7805 4.53163,6.7805z" fill="url(#color-9)" stroke="#000000" stroke-width="2" stroke-linecap="round"/><path d="M268.59428,161.30946v-24.43655h5.68292v24.43655z" fill="#000000" stroke="none" stroke-width="0" stroke-linecap="butt"/><text transform="translate(192.125,110.8523) scale(0.26204,0.26204)" font-size="40" xml:space="preserve" fill="#ff8e00" fill-rule="nonzero" stroke="none" stroke-width="1" stroke-linecap="butt" stroke-linejoin="miter" stroke-miterlimit="10" stroke-dasharray="" stroke-dashoffset="0" font-family="Pixel" font-weight="normal" text-anchor="start" style="mix-blend-mode: normal"><tspan x="0" dy="0">ERROR</tspan></text></g><g><path d="M236.46425,123.75734c0,-1.30588 1.05863,-2.3645 2.3645,-2.3645c1.30587,0 2.3645,1.05862 2.3645,2.3645c0,1.30588 -1.05863,2.3645 -2.3645,2.3645c-1.30587,0 -2.3645,-1.05863 -2.3645,-2.3645z" fill="#ff0063" stroke="#000000" stroke-width="0" stroke-linecap="butt"/><path d="M241.82517,126.79677c-0.8252,0.85367 -1.9823,1.38448 -3.26338,1.38448c-1.08157,0 -2.07478,-0.37835 -2.85449,-1.00992" fill="none" stroke="#ff0063" stroke-width="1.5" stroke-linecap="butt"/><path d="M238.90502,128.48634l0.07627,6.33076" fill="none" stroke="#ff0063" stroke-width="1.5" stroke-linecap="round"/><path d="M235.84506,128.13315l-1.78331,6.07487" fill="none" stroke="#ff0063" stroke-width="1.5" stroke-linecap="round"/><path d="M242.0305,129.44287c-0.8252,0.85368 -1.9823,1.38448 -3.26338,1.38448c-1.08157,0 -2.07478,-0.37834 -2.85449,-1.00992" fill="none" stroke="#ff0063" stroke-width="1.5" stroke-linecap="butt"/><path d="M242.38837,131.7076c-1.00009,0.85368 -2.40244,1.38448 -3.95505,1.38448c-1.31081,0 -2.51452,-0.37834 -3.45949,-1.00992" fill="none" stroke="#ff0063" stroke-width="1.5" stroke-linecap="butt"/><path d="M241.65214,127.49946l1.78331,6.07488" data-paper-data="{&quot;index&quot;:null}" fill="none" stroke="#ff0063" stroke-width="1.5" stroke-linecap="round"/><path d="M231.29683,122.07992l14.606,9.05014" data-paper-data="{&quot;index&quot;:null}" fill="none" stroke="#ff0063" stroke-width="1.5" stroke-linecap="butt"/><path d="M231.53422,131.89231l13.90825,-9.02115" data-paper-data="{&quot;index&quot;:null}" fill="none" stroke="#ff0063" stroke-width="1.5" stroke-linecap="butt"/></g></g></g></svg>