<svg version="1.1" xmlns="http://www.w3.org/2000/svg" xmlns:xlink="http://www.w3.org/1999/xlink" width="35.17311" height="35.17311" viewBox="0,0,35.17311,35.17311"><g transform="translate(-222.41347,-162.41346)"><g stroke-miterlimit="10"><path d="M229.98313,162.91346h20.03379c3.9166,0 7.06966,3.15307 7.06966,7.06966v20.03379c0,3.91659 -3.15306,7.06966 -7.06966,7.06966h-20.03379c-3.91659,0 -7.06966,-3.15307 -7.06966,-7.06966v-20.03379c0,-3.91659 3.15307,-7.06966 7.06966,-7.06966z" fill="#000000" fill-rule="evenodd" stroke="#ffffff" stroke-width="1" stroke-linecap="round" stroke-linejoin="round"/><path d="M229.98314,162.91347h20.03378c3.9166,0 7.06966,3.15307 7.06966,7.06966v20.03379c0,3.91659 -3.15306,7.06966 -7.06966,7.06966h-20.03378c-3.91659,0 -7.06967,-3.15307 -7.06967,-7.06966v-20.03379c0,-3.91659 3.15308,-7.06966 7.06967,-7.06966z" fill-opacity="0.09677" fill="#191919" fill-rule="evenodd" stroke="none" stroke-width="4.43922" stroke-linecap="round" stroke-linejoin="round"/><g fill-rule="nonzero" stroke-linejoin="miter"><path d="M226.72725,180c0,-7.60647 6.1052,-13.77273 13.63636,-13.77273c7.53116,0 13.63636,6.16626 13.63636,13.77273c0,7.60647 -6.10521,13.77273 -13.63636,13.77273c-7.53116,0 -13.63636,-6.16626 -13.63636,-13.77273z" fill="#ffff00" stroke="none" stroke-width="0" stroke-linecap="butt"/><path d="M228.48242,180c0,-6.62742 5.31939,-12 11.88119,-12c6.5618,0 11.88119,5.37258 11.88119,12c0,6.62742 -5.31939,12 -11.88119,12c-6.5618,0 -11.88119,-5.37258 -11.88119,-12z" fill="#000000" stroke="none" stroke-width="0" stroke-linecap="butt"/><path d="M225.40909,181.40913c0,0 10.22065,3.42636 15.18068,3.45707c4.82407,0.02987 14.00114,-3.72979 14.00114,-3.72979" fill="none" stroke="#ff7b00" stroke-width="5" stroke-linecap="round"/></g></g></g></svg>