<svg version="1.1" xmlns="http://www.w3.org/2000/svg" xmlns:xlink="http://www.w3.org/1999/xlink" width="120.05301" height="227.04846" viewBox="0,0,120.05301,227.04846"><defs><linearGradient x1="240.00008" y1="175.50002" x2="240.00008" y2="307.50002" gradientUnits="userSpaceOnUse" id="color-1"><stop offset="0" stop-color="#19191a"/><stop offset="1" stop-color="#babebf"/></linearGradient><linearGradient x1="239.60463" y1="82.45156" x2="239.60463" y2="189.81953" gradientUnits="userSpaceOnUse" id="color-2"><stop offset="0" stop-color="#19191a"/><stop offset="1" stop-color="#babebf"/></linearGradient><linearGradient x1="239.60469" y1="92.48298" x2="239.60469" y2="179.78813" gradientUnits="userSpaceOnUse" id="color-3"><stop offset="0" stop-color="#000000"/><stop offset="1" stop-color="#ffffff"/></linearGradient></defs><g transform="translate(-179.57811,-81.45156)"><g stroke-miterlimit="10"><path d="M206.7501,307.50001l15.14285,-131.8421l37.78325,-0.15789l13.57389,132z" fill="url(#color-1)" fill-rule="nonzero" stroke="#000000" stroke-width="2" stroke-linecap="butt" stroke-linejoin="miter"/><path d="M202.79018,82.45156h73.62889c12.3055,0 22.21206,9.90659 22.21206,22.21206v62.94385c0,12.30547 -9.90655,22.21206 -22.21206,22.21206h-73.62889c-12.30547,0 -22.21206,-9.90659 -22.21206,-22.21206v-62.94385c0,-12.30547 9.90659,-22.21206 22.21206,-22.21206z" fill="url(#color-2)" fill-rule="evenodd" stroke="#000000" stroke-width="2" stroke-linecap="round" stroke-linejoin="round"/><path d="M209.6694,92.48298h59.87056c10.00609,0 18.06151,8.05543 18.06151,18.06151v51.18213c0,10.00606 -8.05542,18.06151 -18.06151,18.06151h-59.87056c-10.00606,0 -18.06151,-8.05543 -18.06151,-18.06151v-51.18213c0,-10.00606 8.05543,-18.06151 18.06151,-18.06151z" fill="url(#color-3)" fill-rule="evenodd" stroke="#000000" stroke-width="2" stroke-linecap="round" stroke-linejoin="round"/><path d="M265.57936,240.18158l-51.15866,0.30634l3.06339,-13.17259l47.48259,-0.30634z" fill="#000000" fill-rule="nonzero" stroke="#000000" stroke-width="2" stroke-linecap="round" stroke-linejoin="miter"/><path d="M211.50004,163.83333c0,5.70694 -4.32791,10.33333 -9.66667,10.33333c-5.33875,0 -9.66667,-4.62639 -9.66667,-10.33333c0,-5.70694 4.32791,-10.33333 9.66667,-10.33333c5.33875,0 9.66667,4.62639 9.66667,10.33333z" fill="#000000" fill-rule="nonzero" stroke="#000000" stroke-width="2" stroke-linecap="butt" stroke-linejoin="miter"/><path d="M217.83337,169.5c0,5.70694 -4.32791,10.33333 -9.66666,10.33333c-5.33875,0 -9.66667,-4.62639 -9.66667,-10.33333c0,-5.70694 4.32792,-10.33334 9.66667,-10.33334c5.33875,0 9.66666,4.6264 9.66666,10.33334z" fill="#000000" fill-rule="nonzero" stroke="#000000" stroke-width="2" stroke-linecap="butt" stroke-linejoin="miter"/><path d="M286.83333,163.5c0,5.70694 -4.32791,10.33333 -9.66666,10.33333c-5.33875,0 -9.66667,-4.62639 -9.66667,-10.33333c0,-5.70694 4.32792,-10.33334 9.66667,-10.33334c5.33875,0 9.66666,4.6264 9.66666,10.33334z" fill="#000000" fill-rule="nonzero" stroke="#000000" stroke-width="2" stroke-linecap="butt" stroke-linejoin="miter"/><path d="M281.16668,169.16667c0,5.70694 -4.32791,10.33333 -9.66666,10.33333c-5.33876,0 -9.66667,-4.62639 -9.66667,-10.33333c0,-5.70694 4.32792,-10.33334 9.66667,-10.33334c5.33875,0 9.66666,4.6264 9.66666,10.33334z" fill="#000000" fill-rule="nonzero" stroke="#000000" stroke-width="2" stroke-linecap="butt" stroke-linejoin="miter"/><path d="M217.83337,101.83334c0,5.70694 -4.32791,10.33333 -9.66666,10.33333c-5.33875,0 -9.66667,-4.62639 -9.66667,-10.33333c0,-5.70694 4.32792,-10.33334 9.66667,-10.33334c5.33875,0 9.66666,4.6264 9.66666,10.33334z" fill="#000000" fill-rule="nonzero" stroke="#000000" stroke-width="2" stroke-linecap="butt" stroke-linejoin="miter"/><path d="M211.50004,109.5c0,5.70694 -4.32791,10.33333 -9.66666,10.33333c-5.33875,0 -9.66667,-4.62639 -9.66667,-10.33333c0,-5.70694 4.32792,-10.33334 9.66667,-10.33334c5.33875,0 9.66666,4.6264 9.66666,10.33334z" fill="#000000" fill-rule="nonzero" stroke="#000000" stroke-width="2" stroke-linecap="butt" stroke-linejoin="miter"/><path d="M283.50004,104.16667c0,5.70694 -4.32791,10.33333 -9.66666,10.33333c-5.33875,0 -9.66667,-4.62639 -9.66667,-10.33333c0,-5.70694 4.32792,-10.33334 9.66667,-10.33334c5.33875,0 9.66666,4.6264 9.66666,10.33334z" fill="#000000" fill-rule="nonzero" stroke="#000000" stroke-width="2" stroke-linecap="butt" stroke-linejoin="miter"/><path d="M285.83333,110.16667c0,5.70694 -4.32791,10.33333 -9.66666,10.33333c-5.33876,0 -9.66667,-4.62639 -9.66667,-10.33333c0,-5.70694 4.32791,-10.33334 9.66667,-10.33334c5.33875,0 9.66666,4.6264 9.66666,10.33334z" fill="#000000" fill-rule="nonzero" stroke="#000000" stroke-width="2" stroke-linecap="butt" stroke-linejoin="miter"/><path d="M197.6667,174.83333c0,-1.38071 1.11929,-2.5 2.5,-2.5c1.38071,0 2.5,1.11929 2.5,2.5c0,1.38071 -1.11929,2.5 -2.5,2.5c-1.38071,0 -2.5,-1.11929 -2.5,-2.5z" fill="#000000" fill-rule="nonzero" stroke="none" stroke-width="0.5" stroke-linecap="butt" stroke-linejoin="miter"/><path d="M278.00004,173.5c0,-1.38071 1.11929,-2.5 2.5,-2.5c1.38071,0 2.5,1.11929 2.5,2.5c0,1.38071 -1.11929,2.5 -2.5,2.5c-1.38071,0 -2.5,-1.11929 -2.5,-2.5z" fill="#000000" fill-rule="nonzero" stroke="none" stroke-width="0.5" stroke-linecap="butt" stroke-linejoin="miter"/><path d="M282.00004,104.16667c0,-1.38071 1.11929,-2.5 2.5,-2.5c1.38071,0 2.5,1.11929 2.5,2.5c0,1.38071 -1.11929,2.5 -2.5,2.5c-1.38071,0 -2.5,-1.11929 -2.5,-2.5z" fill="#000000" fill-rule="nonzero" stroke="none" stroke-width="0.5" stroke-linecap="butt" stroke-linejoin="miter"/><path d="M195.6667,99.5c0,-1.38071 1.11929,-2.5 2.5,-2.5c1.38071,0 2.5,1.11929 2.5,2.5c0,1.38071 -1.11929,2.5 -2.5,2.5c-1.38071,0 -2.5,-1.11929 -2.5,-2.5z" fill="#000000" fill-rule="nonzero" stroke="none" stroke-width="0.5" stroke-linecap="butt" stroke-linejoin="miter"/><path d="M244.1667,87.83334c0,-2.76143 2.23857,-5 5,-5c2.76143,0 5,2.23857 5,5c0,2.76143 -2.23857,5 -5,5c-2.76143,0 -5,-2.23857 -5,-5z" fill="#000000" fill-rule="nonzero" stroke="none" stroke-width="0.5" stroke-linecap="butt" stroke-linejoin="miter"/><path d="M260.83333,87.83334c0,-2.76143 2.23858,-5 5,-5c2.76142,0 5,2.23857 5,5c0,2.76143 -2.23858,5 -5,5c-2.76142,0 -5,-2.23857 -5,-5z" fill="#000000" fill-rule="nonzero" stroke="none" stroke-width="0.5" stroke-linecap="butt" stroke-linejoin="miter"/><path d="M255.7638,239.70719c1.405,-1.1431 2.98623,0.04282 2.98623,0.04282l0.14645,1.02513c0.61785,-0.67504 0.97565,-2.2834 1.85355,-2.02513c4.37977,1.28848 4.37878,4.98781 3.96772,8.40046c-0.41373,3.43479 -1.51307,6.25681 -3.12039,8.89126l0.45054,0.19308l-1.47731,3.44705c-0.36946,0.9192 -1.26922,1.56815 -2.32056,1.56815c-1.38071,0 -2.5,-1.11929 -2.5,-2.5v-3c0,-3.00043 -0.26675,-5.80724 -0.48783,-8.75365c-0.0594,-0.79163 0.51873,-2.36884 -0.27511,-2.36561c-0.63918,0.0026 -1.21737,0.39017 -1.82606,0.58525c0,0 -2.46598,0.411 -2.87698,-2.05499c-0.411,-2.46598 2.05499,-2.87698 2.05499,-2.87698c1.13063,-0.11235 2.31976,-0.6513 3.42477,-0.57684z" fill="#000000" fill-rule="nonzero" stroke="none" stroke-width="0.5" stroke-linecap="butt" stroke-linejoin="miter"/><path d="M221.25003,237.25001c0,-1.38071 1.11929,-2.5 2.5,-2.5c0.48908,0 0.94536,0.14045 1.3307,0.3832l0.37143,-0.868c0,0 0.9848,-2.29787 3.28267,-1.31306c2.29787,0.9848 1.31306,3.28266 1.31306,3.28266l-0.06905,0.16086c0.22047,-0.18838 0.444,-0.37702 0.67073,-0.56621l1.3327,-1.34722c0,0 1.76776,-1.76776 3.53553,0c1.76776,1.76776 0,3.53554 0,3.53554l-1.6673,1.65278c-0.0795,0.06616 -0.15852,0.13219 -0.2371,0.19811c1.63664,0.49647 1.63664,2.38133 1.63664,2.38133c-0.02176,3.74085 0.72941,6.41395 1.45145,10.00971l0.31632,-0.27748c0,0 1.76776,1.76777 0,3.53554c-1.76776,1.76777 -3.53553,0 -3.53553,0l-1.68368,-2.27748c-0.74069,-3.71958 -1.447,-6.56151 -1.5389,-10.33082c-1.60156,1.59277 -3.0417,3.27772 -4.47531,5.29362c0,0 -1.10738,1.55033 -2.74211,0.97748c-0.17293,0.05955 -0.36173,0.09889 -0.56688,0.10965c-0.10808,1.56813 -0.22535,3.097 -0.22535,4.45977c-0.83334,1.66666 -1.66666,3.33333 -2.5,5l-2.5,-5c0,-1 0,-2 0,-3c0,-1.18275 0,-2.44583 0,-3.40563c-0.29388,-0.36479 -0.5,-0.87652 -0.5,-1.59437c0,-0.55702 0.12411,-0.98993 0.31703,-1.32639c-0.15906,-1.10982 -0.29656,-2.21455 0.18297,-3.17361c0.05107,-0.10215 0.11945,-0.17629 0.20157,-0.2282l2.29843,-4.7718c0.44894,0.89788 1.00858,1.75482 1.5,2.63699z" fill="#000000" fill-rule="nonzero" stroke="none" stroke-width="0.5" stroke-linecap="butt" stroke-linejoin="miter"/><path d="M238.75946,189.1783c1.75886,-1.04493 5.39057,-0.46205 5.39057,2.0717c0,2.91854 -2.90777,1.6807 -3.81421,3.71859c-0.47538,1.06878 0.18731,4.22536 -0.73126,4.75025l-0.07081,0.04047c-0.07894,0.31105 -0.23066,0.57574 -0.49166,0.76979c0.00311,0.25069 -0.00661,0.50012 -0.02995,0.74733c0.62113,1.17215 0.93563,2.20457 0.75677,2.91998c-1.97521,7.90084 -6.67153,-3.22494 -8.13314,-4.72513c-0.54173,-0.55603 -2.51891,-2.22776 -3.74102,-3.35879c-0.36533,-0.21252 -0.6719,-0.51498 -0.88937,-0.87704c-2.35109,-0.05872 -4.36023,-0.34662 -5.02719,-0.79125c-1.30056,-0.08829 -2.32816,-1.17123 -2.32816,-2.49419c0,-1.38071 1.11929,-2.5 2.5,-2.5c0.1062,0 0.21086,0.00662 0.31357,0.01948c3.2303,-0.90563 8.19703,0.24819 10.28643,0.28052c0.92408,0.0143 2.15513,0.19353 3.09603,0.69433c0.47885,-0.67628 1.07466,-1.09433 1.80397,-1.09433c0.28282,0 0.53752,0.01688 0.76646,0.04901c0.11206,-0.0778 0.2264,-0.15146 0.34297,-0.22071z" fill="#000000" fill-rule="nonzero" stroke="none" stroke-width="0.5" stroke-linecap="butt" stroke-linejoin="miter"/><path d="M255.81887,190.29547c0.03645,0.02151 0.07232,0.04393 0.10755,0.06721c0.58638,-1.28532 4.04798,-0.9224 4.26095,-0.83419c1.15662,0.47908 0.85793,-0.27671 1.06266,1.22151c0.27312,1.99868 -1.04082,2.09932 -1.38354,3.50638c-0.52111,2.13944 -1.00016,4.29072 -1.39417,6.45718c-0.34159,1.87822 -0.98483,4.47781 -3.65494,3.23378c-2.35052,-1.09513 -3.27197,-6.72152 -4.97539,-8.49901c-1.03589,-0.30534 -1.79196,-1.26353 -1.79196,-2.39832c0,-1.07803 -1.01766,-3.0967 -0.06131,-3.44767c0.42056,-0.26161 2.62426,0.72048 3.24102,0.82597c1.57889,-0.69675 4.03319,-1.10573 4.58912,-0.13284z" fill="#000000" fill-rule="nonzero" stroke="none" stroke-width="0.5" stroke-linecap="butt" stroke-linejoin="miter"/><text transform="translate(199.5,136.50005) scale(0.5,0.5)" font-size="40" xml:space="preserve" fill="#000000" fill-rule="nonzero" stroke="none" stroke-width="1" stroke-linecap="butt" stroke-linejoin="miter" font-family="Pixel" font-weight="normal" text-anchor="start"><tspan x="0" dy="0">You can</tspan></text></g></g></svg>