<svg version="1.1" xmlns="http://www.w3.org/2000/svg" xmlns:xlink="http://www.w3.org/1999/xlink" width="35.02404" height="35.02367" viewBox="0,0,35.02404,35.02367"><g transform="translate(-222.53847,-162.5385)"><g fill-rule="evenodd" stroke-linecap="round" stroke-linejoin="round" stroke-miterlimit="10"><path d="M257.56251,169.8317v20.49804c0,4.00745 -3.22497,7.23243 -7.23242,7.23243h-20.5c-3.66107,0 -6.66147,-2.69385 -7.1543,-6.21484c0.7952,3.03475 3.54108,5.26367 6.83204,5.26367h20.0332c3.9166,0 7.07032,-3.15372 7.07032,-7.07031v-20.03321c0,-3.2976 -2.23906,-6.0451 -5.28321,-6.83398c3.52994,0.48496 6.23438,3.49081 6.23438,7.15821z" fill-opacity="0.29839" fill="#000000" stroke="none" stroke-width="4.54219"/><path d="M229.60814,162.5385h20.03379c3.9166,0 7.06966,3.15307 7.06966,7.06966v20.03379c0,3.91659 -3.15306,7.06966 -7.06966,7.06966h-20.03379c-3.91659,0 -7.06966,-3.15307 -7.06966,-7.06966v-20.03379c0,-3.91659 3.15307,-7.06966 7.06966,-7.06966z" fill="#007500" stroke="none" stroke-width="4.43922"/><path d="M227.91452,173.39283h23.57928c1.42855,0 2.5786,1.15006 2.5786,2.5786v7.30718c0,1.42855 -1.15006,2.5786 -2.5786,2.5786h-23.57928c-1.42855,0 -2.5786,-1.15006 -2.5786,-2.5786v-7.30718c0,-1.42855 1.15006,-2.5786 2.5786,-2.5786z" fill="#c5f4ff" stroke="#000000" stroke-width="0.5"/><path d="M230.27575,174.67587h19.00478c1.15141,0 2.07835,0.92694 2.07835,2.07835v5.88955c0,1.1514 -0.92694,2.07835 -2.07835,2.07835h-19.00478c-1.1514,0 -2.07835,-0.92694 -2.07835,-2.07835v-5.88955c0,-1.1514 0.92694,-2.07835 2.07835,-2.07835z" fill="#000000" stroke="#000000" stroke-width="0.5"/></g></g></svg>