<svg version="1.1" xmlns="http://www.w3.org/2000/svg" xmlns:xlink="http://www.w3.org/1999/xlink" width="35.17311" height="35.17311" viewBox="0,0,35.17311,35.17311"><g transform="translate(-222.41344,-162.41344)"><g stroke="#ffffff" stroke-miterlimit="10"><path d="M229.98311,162.91345h20.03379c3.9166,0 7.06966,3.15307 7.06966,7.06966v20.03379c0,3.91659 -3.15306,7.06966 -7.06966,7.06966h-20.03379c-3.91659,0 -7.06966,-3.15307 -7.06966,-7.06966v-20.03379c0,-3.91659 3.15307,-7.06966 7.06966,-7.06966z" fill="#ff6f00" fill-rule="evenodd" stroke-width="1" stroke-linecap="round" stroke-linejoin="round"/><path d="M232.4375,185v-10h7.5v10z" fill="none" fill-rule="nonzero" stroke-width="0.5" stroke-linecap="butt" stroke-linejoin="miter"/><path d="M240.0625,185v-10h7.5v10z" fill="none" fill-rule="nonzero" stroke-width="0.5" stroke-linecap="butt" stroke-linejoin="miter"/><g fill="none" fill-rule="nonzero" stroke-width="0.5" stroke-linecap="round" stroke-linejoin="miter"><path d="M231.95054,185.85372l-5.92146,6.77824l4.65917,-0.7178"/><path d="M226.08222,192.43575l0.17168,-3.74434"/></g><g fill="none" fill-rule="nonzero" stroke-width="0.5" stroke-linecap="round" stroke-linejoin="miter"><path d="M239.81653,173.86724l0.00333,-9.00046l-3.03791,3.60475"/><path d="M239.90886,165.04954l2.33305,2.93368"/></g><g fill="none" fill-rule="nonzero" stroke-width="0.5" stroke-linecap="round" stroke-linejoin="miter"><path d="M248.31805,185.44342l6.26634,6.46075l-0.33077,-4.70253"/><path d="M254.39323,191.83501l-3.71739,-0.48017"/></g></g></g></svg>