<svg version="1.1" xmlns="http://www.w3.org/2000/svg" xmlns:xlink="http://www.w3.org/1999/xlink" width="131.79699" height="251.08825" viewBox="0,0,131.79699,251.08825"><g transform="translate(-172.86609,-57.41176)"><g stroke-miterlimit="10"><path d="M206.75006,307.5l15.14285,-131.8421l37.78325,-0.15789l13.57389,132z" fill="#9200ff" fill-rule="nonzero" stroke="#000000" stroke-width="2" stroke-linecap="butt" stroke-linejoin="miter"/><path d="M219.70028,204.11263l3.12142,-26.32765l35.83075,-0.14203l2.76735,26.1059c0,0 -7.51543,4.19603 -21.55904,4.50964c-12.48458,0.27879 -20.16049,-4.14586 -20.16049,-4.14586z" fill="#6700b5" fill-rule="nonzero" stroke="#000000" stroke-width="0" stroke-linecap="butt" stroke-linejoin="miter"/><path d="M252.61664,176.65643h-25.10959" fill="none" fill-rule="nonzero" stroke="#000000" stroke-width="2" stroke-linecap="round" stroke-linejoin="miter"/><path d="M228.64281,220.87185v-42.47179h6.35092v42.47179z" fill="#9200ff" fill-rule="nonzero" stroke="#000000" stroke-width="2" stroke-linecap="butt" stroke-linejoin="miter"/><path d="M245.55079,220.3148v-42.4718h6.35092v42.4718z" fill="#9200ff" fill-rule="nonzero" stroke="#000000" stroke-width="2" stroke-linecap="butt" stroke-linejoin="miter"/><g><path d="M174.26084,179.51547v-121.10371h129.29251v121.10372z" fill="#007500" fill-rule="nonzero" stroke="#000000" stroke-width="2" stroke-linecap="butt" stroke-linejoin="miter"/><path d="M208.73419,112.97159c2.10081,2.1967 4.23755,4.37622 6.19647,6.6407c0.265,0.30634 0.65422,0.69086 1.08326,1.11251c0.28969,-1.10761 0.56665,-2.21605 0.67722,-3.33876c0.26714,-2.71252 -1.06569,-5.55885 0.03039,-8.15846c0.08275,-0.19627 0.17512,-0.38931 0.27608,-0.57944l-0.12259,-0.02233l1.05482,-3.07399c0.69355,-2.22661 3.42674,-3.88879 6.69279,-3.88879c2.28608,0 4.31108,0.81435 5.55831,2.06661l5.33407,5.23177l-0.03593,0.01944l0.1342,0.07944c6.31243,6.89098 8.4605,8.42251 11.78065,14.47617c0.44844,0.00054 0.89675,0.00339 1.3451,0.0089c0.59012,-1.21709 1.27218,-2.44767 2.00199,-3.6624l2.60216,-7.58328c0.69355,-2.22661 3.42673,-3.88879 6.69279,-3.88879c2.19095,0 4.14211,0.74799 5.39862,1.91259l2.13968,1.9486l-0.24454,0.14253l0.55352,0.2458v-4.40964c0,-2.76143 3.07261,-5 6.86288,-5c3.71515,0 6.74081,2.15072 6.85928,4.83644l0.21464,4.19694c0.13867,0.98273 0.26118,1.96691 0.38269,2.95117c0.09789,0.32549 0.13255,0.665 0.12542,1.0138c0.11489,0.92212 0.23346,1.8439 0.36821,2.76423c0.28823,-0.08395 0.58774,-0.16184 0.89903,-0.23331c3.45373,-0.79301 6.63878,2.41375 9.04152,4.38756c2.90805,2.38892 3.445,6.63813 4.55451,9.63533c0.83014,2.24251 2.60895,4.3626 2.70099,6.68427c0.00139,0.03505 0.00266,0.0701 0.00382,0.10514l0.03177,-0.00579l2.14195,6.24214c0.15792,0.42094 0.24223,0.86403 0.24223,1.32146c0,2.76143 -3.07261,5 -6.86288,5c-0.19333,0 -0.38479,-0.00582 -0.57407,-0.01724l-0.20394,2.08016c-0.22314,2.61464 -3.20446,4.68494 -6.84948,4.68494c-0.44779,0 -0.88555,-0.03125 -1.30942,-0.09091v0.64796c0,2.76143 -3.07262,5 -6.86289,5c-3.0872,0 -5.69828,-1.48512 -6.56074,-3.52824l-1.0396,-2.27221l0.23109,-0.05613l-0.35336,-0.24167c-0.38734,-1.39688 -0.93534,-2.77412 -1.42643,-4.15744l-0.01427,0.01907c-1.14391,1.60134 -3.4425,2.69491 -6.09166,2.69491c-2.88608,0 -5.35608,-1.29794 -6.37029,-3.13632l-1.51253,-2.57124c-0.58126,-0.84399 -1.34136,-1.74582 -2.14373,-2.68641v1.4093c0,2.76143 -3.07262,5 -6.86289,5c-3.49533,0 -6.38034,-1.90374 -6.80817,-4.36567l-0.64912,-3.31042c-1.12324,0.5844 -2.49848,0.92824 -3.98394,0.92824c-2.73968,0 -5.10441,-1.16959 -6.20484,-2.86082l-2.65761,-3.87244l0.26553,-0.09672l-0.56377,-0.40461c-0.00997,-0.02863 -0.01992,-0.05725 -0.02984,-0.08589l-0.3459,1.76402c-0.42783,2.46193 -3.31285,4.36567 -6.80817,4.36567c-1.3892,0 -2.68199,-0.30071 -3.76242,-0.81768c-1.25152,1.21927 -3.24902,2.00848 -5.49952,2.00848c-2.88609,0 -5.35609,-1.29794 -6.37029,-3.13632l-1.57216,-2.67261c-0.25464,-0.43292 -0.58147,-0.98707 -0.94791,-1.60989c-0.00503,0.37573 -0.03039,0.75154 -0.08061,1.12743l1.08046,7.87173c0.02857,0.18527 0.04325,0.37361 0.04325,0.56445c0,2.76143 -3.07262,5 -6.86289,5c-0.20323,0 -0.40439,-0.00644 -0.60313,-0.01905l0.33717,2.37459c0.0305,0.19128 0.04618,0.38585 0.04618,0.5831c0,2.76143 -3.07262,5 -6.86289,5c-3.21717,0 -5.91731,-1.6128 -6.66029,-3.7892l-1.59524,-4.26147l0.11018,-0.0219l-0.16756,-0.1423c-3.89014,-14.08564 -6.69246,-28.83473 -6.72228,-43.22626c0,0 0,-5 6.86288,-5c6.86288,0 6.86288,5 6.86288,5c-0.00262,1.09573 0.01261,2.19423 0.04474,3.29491c1.86856,0.54493 3.33157,1.67114 3.96775,3.07169l0.44841,0.91472c0.89736,-0.48279 1.8493,-0.86688 2.81136,-1.08871c-0.22108,-0.48607 -0.42293,-0.9767 -0.59977,-1.47326l-4.65205,-5.6488c-0.65663,-0.76679 -1.03605,-1.67258 -1.03605,-2.64294c0,-2.76143 3.07262,-5 6.86288,-5c1.01291,0 1.97456,0.15987 2.84002,0.44687c0.31807,-0.03292 0.64317,-0.04994 0.97372,-0.04994c3.0872,0 5.69828,1.48512 6.56074,3.52824l0.95398,2.08508c1.2073,1.02457 1.60761,2.40568 2.2034,3.71057zM264.40446,132.92581c-1.11347,0.74768 -2.4846,1.08504 -3.49523,1.23725c0.26197,0.22107 0.51948,0.43609 0.77253,0.64232c1.69263,1.37948 1.45457,3.51511 2.15339,5.32116c1.59625,-1.04882 3.54678,-1.87833 5.35041,-2.33244l-2.43577,-2.12951l0.1248,-0.07577c-0.28597,-0.19914 -0.55612,-0.41177 -0.80783,-0.64012c-0.68496,-0.62139 -1.22116,-1.30277 -1.6623,-2.02289z" fill="#ff0000" fill-rule="nonzero" stroke="none" stroke-width="0.5" stroke-linecap="butt" stroke-linejoin="miter"/><path d="M185.58255,87.8663h106.26448c6.43804,0 11.62097,5.18296 11.62097,11.62098v32.93116c0,6.43802 -5.18296,11.62098 -11.62097,11.62098h-106.26447c-6.43802,0 -11.62099,-5.18296 -11.62099,-11.62098v-32.93116c0,-6.43801 5.18297,-11.62098 11.62099,-11.62098z" fill="#c5f4ff" fill-rule="evenodd" stroke="#000000" stroke-width="2" stroke-linecap="round" stroke-linejoin="round"/><path d="M196.2238,93.64855h85.64864c5.18902,0 9.36645,4.17744 9.36645,9.36645v26.54235c0,5.18901 -4.17744,9.36645 -9.36645,9.36645h-85.64864c-5.18901,0 -9.36646,-4.17744 -9.36646,-9.36645v-26.54235c0,-5.18901 4.17745,-9.36645 9.36646,-9.36645z" fill="#000000" fill-rule="evenodd" stroke="#000000" stroke-width="0" stroke-linecap="round" stroke-linejoin="round"/><path d="M173.8661,169.3784l48.82272,-0.39693v-7.14479h32.15155v5.95399h48.82272" fill="none" fill-rule="nonzero" stroke="#000000" stroke-width="2" stroke-linecap="round" stroke-linejoin="miter"/><g fill="#00ffff" fill-rule="nonzero" stroke="none" stroke-width="0" stroke-linecap="butt" stroke-linejoin="miter"><path d="M220.61217,121.90864c0,7.58313 -4.23043,13.73049 -9.44894,13.73049c-5.2185,0 -9.44893,-6.14735 -9.44893,-13.73049c0,-7.58313 4.23043,-13.73048 9.44893,-13.73048c5.2185,0 9.44894,6.14735 9.44894,13.73048z"/><path d="M197.28513,106.70176v-4.72447h24.2129v4.72447z"/><path d="M216.77355,104.93009v-8.26782h4.42919v8.26782z"/></g><g fill="#00ffff" fill-rule="nonzero" stroke="none" stroke-width="0" stroke-linecap="butt" stroke-linejoin="miter"><path d="M265.41195,108.8119c5.2185,0 9.44893,6.14735 9.44893,13.73048c0,7.58313 -4.23043,13.73049 -9.44893,13.73049c-5.2185,0 -9.44894,-6.14735 -9.44894,-13.73049c0,-7.58313 4.23044,-13.73048 9.44894,-13.73048z"/><path d="M255.07716,107.3355v-4.72447h24.2129v4.72447z"/><path d="M255.37244,105.56383v-8.26782h4.42919v8.26782z"/></g></g></g></g></svg>