<svg version="1.1" xmlns="http://www.w3.org/2000/svg" xmlns:xlink="http://www.w3.org/1999/xlink" width="158.32584" height="267.22501" viewBox="0,0,158.32584,267.22501"><g transform="translate(-157.71093,-46.38751)"><g data-paper-data="{&quot;isPaintingLayer&quot;:true}" fill-rule="nonzero" stroke-linejoin="miter" stroke-miterlimit="10" stroke-dasharray="" stroke-dashoffset="0" style="mix-blend-mode: normal"><path d="M179.28382,313.61252v-267.22501h123.18203v267.22501z" fill-opacity="0.01" fill="#000000" stroke="none" stroke-width="0" stroke-linecap="butt"/><path d="M206.09196,308.15819l15.14285,-131.8421l37.78325,-0.15789l13.57389,132z" fill="#005621" stroke="#000000" stroke-width="2" stroke-linecap="butt"/><path d="M207.97782,202.30929v-20.33636h61.61614v20.33636z" fill="#963500" stroke="#000000" stroke-width="2" stroke-linecap="butt"/><path d="M175.84005,136.84616c0,-33.30185 28.7599,-60.29833 64.23702,-60.29833c35.47712,0 64.23702,26.99649 64.23702,60.29833c0,33.30185 -28.7599,60.29833 -64.23702,60.29833c-35.47712,0 -64.23702,-26.99649 -64.23702,-60.29833z" fill="#ffa57c" stroke="#000000" stroke-width="2" stroke-linecap="butt"/><path d="M257.30283,156.44563c8.48525,-1.65135 11.66722,2.75225 11.66722,2.75225l2.95255,4.11896c0.66435,1.53379 1.32871,3.06757 1.99306,4.60136c0,0 1.96588,4.59106 -6.88057,5.61129c-8.84645,1.02023 -10.81233,-3.57082 -10.81233,-3.57082c-0.55816,-1.32123 -1.11631,-2.64245 -1.67447,-3.96368l-2.54874,-3.49441c0,0 -3.18197,-4.4036 5.30328,-6.05495z" fill="#ff8d7d" stroke="none" stroke-width="0.5" stroke-linecap="butt"/><path d="M229.93536,178.78113c0,0 17.65966,0 21.75047,0c1.60763,0 5.48382,1.82117 5.48382,1.82117" fill="none" stroke="#000000" stroke-width="2" stroke-linecap="round"/><path d="M267.12931,160.75627c-12.968,0 -23.48065,-10.51265 -23.48065,-23.48065c0,-12.968 10.51265,-23.48065 23.48065,-23.48065c12.968,0 23.48065,10.51265 23.48065,23.48065c0,12.968 -10.51265,23.48065 -23.48065,23.48065z" fill="#ffffff" stroke="#000000" stroke-width="2" stroke-linecap="butt"/><path d="M257.39558,102.09249c10.49045,0 10.49045,3 10.49045,3v2.42822c0,3.12046 -1.57951,6.04883 2.51621,8.96305c0,0 3.68344,2.80899 -6.13907,3.86236c-9.82251,1.05337 -13.50595,-1.75562 -13.50595,-1.75562c-4.68099,-3.74393 -3.85208,-7.1251 -3.85208,-11.06979v-2.42822c0,0 0,-3 10.49045,-3z" fill="#ff8d7d" stroke="none" stroke-width="0.5" stroke-linecap="butt"/><path d="M267.01671,153.52784c-9.12807,0 -16.52783,-7.39977 -16.52783,-16.52784c0,-9.12808 7.39977,-16.52784 16.52783,-16.52784c9.12807,0 16.52783,7.39977 16.52783,16.52784c0,9.12808 -7.39977,16.52784 -16.52783,16.52784z" fill="#b7b7b7" stroke="none" stroke-width="0" stroke-linecap="butt"/><path d="M243.64868,137.27563c0,-12.968 10.51265,-23.48065 23.48065,-23.48065c12.968,0 23.48065,10.51265 23.48065,23.48065c0,1.2138 -46.96131,0 -46.96131,0z" fill="#ffa57c" stroke="#000000" stroke-width="2" stroke-linecap="butt"/><path d="M214.45903,160.29277c-12.968,0 -23.48065,-10.51265 -23.48065,-23.48065c0,-12.968 10.51265,-23.48065 23.48065,-23.48065c12.968,0 23.48065,10.51265 23.48065,23.48065c0,12.968 -10.51265,23.48065 -23.48065,23.48065z" fill="#ffffff" stroke="#000000" stroke-width="2" stroke-linecap="butt"/><path d="M214.34644,153.06434c-9.12807,0 -16.52783,-7.39977 -16.52783,-16.52784c0,-9.12808 7.39977,-16.52784 16.52783,-16.52784c9.12807,0 16.52783,7.39977 16.52783,16.52784c0,9.12808 -7.39977,16.52784 -16.52783,16.52784z" fill="#000000" stroke="none" stroke-width="0" stroke-linecap="butt"/><path d="M269.85679,114.7733l0.99129,2.4951c1.61036,4.05332 3.63362,7.20396 1.5312,12.87863c0,0 0.38691,6.31387 -1.37069,6.91497c-2.95642,1.01109 -15.1048,-0.6541 -15.1048,-0.6541c1.98717,-4.59359 -0.0557,-7.7414 -1.32958,-10.94779l-2.50226,-4.57269c0,0 0.28627,-1.00503 8.42321,-5.10088c8.13694,-4.09586 9.36164,-1.01324 9.36164,-1.01324z" fill="#ff8d7d" stroke="none" stroke-width="0.5" stroke-linecap="butt"/><path d="M190.9784,136.81213c0,-12.968 10.51265,-23.48065 23.48065,-23.48065c12.968,0 23.48065,10.51265 23.48065,23.48065c0,1.2138 -46.96131,0 -46.96131,0z" fill="#ffa57c" stroke="#000000" stroke-width="2" stroke-linecap="butt"/><path d="M258.11752,77.52564c13.32443,6.25781 30.389,16.87894 37.36329,30.26667c3.56851,6.85004 7.22054,13.18219 8.97539,20.86252c0.55242,2.41773 1.54564,7.44993 -0.77938,9.10905c-1.17872,0.84113 -2.60188,1.29259 -3.73138,2.20296c-1.04145,0.8394 -4.25411,4.03607 -6.11329,3.60921c-6.48985,-1.49004 -13.52474,-4.1266 -17.51769,-10.10848c-2.06941,-3.1002 -3.40971,-5.78951 -4.20677,-9.39837c-0.04093,-0.18528 -0.05904,-3.0557 -0.35234,-3.69124c-0.63972,-1.38621 -5.39272,-5.37824 -6.26641,-6.32044c-0.51995,-0.56073 -2.04187,-0.14732 -2.64318,-0.44161c-0.6162,-0.30157 -3.7371,-2.48654 -4.47399,-2.50032c-2.60827,-0.0488 -5.76343,-0.12937 -8.07166,-1.45305c-1.13662,-0.6518 -4.46967,-5.6427 -5.74603,-5.95641c-2.43523,-0.59855 -6.23907,-0.08098 -7.89499,-1.87704c-4.67649,-5.07227 -5.78849,-9.18146 -4.96708,-16.07524c0.00187,-0.01569 0.00374,-0.03147 0.00559,-0.04734c0.00182,-0.92044 0.10719,-1.81576 0.30471,-2.6742c1.17772,-5.11864 5.63168,-8.92583 10.94631,-8.92583c2.61284,0 5.01767,0.92021 6.92742,2.46406c2.88973,0.59589 5.54755,-0.31009 8.24148,0.95511z" fill="#723b29" stroke="none" stroke-width="0.5" stroke-linecap="butt"/><path d="M211.31663,70.16061c0.42212,0 0.83813,0.02615 1.2465,0.07693c1.67256,-1.61649 3.90747,-2.65481 6.38269,-2.79293c0.77633,-2.51963 2.8014,-4.78698 4.67189,-6.65747c1.21478,-1.21478 3.29172,-1.06792 5,-1.25c2.22989,-0.23768 4.48887,0.13096 6.72756,0c2.626,-0.15361 12.8981,-3.05259 14.73828,0.16774l2.96276,5.18484c0.25521,0.01812 0.51019,0.05467 0.76421,0.11093c0.67246,0 1.32942,0.06638 1.96469,0.19294c0.26334,0.05246 0.52295,0.11527 0.77839,0.18797c1.22709,-0.76241 2.52225,-1.29149 3.93454,-1.29149c3.35928,0 6.37464,2.62463 8.75,5c1.15748,1.15748 1.02078,3.10497 1.21805,4.75695c0.49826,0.94106 0.89069,1.89977 0.69295,2.88847c-0.45346,2.2673 -1.0937,4.80105 -2.36021,6.76792c0.69826,1.36461 1.09216,2.91076 1.09216,4.54892c0.07094,0.1419 0.12896,0.2891 0.1749,0.44052c1.22542,1.6598 1.94979,3.71209 1.94979,5.93357c0.98796,1.57538 0.09008,3.50834 -1.53047,5.31915c-1.16084,1.84449 -2.90755,3.28313 -4.97901,4.05478c-1.20148,0.75199 -2.30821,1.31463 -3.07147,1.58535c-2.24453,0.79612 -4.81261,1.24018 -7.2345,1.04274c-0.91712,0.27719 -1.88988,0.4262 -2.89745,0.4262c-1.22556,0.94888 -3.11185,0.07077 -4.84337,-1.24909c-0.53036,-0.29417 -1.03118,-0.63515 -1.49685,-1.01738c-0.28493,-0.02302 -0.56113,-0.04532 -0.82757,-0.06625c-2.42977,1.00292 -4.96343,1.70434 -7.00811,2.22989c-1.1381,0.29254 -2.30121,0.56488 -3.47783,0.82572c-2.64553,2.76386 -5.65292,5.17222 -7.40347,6.82283c-0.80151,0.75575 -2.11387,2.09307 -3.5204,3.20423c-0.91045,7.19227 -7.75099,14.74488 -12.9951,18.29532c-1.73058,1.17166 -4.87532,3.1299 -7.56263,3.59716c-2.16322,2.893 -5.93747,4.41181 -9.73287,5.14273c-7.70769,1.48436 -20.85504,-1.05107 -25.90599,-7.93309c-6.75788,-9.20776 -1.86874,-13.2466 1.80553,-22.11709c1.97875,-4.77712 5.05156,-10.25322 10.79703,-9.80007c0.83628,-2.12796 1.49543,-4.43425 2.99928,-5.89012c0.30786,-0.29804 0.65113,-0.56045 1.03857,-0.77838c0.22328,-0.1256 0.44909,-0.24128 0.67716,-0.34823c0.37713,-0.6261 0.82091,-1.2075 1.32152,-1.73439c0.22694,-0.28021 0.46793,-0.56433 0.72296,-0.85285c-0.39837,-0.31337 -0.78051,-0.62644 -1.14395,-0.93744c-1.40587,-1.20305 -3.07294,-2.59297 -3.43647,-4.25441c-0.47851,-2.18697 -2.62442,-9.25418 0.36531,-10.9626l8.61816,-4.92466c0.9737,0.5564 1.91353,1.0984 2.82947,1.62956c2.02907,-2.27617 5.50489,-3.37988 10.19177,-2.70547c1.80475,-1.77495 4.2803,-2.86995 7.0116,-2.86995z" fill="#7c402d" stroke="none" stroke-width="0.5" stroke-linecap="butt"/><path d="M261.69732,180.86273c0,-0.51471 0.85219,-2.06122 1.9895,-3.73013c-1.79467,-0.31581 -3.57295,-0.56679 -5.33186,-0.56752c-5.66305,-0.00235 -11.02256,-1.82248 -16.68561,-1.82066c-7.33322,0.00235 -14.96997,1.82718 -22.30318,1.82643c-0.09132,0.28893 -0.20316,0.56787 -0.33574,0.83303c-0.26471,0.52944 -2.05568,2.40423 -2.07107,2.87419c-0.01145,0.34986 -0.0384,0.70731 -0.08312,1.06608c11.93487,5.91079 20.39942,3.54612 39.25221,3.43259c1.87776,-0.01131 3.83337,-0.44522 5.81208,-1.18331c-0.20549,-0.88948 -0.24321,-1.85301 -0.24321,-2.73071zM192.95481,163.67909c0.19405,-0.05285 0.41834,-0.08583 0.66905,-0.10135c0.22721,-0.03161 0.4593,-0.04794 0.69521,-0.04794c0.45615,0 0.89803,0.06109 1.31791,0.17552c4.10029,0.58702 10.6808,2.84532 13.55496,2.85976c16.59265,0.08336 33.18577,-0.04917 49.77855,0c4.75645,0.01409 9.98854,2.8175 14.76112,1.66692c3.9026,-0.94084 7.3521,-4.51862 10.66344,-6.50542c1.26767,-0.7606 2.77336,-0.28621 4.14962,-0.68698c0.91605,-0.26675 2.88548,-1.08004 3.48634,-0.87976c4.22992,1.40998 4.96099,2.86786 4.25815,6.35037c0.00796,0.10226 0.01469,0.20565 0.02017,0.31014c0.16337,3.11195 -5.36303,6.86091 -7.06639,8.55732c-5.5654,5.54273 -9.77149,10.43122 -16.68718,13.95543c-4.40422,2.24438 -10.79644,5.4271 -16.01349,5.44365c-4.77291,0.01514 -10.80206,1.8442 -16.99744,1.84824c-5.19289,0.00339 -10.59285,-1.81709 -14.59346,-1.81709c-10.62654,0 -25.95947,-11.42306 -32.99165,-18.45523c-1.14854,-1.14854 -2.35789,-2.27914 -3.50224,-3.47789c-0.00032,-0.00034 -0.00064,-0.00067 -0.00097,-0.00101c-0.56907,-0.08003 -1.1074,-0.25585 -1.59814,-0.51064c-1.60371,-0.83264 -2.69927,-2.50857 -2.69927,-4.44039c0,-1.92711 1.09023,-3.59958 2.68756,-4.43428c0.17195,-0.11894 0.35944,-0.21773 0.5657,-0.29219c1.87204,-0.67581 3.71798,-0.3748 5.4917,0.49722c0.01681,-0.00496 0.03372,-0.00977 0.05075,-0.01441z" fill="#7c402d" stroke="none" stroke-width="0.5" stroke-linecap="butt"/><path d="M199.81125,181.04088l2.22722,1.90518c0,0 0.99521,0.85304 1.1061,2.08922c0.24734,0.1642 0.49465,0.38172 0.73694,0.6644c1.95237,2.27777 -0.3254,4.23014 -0.3254,4.23014l-3.55496,2.49761c-1.80537,-0.71867 -4.08633,-0.73914 -5.41611,-2.15601c-0.95891,-1.02172 -0.50584,-2.76999 -0.5221,-4.17112c-0.00535,-0.46104 0.689,-0.90561 0.45858,-1.30497c-0.17792,-0.30838 -0.45543,0.65969 -0.80951,0.69674c-1.9006,0.19888 -3.82773,0.13657 -5.73291,-0.01212c-2.57628,-0.20106 -8.53229,-1.38829 -9.07877,-4.71922c-0.33041,-2.01387 2.3248,-3.35852 3.59641,-4.95471c1.50867,-1.89376 3.15705,-3.70265 4.39341,-5.78444c0,0 1.54349,-2.57247 4.11597,-1.02899c2.57248,1.54349 1.02899,4.11596 1.02899,4.11596c-0.30743,0.50799 -0.61674,1.0403 -0.9361,1.57941c0.0846,-0.04125 0.16827,-0.08367 0.25086,-0.1275l2.5229,-0.94794c0,0 2.80899,-1.05337 3.86236,1.75562c0.701,1.86933 -0.30851,2.96115 -1.06235,3.48244c1.04126,0.70968 2.08239,1.43592 3.13849,2.19028z" fill="#7c402d" stroke="none" stroke-width="0.5" stroke-linecap="butt"/><path d="M289.01974,172.20742c0.30402,0 0.57723,0.03081 0.82275,0.08619c0.25846,-0.79565 0.88657,-1.64526 2.36341,-1.87247c2.96512,-0.45617 3.42129,2.50894 3.42129,2.50894c0.27962,1.82065 1.50235,7.84559 0.26734,9.33703c-0.74273,0.89694 -5.18038,1.63388 -8.3878,1.68165l0.02629,0.10313l0.11334,-0.068l1.7958,2.993c0.28704,0.46007 0.45289,1.00355 0.45289,1.58577c0,1.65686 -1.34314,3 -3,3c-0.41791,0 -0.81586,-0.08545 -1.17734,-0.23983l-2.97211,-1.18885l0.02924,-0.07309c-0.11843,-0.02475 -0.23655,-0.0514 -0.35434,-0.08013c-3.00353,-0.73247 -5.5368,-4.58875 -8.20715,-6.0771c-1.07061,-0.59671 -3.28185,-1.10878 -4.68585,-1.44891c-0.44154,-0.02146 -2.93354,-0.26369 -2.93354,-2.99792c0,-3 3,-3 3,-3l1.03114,0.08958c3.12891,0.78728 5.43882,1.69904 7.91253,3.29986c0.2307,-0.86965 0.76339,-1.79862 1.70825,-2.79487c1.06201,-1.11978 2.91768,0.0486 4.56062,0.51165c0.02292,-0.9646 0.50112,-1.81647 1.22798,-2.349c0.00005,-0.00053 0.00011,-0.00106 0.00016,-0.00159l-0.01489,-0.00502c0,0 0,-3 3,-3z" fill="#7c402d" stroke="none" stroke-width="0.5" stroke-linecap="butt"/><path d="M304.22424,168.26429c1.17609,2.75985 -1.58376,3.93595 -1.58376,3.93595l-4.825,2.05591c-1.80987,0.82275 -3.61975,1.64549 -5.42962,2.46824c0,0 -2.7311,1.24141 -3.97251,-1.48969c-1.24141,-2.7311 1.48969,-3.97251 1.48969,-3.97251c1.83159,-0.83247 3.66318,-1.66492 5.49477,-2.49739l4.89049,-2.08428c0,0 2.75986,-1.1761 3.93595,1.58376z" fill="#7c402d" stroke="none" stroke-width="0.5" stroke-linecap="butt"/><path d="M209.94254,254.05258v-51.59973h17.30109v51.59973z" fill="#963500" stroke="#000000" stroke-width="2" stroke-linecap="butt"/><path d="M192.20925,236.94961c0,10.28251 -7.72271,18.61814 -17.24916,18.61814c-9.52645,0 -17.24916,-8.33562 -17.24916,-18.61814c0,-10.28251 7.72271,-18.61814 17.24916,-18.61814c9.52645,0 17.24916,8.33562 17.24916,18.61814z" fill-opacity="0.22745" fill="#ffffff" stroke="none" stroke-width="0" stroke-linecap="butt"/><path d="M316.03677,117.09858c0,10.28251 -7.72271,18.61814 -17.24916,18.61814c-9.52645,0 -17.24916,-8.33562 -17.24916,-18.61814c0,-10.28251 7.72271,-18.61814 17.24916,-18.61814c9.52645,0 17.24916,8.33562 17.24916,18.61814z" fill-opacity="0.22745" fill="#ffffff" stroke="none" stroke-width="0" stroke-linecap="butt"/><path d="M201.58999,92.45692c0,10.28251 -7.72271,18.61814 -17.24916,18.61814c-9.52645,0 -17.24916,-8.33562 -17.24916,-18.61814c0,-10.28251 7.72271,-18.61814 17.24916,-18.61814c9.52645,0 17.24916,8.33562 17.24916,18.61814z" fill-opacity="0.22745" fill="#ffffff" stroke="none" stroke-width="0" stroke-linecap="butt"/></g></g></svg>