<svg version="1.1" xmlns="http://www.w3.org/2000/svg" xmlns:xlink="http://www.w3.org/1999/xlink" width="132.09049" height="235.72197" viewBox="0,0,132.09049,235.72197"><g transform="translate(-173.87008,-72.77804)"><g data-paper-data="{&quot;isPaintingLayer&quot;:true}" fill-rule="nonzero" stroke-linejoin="miter" stroke-miterlimit="10" stroke-dasharray="" stroke-dashoffset="0" style="mix-blend-mode: normal"><path d="M206.7501,307.5l15.14285,-131.8421l37.78325,-0.15789l13.57389,132z" fill="#777777" stroke="#000000" stroke-width="2" stroke-linecap="butt"/><g stroke-linecap="butt"><path d="M174.66091,192.14377c0,0 0,-1.0117 0,-2.10334c0,-3.83692 0,-25.9845 0,-25.9845h130.67818v28.08784z" fill="#424242" stroke="none" stroke-width="0"/><path d="M174.95871,184.92153l0.39841,-111.14349h129.29251l0.19921,110.34668l-48.51395,-0.54765l-0.19363,-6.25681l-32.07762,0.23071l-0.27319,6.6159z" fill="#000000" stroke="#000000" stroke-width="2"/></g><path d="M304.96057,184.82911v9.76102l-64.34306,-0.59761l0.38878,-17.53l15.74559,0.19921l0.38878,7.96818z" data-paper-data="{&quot;index&quot;:null}" fill="#000000" stroke="#000000" stroke-width="2" stroke-linecap="round"/><path d="M223.43024,184.61002l0.3948,-7.96818l15.98933,-0.19921l0.3948,17.53l-65.33909,0.59761v-9.76102z" fill="#000000" stroke="#000000" stroke-width="2" stroke-linecap="round"/><path d="M189.39022,137.27563c0,-12.968 10.51265,-23.48065 23.48065,-23.48065c12.968,0 23.48065,10.51265 23.48065,23.48065c0,12.968 -10.51265,23.48065 -23.48065,23.48065c-12.968,0 -23.48065,-10.51265 -23.48065,-23.48065z" fill="#ffffff" stroke="#000000" stroke-width="2" stroke-linecap="butt"/><path d="M227.50709,176.65643c0,0 7.87204,-0.49798 12.15094,-0.49798c4.08165,0 12.95865,0.49798 12.95865,0.49798" fill="none" stroke="#000000" stroke-width="2" stroke-linecap="round"/><path d="M267.1293,160.75627c-12.968,0 -23.48065,-10.51265 -23.48065,-23.48065c0,-12.968 10.51265,-23.48065 23.48065,-23.48065c12.968,0 23.48065,10.51265 23.48065,23.48065c0,12.968 -10.51265,23.48065 -23.48065,23.48065z" fill="#ffffff" stroke="#000000" stroke-width="2" stroke-linecap="butt"/><path d="M263.09954,209.90933l-54.42776,82.62075l2.11443,-17.57072l51.23813,-76.10277z" fill="#494949" stroke="#000000" stroke-width="2" stroke-linecap="round"/><path d="M227.63321,240.43369l8.85494,-12.81089l11.45154,-3.07711l1.60355,12.10084l-8.85494,12.81089l-11.94806,4.26065z" fill="#cccccc" stroke="#000000" stroke-width="2" stroke-linecap="butt"/></g></g></svg>