<svg version="1.1" xmlns="http://www.w3.org/2000/svg" xmlns:xlink="http://www.w3.org/1999/xlink" width="137.37138" height="267.22501" viewBox="0,0,137.37138,267.22501"><g transform="translate(-170.64855,-46.38751)"><g data-paper-data="{&quot;isPaintingLayer&quot;:true}" fill-rule="nonzero" stroke-linejoin="miter" stroke-miterlimit="10" stroke-dasharray="" stroke-dashoffset="0" style="mix-blend-mode: normal"><path d="M179.28378,313.61252v-267.22501h123.18203v267.22501z" fill-opacity="0.01" fill="#000000" stroke="none" stroke-width="0" stroke-linecap="butt"/><path d="M227.50709,176.65643c0,0 7.87204,-0.49798 12.15094,-0.49798c4.08165,0 12.95865,0.49798 12.95865,0.49798" fill="none" stroke="#000000" stroke-width="2" stroke-linecap="round"/><g stroke-width="2.5" stroke-linecap="butt"><g><path d="M196.06187,304.36658l-24.14629,-154.66515l11.77724,-67.00643l30.53241,41.68034l31.79203,180.32559z" fill="#ffffff" stroke="#000000"/><path d="M200.90464,295.3146l-22.20379,-139.42498l7.27734,-58.07454l24.13752,39.26997l28.75724,158.04146z" fill="#bfbfbf" stroke="none"/></g><g data-paper-data="{&quot;index&quot;:null}"><path d="M232.64899,302.56256l31.79203,-180.32559l30.53245,-41.68035l11.77724,67.00643l-27.96916,158.69033z" fill="#ffffff" stroke="#000000"/><path d="M240.06633,296.51012l28.48424,-161.56344l24.13752,-39.26998l7.27734,58.07455l-26.02665,140.93451z" fill="#bfbfbf" stroke="none"/></g><g><path d="M216.75788,304.86465v-189.6021l22.43654,-57.02323l22.04972,57.02323v189.6021z" fill="#ffffff" stroke="#000000"/><path d="M222.17357,294.88564v-169.87478l16.6591,-51.0902l16.37185,51.0902v169.87478z" fill="#bfbfbf" stroke="none"/></g></g></g></g></svg>