<svg version="1.1" xmlns="http://www.w3.org/2000/svg" xmlns:xlink="http://www.w3.org/1999/xlink" width="175.51024" height="267.22501" viewBox="0,0,175.51024,267.22501"><g transform="translate(-171.82018,-45.80536)"><g stroke-miterlimit="10"><path d="M180.73912,313.03037v-267.22501h123.18203v267.22501z" fill-opacity="0.01" fill="#000000" stroke="none" stroke-width="0"/><path d="M207.75006,307.5l15.14285,-131.8421l37.78325,-0.15789l13.57389,132z" fill="#7a7d5f" stroke="#000000" stroke-width="2"/><path d="M220.66657,203.62949l3.12142,-26.32765l35.83075,-0.14203l2.76735,26.1059c0,0 -7.51543,4.19603 -21.55904,4.50964c-12.48458,0.27879 -20.16049,-4.14586 -20.16049,-4.14586z" fill="#60624b" stroke="#000000" stroke-width="0"/><g stroke="#000000" stroke-width="2"><path d="M207.32713,100.89317c-8.75365,7.61192 -21.94471,8.09472 -29.46302,1.07838c-7.51831,-7.01634 -6.51688,-18.8749 2.23678,-26.48682c8.75366,-7.61193 21.94471,-8.09473 29.46303,-1.07838c7.51831,7.01634 6.51687,18.8749 -2.23678,26.48682z" fill="#87888c"/><path d="M317.55709,99.08942c9.85373,-3.24398 21.80491,2.69848 26.69372,13.27288c4.88879,10.57441 0.86392,21.77641 -8.98981,25.02039c-9.85373,3.24398 -21.80492,-2.69849 -26.69372,-13.27288c-4.8888,-10.5744 -0.86392,-21.77641 8.98981,-25.02039z" fill="#87888c"/><path d="M187.78292,126.5896c7.06684,-32.5434 40.90054,-52.82203 75.56967,-45.29358c34.66912,7.52845 57.04522,40.0131 49.97838,72.55649c-7.06684,32.5434 -40.90054,52.82203 -75.56967,45.29358c-34.66912,-7.52845 -57.04522,-40.0131 -49.97838,-72.55649z" fill="#87888c"/><path d="M271.91925,169.32726c-9.02207,-1.95915 -14.10507,-13.82059 -11.35318,-26.49325c2.75188,-12.67266 12.29656,-21.35767 21.31863,-19.39852c9.02207,1.95915 14.10507,13.82059 11.35318,26.49325c-2.75188,12.67266 -12.29656,21.35767 -21.31863,19.39852z" fill="#000000"/><path d="M220.4823,158.82455c-9.02207,-1.95915 -14.10507,-13.82059 -11.35318,-26.49325c2.75188,-12.67266 12.29656,-21.35767 21.31863,-19.39852c9.02207,1.95915 14.10507,13.82059 11.35318,26.49325c-2.75188,12.67266 -12.29656,21.35767 -21.31863,19.39852z" fill="#000000"/><path d="M242.72164,181.1305c-7.309,-1.58716 -12.05903,-8.28517 -10.60948,-14.96043c1.44954,-6.67527 8.54974,-10.79999 15.85874,-9.21283c7.309,1.58716 12.05902,8.28518 10.60949,14.96044c-1.44954,6.67527 -8.54974,10.79999 -15.85874,9.21283z" fill="#ff00ff"/></g></g></g></svg>