<svg version="1.1" xmlns="http://www.w3.org/2000/svg" xmlns:xlink="http://www.w3.org/1999/xlink" width="120.05301" height="227.04846" viewBox="0,0,120.05301,227.04846"><g transform="translate(-179.57814,-81.45156)"><g stroke-miterlimit="10"><path d="M206.75013,307.50001l15.14285,-131.8421l37.78325,-0.15789l13.57389,132z" fill="#babebf" fill-rule="nonzero" stroke="#000000" stroke-width="2" stroke-linecap="butt" stroke-linejoin="miter"/><path d="M202.79021,82.45156h73.62889c12.3055,0 22.21206,9.90659 22.21206,22.21206v62.94385c0,12.30547 -9.90655,22.21206 -22.21206,22.21206h-73.62889c-12.30547,0 -22.21206,-9.90659 -22.21206,-22.21206v-62.94385c0,-12.30547 9.90659,-22.21206 22.21206,-22.21206z" fill="#babebf" fill-rule="evenodd" stroke="#000000" stroke-width="2" stroke-linecap="round" stroke-linejoin="round"/><path d="M209.66944,92.48298h59.87056c10.00609,0 18.06151,8.05543 18.06151,18.06151v51.18213c0,10.00606 -8.05542,18.06151 -18.06151,18.06151h-59.87056c-10.00606,0 -18.06151,-8.05543 -18.06151,-18.06151v-51.18213c0,-10.00606 8.05543,-18.06151 18.06151,-18.06151z" fill="#ffffff" fill-rule="evenodd" stroke="#000000" stroke-width="2" stroke-linecap="round" stroke-linejoin="round"/><path d="M265.57939,240.18158l-51.15866,0.30634l3.06339,-13.17259l47.48259,-0.30634z" fill="#000000" fill-rule="nonzero" stroke="#000000" stroke-width="2" stroke-linecap="round" stroke-linejoin="miter"/><path d="M211.50007,163.83333c0,5.70694 -4.32791,10.33333 -9.66667,10.33333c-5.33875,0 -9.66667,-4.62639 -9.66667,-10.33333c0,-5.70694 4.32791,-10.33333 9.66667,-10.33333c5.33875,0 9.66667,4.62639 9.66667,10.33333z" fill="#000000" fill-rule="nonzero" stroke="#000000" stroke-width="2" stroke-linecap="butt" stroke-linejoin="miter"/><path d="M217.8334,169.5c0,5.70694 -4.32791,10.33333 -9.66666,10.33333c-5.33875,0 -9.66667,-4.62639 -9.66667,-10.33333c0,-5.70694 4.32792,-10.33334 9.66667,-10.33334c5.33875,0 9.66666,4.6264 9.66666,10.33334z" fill="#000000" fill-rule="nonzero" stroke="#000000" stroke-width="2" stroke-linecap="butt" stroke-linejoin="miter"/><path d="M286.83334,163.5c0,5.70694 -4.32791,10.33333 -9.66666,10.33333c-5.33875,0 -9.66667,-4.62639 -9.66667,-10.33333c0,-5.70694 4.32792,-10.33334 9.66667,-10.33334c5.33875,0 9.66666,4.6264 9.66666,10.33334z" fill="#000000" fill-rule="nonzero" stroke="#000000" stroke-width="2" stroke-linecap="butt" stroke-linejoin="miter"/><path d="M281.16669,169.16667c0,5.70694 -4.32791,10.33333 -9.66666,10.33333c-5.33876,0 -9.66667,-4.62639 -9.66667,-10.33333c0,-5.70694 4.32792,-10.33334 9.66667,-10.33334c5.33875,0 9.66666,4.6264 9.66666,10.33334z" fill="#000000" fill-rule="nonzero" stroke="#000000" stroke-width="2" stroke-linecap="butt" stroke-linejoin="miter"/><path d="M217.8334,101.83334c0,5.70694 -4.32791,10.33333 -9.66666,10.33333c-5.33875,0 -9.66667,-4.62639 -9.66667,-10.33333c0,-5.70694 4.32792,-10.33334 9.66667,-10.33334c5.33875,0 9.66666,4.6264 9.66666,10.33334z" fill="#000000" fill-rule="nonzero" stroke="#000000" stroke-width="2" stroke-linecap="butt" stroke-linejoin="miter"/><path d="M211.50007,109.5c0,5.70694 -4.32791,10.33333 -9.66666,10.33333c-5.33875,0 -9.66667,-4.62639 -9.66667,-10.33333c0,-5.70694 4.32792,-10.33334 9.66667,-10.33334c5.33875,0 9.66666,4.6264 9.66666,10.33334z" fill="#000000" fill-rule="nonzero" stroke="#000000" stroke-width="2" stroke-linecap="butt" stroke-linejoin="miter"/><path d="M283.50005,104.16667c0,5.70694 -4.32791,10.33333 -9.66666,10.33333c-5.33875,0 -9.66667,-4.62639 -9.66667,-10.33333c0,-5.70694 4.32792,-10.33334 9.66667,-10.33334c5.33875,0 9.66666,4.6264 9.66666,10.33334z" fill="#000000" fill-rule="nonzero" stroke="#000000" stroke-width="2" stroke-linecap="butt" stroke-linejoin="miter"/><path d="M285.83334,110.16667c0,5.70694 -4.32791,10.33333 -9.66666,10.33333c-5.33876,0 -9.66667,-4.62639 -9.66667,-10.33333c0,-5.70694 4.32791,-10.33334 9.66667,-10.33334c5.33875,0 9.66666,4.6264 9.66666,10.33334z" fill="#000000" fill-rule="nonzero" stroke="#000000" stroke-width="2" stroke-linecap="butt" stroke-linejoin="miter"/><path d="M197.66673,174.83333c0,-1.38071 1.11929,-2.5 2.5,-2.5c1.38071,0 2.5,1.11929 2.5,2.5c0,1.38071 -1.11929,2.5 -2.5,2.5c-1.38071,0 -2.5,-1.11929 -2.5,-2.5z" fill="#000000" fill-rule="nonzero" stroke="none" stroke-width="0.5" stroke-linecap="butt" stroke-linejoin="miter"/><path d="M278.00005,173.5c0,-1.38071 1.11929,-2.5 2.5,-2.5c1.38071,0 2.5,1.11929 2.5,2.5c0,1.38071 -1.11929,2.5 -2.5,2.5c-1.38071,0 -2.5,-1.11929 -2.5,-2.5z" fill="#000000" fill-rule="nonzero" stroke="none" stroke-width="0.5" stroke-linecap="butt" stroke-linejoin="miter"/><path d="M282.00005,104.16667c0,-1.38071 1.11929,-2.5 2.5,-2.5c1.38071,0 2.5,1.11929 2.5,2.5c0,1.38071 -1.11929,2.5 -2.5,2.5c-1.38071,0 -2.5,-1.11929 -2.5,-2.5z" fill="#000000" fill-rule="nonzero" stroke="none" stroke-width="0.5" stroke-linecap="butt" stroke-linejoin="miter"/><path d="M195.66673,99.5c0,-1.38071 1.11929,-2.5 2.5,-2.5c1.38071,0 2.5,1.11929 2.5,2.5c0,1.38071 -1.11929,2.5 -2.5,2.5c-1.38071,0 -2.5,-1.11929 -2.5,-2.5z" fill="#000000" fill-rule="nonzero" stroke="none" stroke-width="0.5" stroke-linecap="butt" stroke-linejoin="miter"/><text transform="translate(193.83339,133.8001) scale(0.45,0.45)" font-size="40" xml:space="preserve" fill="#000000" fill-rule="nonzero" stroke="none" stroke-width="1" stroke-linecap="butt" stroke-linejoin="miter" font-family="Pixel" font-weight="normal" text-anchor="start"><tspan x="0" dy="0">Would you</tspan><tspan x="0" dy="48px">like to</tspan></text><path d="M244.16667,87.83334c0,-2.76143 2.23857,-5 5,-5c2.76143,0 5,2.23857 5,5c0,2.76143 -2.23857,5 -5,5c-2.76143,0 -5,-2.23857 -5,-5z" fill="#000000" fill-rule="nonzero" stroke="none" stroke-width="0.5" stroke-linecap="butt" stroke-linejoin="miter"/><path d="M260.83333,87.83334c0,-2.76143 2.23858,-5 5,-5c2.76142,0 5,2.23857 5,5c0,2.76143 -2.23858,5 -5,5c-2.76142,0 -5,-2.23857 -5,-5z" fill="#000000" fill-rule="nonzero" stroke="none" stroke-width="0.5" stroke-linecap="butt" stroke-linejoin="miter"/></g></g></svg>