<svg version="1.1" xmlns="http://www.w3.org/2000/svg" xmlns:xlink="http://www.w3.org/1999/xlink" width="170.4606" height="267.22501" viewBox="0,0,170.4606,267.22501"><g transform="translate(-137.54445,-45.80536)"><g stroke-miterlimit="10"><path d="M180.73912,313.03037v-267.22501h123.18203v267.22501z" fill-opacity="0.01" fill="#000000" stroke="none" stroke-width="0"/><path d="M207.75006,307.5l15.14285,-131.8421l37.78325,-0.15789l13.57389,132z" fill="#7a7d5f" stroke="#000000" stroke-width="2"/><path d="M220.66657,203.62949l3.12142,-26.32765l35.83075,-0.14203l2.76735,26.1059c0,0 -7.51543,4.19603 -21.55904,4.50964c-12.48458,0.27879 -20.16049,-4.14586 -20.16049,-4.14586z" fill="#60624b" stroke="#000000" stroke-width="0"/><path d="M176.56302,136.9c0,-0.72799 5.20666,55.91939 63.36046,56.93429c55.56352,0.9697 63.51358,-57.95314 63.51358,-56.93429c0,32.80479 -28.40173,59.39833 -63.43702,59.39833c-35.03529,0 -63.43702,-26.59354 -63.43702,-59.39833z" fill="#535457" stroke="#000000" stroke-width="0"/><g stroke="#000000" stroke-width="2"><path d="M176.11208,129.59656c-3.24024,11.13861 -14.0705,18.68464 -24.19002,16.85453c-10.11953,-1.83011 -15.69629,-12.34333 -12.45605,-23.48194c3.24024,-11.13862 14.0705,-18.68465 24.19002,-16.85454c10.11953,1.83011 15.69629,12.34334 12.45605,23.48194z" fill="#87888c"/><path d="M267.82166,68.41445c6.52952,-8.06132 19.79511,-9.5336 29.62955,-3.28843c9.83443,6.24518 12.51358,17.84288 5.98407,25.9042c-6.52952,8.06132 -19.79512,9.5336 -29.62955,3.28843c-9.83443,-6.24518 -12.51358,-17.84288 -5.98407,-25.9042z" fill="#87888c"/><path d="M173.5875,161.7821c-11.67305,-31.18899 5.79928,-66.55366 39.02553,-78.98919c33.22624,-12.43553 69.62433,2.76715 81.29738,33.95613c11.67305,31.18899 -5.79928,66.55366 -39.02553,78.98919c-33.22624,12.43553 -69.62433,-2.76715 -81.29738,-33.95613z" fill="#87888c"/><path d="M267.46592,152.17626c-8.64658,3.23614 -19.34095,-3.98611 -23.88653,-16.13135c-4.54558,-12.14524 -1.22106,-24.61432 7.42552,-27.85046c8.64658,-3.23614 19.34095,3.98611 23.88653,16.13135c4.54558,12.14524 1.22106,24.61432 -7.42552,27.85046z" fill="#000000"/><path d="M218.53068,171.18701c-8.64658,3.23614 -19.34095,-3.98611 -23.88653,-16.13135c-4.54558,-12.14524 -1.22106,-24.61432 7.42552,-27.85046c8.64658,-3.23614 19.34095,3.98611 23.88653,16.13135c4.54558,12.14524 1.22106,24.61432 -7.42552,27.85046z" fill="#000000"/><path d="M249.30423,177.90503c-7.00481,2.62168 -14.62434,-0.43919 -17.0187,-6.83664c-2.39437,-6.39745 1.34314,-13.70889 8.34795,-16.33057c7.00481,-2.62168 14.62434,0.4392 17.01871,6.83664c2.39437,6.39745 -1.34315,13.7089 -8.34795,16.33057z" fill="#ff00ff"/></g></g></g></svg>