<svg version="1.1" xmlns="http://www.w3.org/2000/svg" xmlns:xlink="http://www.w3.org/1999/xlink" width="133.3923" height="265.7454" viewBox="0,0,133.3923,265.7454"><defs><linearGradient x1="240.00008" y1="175.50004" x2="240.00008" y2="307.50004" gradientUnits="userSpaceOnUse" id="color-1"><stop offset="0" stop-color="#131313"/><stop offset="1" stop-color="#007500"/></linearGradient><linearGradient x1="239.60008" y1="163.70004" x2="239.60008" y2="295.70004" gradientUnits="userSpaceOnUse" id="color-2"><stop offset="0" stop-color="#000000"/><stop offset="1" stop-color="#131313"/></linearGradient><linearGradient x1="240.34744" y1="62.02979" x2="240.34744" y2="138.74501" gradientUnits="userSpaceOnUse" id="color-3"><stop offset="0" stop-color="#ff0000"/><stop offset="1" stop-color="#000000"/></linearGradient><linearGradient x1="240.21667" y1="44.1" x2="240.21667" y2="155.1" gradientUnits="userSpaceOnUse" id="color-4"><stop offset="0" stop-color="#000000" stop-opacity="0.81176"/><stop offset="1" stop-color="#000000" stop-opacity="0"/></linearGradient></defs><g transform="translate(-172.92635,-42.75465)"><g data-paper-data="{&quot;isPaintingLayer&quot;:true}" fill-rule="nonzero" stroke-linejoin="miter" stroke-miterlimit="10" stroke-dasharray="" stroke-dashoffset="0" style="mix-blend-mode: normal"><path d="M230.51667,265.96407v-52.6h18.4v52.6z" fill="#000000" stroke="none" stroke-width="0" stroke-linecap="butt"/><path d="" fill-opacity="0.01" fill="#000000" stroke="none" stroke-width="0" stroke-linecap="butt"/><path d="M206.75009,307.50003l5.99841,-52.22549c1.53408,-0.16628 38.2539,-0.60013 55.07459,-0.54953l5.42699,52.77504z" fill="url(#color-1)" stroke="#000000" stroke-width="2" stroke-linecap="butt"/><path d="M221.49294,163.85793l37.78325,-0.15789l6.04881,58.82192c-13.13253,-0.33371 -50.2029,0.79735 -50.66459,0.82385z" fill="url(#color-2)" stroke="#000000" stroke-width="2" stroke-linecap="butt"/><path d="" fill="#007500" stroke="#000000" stroke-width="2" stroke-linecap="butt"/><path d="" fill="#ff0000" stroke="none" stroke-width="0.5" stroke-linecap="butt"/><path d="" fill="#c5f4ff" stroke="#000000" stroke-width="2" stroke-linecap="butt"/><path d="" fill="#000000" stroke="#000000" stroke-width="0" stroke-linecap="butt"/><g stroke-linecap="butt"><g><g><path d="M175.04109,162.12038v-28.08784h130.67818v28.08784z" fill="#00422c" stroke="none" stroke-width="0"/><path d="M175.33889,154.89814l0.39841,-111.14349h129.29251l0.19921,110.34668l-48.51395,-0.54765l-0.19363,-6.25681l-32.07762,0.23071l-0.27319,6.6159z" fill="#007500" stroke="#000000" stroke-width="2"/></g><path d="M235.00462,65.66133c1.62698,-2.31902 3.52512,-0.33129 3.52512,-0.33129c2.26161,2.82804 4.49657,0.68241 7.60822,1.39241c1.42898,0.32605 2.70936,1.30999 4.11361,1.76919c3.67378,1.20134 7.7957,-0.04318 11.44982,-0.41499c2.69905,-0.27464 5.45955,0.82552 8.1146,0.36377c3.42017,-0.59482 8.91466,-6.79555 12.52275,-2.70884c0.22488,0.25472 0.41158,0.61529 0.56709,1.05606c0.64582,0.89735 1.03523,1.95493 1.07624,3.09084l0.21464,5.12754c0.13867,1.20064 0.26118,2.40303 0.38269,3.60554c0.09789,0.39765 0.13255,0.81247 0.12542,1.2386c0.10412,1.02106 0.21128,2.04176 0.33077,3.06113c0.02284,0.1016 0.04548,0.20335 0.06788,0.30524c0.27886,-0.09846 0.56825,-0.19001 0.86861,-0.27427c3.45372,-0.96885 6.63878,2.94896 9.04152,5.36043c2.90805,2.91863 3.44499,8.11004 4.55451,11.77181c0.83014,2.73975 2.60895,5.32994 2.70099,8.1664c0.00139,0.04282 0.00266,0.08564 0.00382,0.12846l0.03177,-0.00708l2.14196,7.62625c0.15792,0.51427 0.24223,1.0556 0.24223,1.61447c0,3.37372 -3.07262,6.10868 -6.86288,6.10868c-0.19333,0 -0.38479,-0.00712 -0.57407,-0.02107l-0.20394,2.54141c-0.22314,3.19441 -3.20446,5.72375 -6.84948,5.72375c-0.44779,0 -0.88555,-0.03817 -1.30942,-0.11106v0.79163c0,3.37372 -3.07262,6.10867 -6.86288,6.10867c-3.08719,0 -5.69829,-1.81442 -6.56075,-4.31057l-1.0396,-2.77605l0.23109,-0.06857l-0.35336,-0.29526c-0.38734,-1.70661 -0.93534,-3.38924 -1.42643,-5.07929l-0.01428,0.0233c-1.14391,1.9564 -3.44249,3.29246 -6.09165,3.29246c-2.88609,0 -5.35608,-1.58573 -6.37029,-3.83175l-1.51253,-3.14138c-0.58126,-1.03113 -1.34136,-2.13293 -2.14374,-3.28208v1.72179c0,3.37372 -3.07262,6.10867 -6.86288,6.10867c-3.49533,0 -6.38034,-2.32587 -6.80818,-5.33368l-0.64912,-4.04447c-1.12324,0.71398 -2.49847,1.13407 -3.98394,1.13407c-2.73968,0 -5.10441,-1.42892 -6.20484,-3.49516l-2.65761,-4.73109l0.26553,-0.11818l-0.56377,-0.49433c-0.00997,-0.03498 -0.01992,-0.06995 -0.02985,-0.10494l-0.34589,2.15516c-0.42783,3.00781 -3.31285,5.33367 -6.80818,5.33367c-1.38919,0 -2.68198,-0.3674 -3.76242,-0.99899c-1.25153,1.48962 -3.24902,2.45382 -5.49953,2.45382c-2.88609,0 -5.35608,-1.58572 -6.37029,-3.83174l-1.57216,-3.26522c-0.25463,-0.52891 -0.58146,-1.20594 -0.94791,-1.96686c-0.00503,0.45906 -0.0304,0.91818 -0.08061,1.37742l1.08045,9.61716c0.02857,0.22635 0.04325,0.45645 0.04325,0.68959c0,3.37372 -3.07262,6.10867 -6.86288,6.10867c-0.20323,0 -0.40439,-0.00786 -0.60312,-0.02326l0.33717,2.90112c0.03049,0.23369 0.04617,0.47142 0.04617,0.71239c0,3.37372 -3.07262,6.10867 -6.86288,6.10867c-3.21717,0 -5.91731,-1.97043 -6.66029,-4.6294l-1.59523,-5.20638l0.11018,-0.02674l-0.16756,-0.17386c-3.89014,-17.20892 -6.69247,-35.22839 -6.72229,-52.811c0,0 0,-6.10867 6.86288,-6.10867c6.86288,0 6.86288,6.10867 6.86288,6.10867c-0.00262,1.33869 0.01261,2.68077 0.04474,4.02551c1.86856,0.66576 1.97569,-5.16104 1.97569,-5.16104c-0.65663,-0.93681 -1.03604,-2.04347 -1.03604,-3.22899c0,-3.37372 3.07262,-6.10867 6.86288,-6.10867c1.01291,0 1.97457,0.19531 2.84003,0.54595c0.31807,-0.04021 0.64317,-0.06101 0.97372,-0.06101c3.08719,0 5.69829,1.81442 6.56075,4.31057l0.95398,2.54742c1.2073,1.25175 1.60761,2.9391 2.2034,4.53333l-0.00002,0.00005c2.10081,2.68377 6.89126,-1.39816 7.98734,-4.5742c0.08275,-0.23979 0.17512,-0.47562 0.27608,-0.70791l-0.12259,-0.02728l1.05482,-3.7556c0.69355,-2.72031 3.42674,-4.75106 6.69279,-4.75106c2.28608,0 4.31108,0.99493 5.55831,2.52484l1.8922,2.26744c0.09876,-0.37144 0.27444,-0.7612 0.55479,-1.16079z" fill="url(#color-3)" stroke="none" stroke-width="0.5"/><path d="M245.15696,73.90317c4.49955,-0.41602 7.23647,0.16842 8.76481,0.75432c0.08799,0.00272 0.18367,0.00604 0.2861,0.01008c2.94734,-0.1612 5.62711,0.24142 5.62711,0.24142c3.37648,0.57822 7.60886,0.84579 10.12942,1.73465c2.63132,0.92792 2.96298,2.26983 4.44447,3.40475l0.94563,0.85244c0,0 0.433,0.39033 0.42068,0.90707c2.71322,0.55621 3.54031,1.55033 3.54031,1.55033c1.00763,1.23688 2.01529,2.47375 3.02292,3.71063l0.05048,2.31808c3.78817,5.4077 15.9801,26.82468 9.28649,32.43381l-11.79584,1.65049c-1.9867,0.35819 -11.07835,-7.23435 -13.06505,-6.87616l-9.27751,-4.04201c0,0 -4.03842,5.41326 -5.88212,5.18841c-0.2883,0.11469 -5.52742,-7.38253 -5.91073,-7.26734c-5.88299,1.76777 -6.86019,-4.56744 -6.86019,-4.56744l-3.57638,-1.10242l-1.58362,1.28481c-1.12337,0.9813 -4.22229,1.68643 -7.86933,1.68643c-4.43076,0 -8.2217,4.88002 -8.47482,3.5677l-5.84507,-2.75443c-1.05219,-0.40394 -1.81715,-2.46362 -3.01853,-2.84325c-1.10956,0.06032 -3.21025,-4.82543 -4.2482,-4.85737c1.09033,1.19332 -4.23577,2.80963 -2.87643,3.77104c0.28109,0.1988 -1.1257,6.81956 -0.83791,7.0052c0,0 3.95026,7.85834 -3.62382,8.89284c-7.57408,1.03451 -7.97185,3.83353 -7.97185,3.83353c-9.22013,-6.21824 -8.90833,-36.33723 1.08674,-42.68082l1.30265,-0.78286c-0.18893,-0.20918 -0.28976,-0.42927 -0.28976,-0.65642c0,-1.38071 3.72491,-2.5 8.3198,-2.5c1.58186,0 3.06059,0.13265 4.31974,0.36296c1.02497,-1.03163 4.20683,-1.78369 7.97326,-1.78369c1.73977,0 3.35484,0.16046 4.6902,0.43483c1.24837,-0.36549 2.61419,-0.73054 4.05308,-1.0538c1.66493,-0.14371 3.38931,-0.17173 5.15764,-0.047c1.51108,-0.46563 3.62168,-0.75475 5.95701,-0.75475c2.42712,0 4.6115,0.3123 6.13239,0.81047c0.69853,-0.33116 1.62479,-0.56213 2.57707,-0.72322c0.82456,-0.45386 2.31367,-0.87238 4.91926,-1.11328z" fill-opacity="0.45882" fill="#000000" stroke="none" stroke-width="0.5"/><path d="M241.06648,116.75181c-5.57703,0 -10.15518,-1.34384 -10.63377,-3.05722l-0.55335,-1.73734c-0.07656,-0.02404 -0.15193,-0.04845 -0.22614,-0.07322c-6.9688,-0.04306 -14.23169,-0.57599 -20.76623,-1.53748l-2.0242,1.1661c-1.77932,1.07429 -5.35474,1.80792 -9.47544,1.80792c-5.65206,0 -10.27816,-1.38024 -10.65085,-3.12656l-1.20611,-4.92674l0.12567,-0.00303l-0.14924,-0.12551c0.04197,-1.46892 -2.22972,-3.1451 -0.08912,-4.426l-2.9985,-3.01501c-0.36325,-0.33751 -0.56018,-0.69912 -0.56018,-1.07517c0,-1.85254 4.77939,-3.35433 10.67506,-3.35433c0.92869,0 1.82966,0.03726 2.68862,0.10728c9.80799,-4.16175 25.8058,-7.87863 36.09373,-10.24966c6.64783,-1.53211 12.53542,-4.62393 20.69582,-4.25532c7.07039,0.31939 8.38957,3.66693 11.3855,5.70448c2.47277,1.68174 3.1321,3.57252 4.85941,5.34379c0.81049,0.83111 2.10102,1.64373 3.31999,2.45789c2.50612,0.56888 4.19496,1.47122 4.40777,2.50001l1.20649,5.08132l-0.15607,0.00366l0.17827,0.12104c-0.04142,0.04162 -0.08284,0.08324 -0.1243,0.12488h0.13169v1.53961c2.84345,-0.08159 5.51444,0.02182 7.71461,0.54499c3.30367,0.78557 5.23103,4.32124 5.89797,7.45173c0.63252,0.477 1.8239,1.6402 0.25787,2.75634c-0.04373,0.92251 -0.24689,1.66182 -0.60404,2.06956c-2.32661,2.65626 -2.90823,7.07806 -11.60964,7.41644c-10.38239,0.40375 -16.61167,-3.9973 -24.91755,-5.99595c-0.82206,-0.58231 -1.69148,-1.15887 -2.57179,-1.73411c-1.20718,1.43653 -5.37101,2.49562 -10.32205,2.49562z" fill-opacity="0.62745" fill="#000000" stroke="none" stroke-width="0.5"/><path d="M217.60038,95.71065c1.77811,-0.26485 4.21128,-0.44606 7.54092,-0.44606c1.91503,0 3.53355,0.05994 4.90142,0.16127c1.28747,-0.99594 5.53709,-1.7498 10.73195,-1.85385c0.08241,-0.59306 0.12718,-1.18627 0.12634,-1.7796l0.24715,-0.11549l-0.20455,-0.00398l1.39299,-2.92947c0.53372,-1.28121 5.84711,-2.28741 12.32312,-2.28741c4.79872,0 8.95909,0.55249 11.00942,1.35997l9.71898,3.64868l-0.2046,0.02227c0.3164,0.0986 0.6241,0.1985 0.92235,0.29983c8.33801,2.83259 6.16049,8.08101 9.08138,11.32359l-0.18363,0.11529l0.24576,-0.00452l1.39161,3.09445c0.04284,0.08465 0.0648,0.17056 0.0648,0.25749c0,1.25971 -4.60905,2.30181 -10.60413,2.47479c-0.71893,0.66868 -2.13304,1.25205 -4.82573,1.67297c-4.47633,0.69975 -10.17859,0.91233 -16.15972,0.87133c-1.79522,0.20523 -3.8695,0.32237 -6.07907,0.32237c-3.66578,0 -6.95907,-0.32241 -9.22375,-0.83461c-1.47194,-0.07744 -2.90951,-0.15844 -4.29701,-0.23911c-0.55088,-0.03203 -1.08455,-0.07059 -1.60269,-0.11502c-0.86229,0.38358 -2.41714,0.76288 -5.029,1.09287c-10.48738,1.325 -17.04194,-0.795 -17.04194,-0.795l-8.24417,-2.79011c-1.32571,-2.25217 -6.32795,-5.14345 -8.77012,-7.76863c-1.41293,-0.59505 -3.03545,-1.27426 -5.01129,-2.07354l0.17913,-0.37675l-0.62034,0.02191l-4.21642,-4.87777c-0.14816,-0.1547 -0.22573,-0.31448 -0.22573,-0.47793c0,-1.38071 5.53699,-2.5 12.36719,-2.5c5.11933,0 9.51215,0.62878 11.39167,1.52514l8.046,3.61114l-0.22271,0.02028c0.24705,0.08013 0.48821,0.16113 0.72313,0.24306c0.12214,0.04259 0.24255,0.08598 0.36137,0.13014z" fill-opacity="0.68235" fill="#000000" stroke="none" stroke-width="0.5"/></g><path d="M174.38334,155.1c0,0 0,-18.67934 0,-31.59551c0,-20.47594 0,-79.40449 0,-79.40449h131.66667v111z" fill="url(#color-4)" stroke="none" stroke-width="0"/></g><path d="M304.52803,151.23174l0.71899,9.7345l-64.21229,4.14351l-0.90354,-17.51102l15.71749,-0.96115l0.97466,7.9179z" data-paper-data="{&quot;index&quot;:null}" fill="#007500" stroke="#000000" stroke-width="2" stroke-linecap="round"/><path d="M223.37264,155.66203l1.24081,-7.88087l15.91967,1.50408l-1.47361,17.47241l-65.03141,-6.3615l1.03912,-9.70556z" fill="#007500" stroke="#000000" stroke-width="2" stroke-linecap="round"/><path d="M214.71667,232.36408v-7.4h21.8v7.4z" fill="#000000" stroke="none" stroke-width="0" stroke-linecap="butt"/><path d="M213.51667,243.16408v-7.4h21.8v7.4z" fill="#000000" stroke="none" stroke-width="0" stroke-linecap="butt"/><path d="M211.51667,252.96408v-7.4h21.8v7.4z" fill="#000000" stroke="none" stroke-width="0" stroke-linecap="butt"/><path d="M243.71666,232.76408v-7.4h21.8v7.4z" fill="#000000" stroke="none" stroke-width="0" stroke-linecap="butt"/><path d="M245.11666,241.76408v-7.4h21.8v7.4z" fill="#000000" stroke="none" stroke-width="0" stroke-linecap="butt"/><path d="M247.91667,252.96408v-7.4h21.8v7.4z" fill="#000000" stroke="none" stroke-width="0" stroke-linecap="butt"/><path d="M298.76492,173.63127v-22.89082h5.4502v22.89082z" fill="#000000" stroke="none" stroke-width="0" stroke-linecap="butt"/><path d="M187.36292,177.1194v-24.41687h7.19426v24.41687z" fill="#000000" stroke="none" stroke-width="0" stroke-linecap="butt"/><path d="M174.71847,169.27112v-18.09465h3.92414v18.09465z" fill="#000000" stroke="none" stroke-width="0" stroke-linecap="butt"/></g></g></svg>