<svg version="1.1" xmlns="http://www.w3.org/2000/svg" xmlns:xlink="http://www.w3.org/1999/xlink" width="123.18203" height="267.22501" viewBox="0,0,123.18203,267.22501"><g transform="translate(-180.73913,-45.80536)"><g stroke-miterlimit="10"><path d="M180.73913,313.03037v-267.22501h123.18203v267.22501z" fill-opacity="0.01" fill="#000000" stroke="none" stroke-width="0"/><path d="M207.75007,307.5l15.14285,-131.8421l37.78325,-0.15789l13.57389,132z" fill="#7a7d5f" stroke="#000000" stroke-width="2"/><path d="M220.66658,203.62949l3.12142,-26.32765l35.83075,-0.14203l2.76735,26.1059c0,0 -7.51543,4.19603 -21.55904,4.50964c-12.48458,0.27879 -20.16049,-4.14586 -20.16049,-4.14586z" fill="#60624b" stroke="#000000" stroke-width="0"/><path d="M245.74895,186.81228c-2.41191,-0.65779 -1.75411,-3.0697 -1.75411,-3.0697l0.48605,-1.72511c0.1256,-0.79408 0.25596,-1.58763 0.3938,-2.37984c-0.09185,0.01022 -0.18519,0.01548 -0.27976,0.01548c-1.31622,0 -2.39487,-1.01717 -2.49276,-2.30832c-0.13485,0.00536 -0.26774,0.00835 -0.39835,0.00856c-0.07149,1.48651 -0.47503,2.91735 -1.37993,3.98074c-1.34168,1.57666 -4.2172,1.15458 -6.18872,0.52286c-1.49387,-0.47868 -2.96615,-1.52974 -4.01897,-2.88107c-0.94182,0.03182 -1.94705,-0.14938 -2.83167,-0.31243c-0.33673,-0.06206 -0.66926,-0.1577 -0.99591,-0.28348c-0.97458,-0.06861 -1.51342,-0.45789 -1.77752,-1.01302c-0.6531,-0.49797 -1.26259,-1.10932 -1.81071,-1.79807c-0.7337,-0.21232 -1.32849,-0.75174 -1.6162,-1.45004c-0.40377,-0.23045 -0.71367,-0.55 -0.86984,-1.00536c-0.79772,-2.32593 -0.76939,-3.7037 -0.29324,-4.4913c-0.19284,-3.02997 1.08208,-5.72914 4.66732,-6.3925c4.28421,-0.79269 7.9644,1.40983 9.03129,4.91472c0.30078,0.48519 0.53118,1.04171 0.69737,1.64281c0.03918,0.01103 0.07832,0.02229 0.11742,0.03377l2.58616,0.22489l-0.00111,0.01276c1.84429,-0.36255 3.68858,-0.72511 5.53287,-1.08766l-1.17334,3.31394c0.15839,0.03089 0.31673,0.06207 0.47504,0.09352c0.27036,-0.11859 0.54125,-0.23601 0.81262,-0.35229c0.09545,-0.59785 0.24113,-1.17427 0.41024,-1.68154c0.48329,-1.44968 1.57261,-2.47654 2.89963,-3.12677l0.20581,-0.64314c0.30516,-1.03616 1.26349,-1.7925 2.39848,-1.7925c1.06886,0 1.98105,0.67078 2.33858,1.61434c0.10524,0.01153 0.20943,0.02492 0.3124,0.04015l1.13334,-1.98333c0.42441,-0.77572 1.24811,-1.30179 2.19468,-1.30179c1.38071,0 2.5,1.11929 2.5,2.5v4.89191h-0.05468c-0.01639,0.03647 -0.03653,0.07398 -0.05959,0.11205c0.02931,0.00297 0.05846,0.00644 0.08745,0.01042c1.44833,-1.62071 3.20098,-4.18427 6.04225,-1.11167c1.42388,1.53982 0.99111,4.19572 0.62459,6.2607c-0.00632,0.0356 -0.0127,0.07107 -0.01915,0.10641c1.99319,3.07453 0.41607,5.0248 -1.82932,6.31507l0.10377,0.15094l-2.87257,1.97489c-0.40758,0.28848 -0.90533,0.45801 -1.44266,0.45801c-0.28794,0 -0.56453,-0.04869 -0.82195,-0.13827c-0.19451,0.86653 -0.83893,1.56295 -1.67511,1.83112c0.01212,0.03204 0.02146,0.05955 0.02787,0.08225c0.3414,1.2088 -0.33416,2.52285 -0.14947,3.76529c0.1138,0.76556 0.81314,1.34021 1.01929,2.08622c1.50986,5.46382 2.10693,11.77409 2.46386,17.43825l0.1033,-0.23736c0,0 1.11804,2.23606 -1.11803,3.3541c-2.23607,1.11803 -3.3541,-1.11803 -3.3541,-1.11803l-0.62143,-1.68681c-0.32597,-5.26163 -0.83163,-11.19371 -2.24687,-16.26156c-0.25707,-0.92057 -1.00917,-1.67989 -1.15488,-2.6245c-0.17728,-1.14924 0.48181,-2.35068 0.2129,-3.48199c-0.08277,-0.34822 -0.28448,-0.64372 -0.52076,-0.92434l-1.27365,0.67927c-0.36048,0.20156 -0.77598,0.31645 -1.21833,0.31645c-0.10557,0 -0.20961,-0.00654 -0.31173,-0.01924c-0.35224,0.07159 -0.76658,0.06354 -1.25197,-0.06885z" fill="#000000" stroke="none" stroke-width="0.5"/></g></g></svg>